<?xml version="1.0" standalone="no"?>
<!DOCTYPE svg PUBLIC "-//W3C//DTD SVG 20010904//EN"
 "http://www.w3.org/TR/2001/REC-SVG-20010904/DTD/svg10.dtd">
<svg version="1.0" xmlns="http://www.w3.org/2000/svg"
 width="24" height="24" viewBox="0 0 528.000000 528.000000"
 preserveAspectRatio="xMidYMid meet">
<metadata>
Created by potrace 1.11, written by Peter Selinger 2001-2013
</metadata>
<g transform="translate(0.000000,528.000000) scale(0.100000,-0.100000)"
 stroke="none">
<path d="M975 5244 c-390 -70 -733 -345 -886 -712 -17 -41 -43 -119 -58 -171
l-26 -96 -3 -1580 c-2 -1092 1 -1606 8 -1663 22 -167 91 -348 191 -502 55 -84
235 -264 319 -319 154 -100 335 -169 502 -191 57 -7 571 -10 1663 -8 l1580 3
96 26 c223 62 385 154 543 307 179 174 299 401 341 646 23 134 23 3158 0 3292
-85 493 -476 884 -969 969 -129 22 -3177 21 -3301 -1z m2371 -978 c9 -13 14
-46 14 -98 0 -74 -1 -78 -22 -78 -19 0 -20 -2 -8 -10 12 -8 9 -9 -10 -6 -65
13 -78 15 -117 20 -30 4 -43 2 -43 -7 0 -8 -4 -7 -10 3 -6 10 -10 11 -10 3 0
-8 -14 -13 -35 -13 l-35 0 0 -757 c0 -417 -5 -821 -10 -898 -28 -382 -109
-605 -311 -849 -115 -139 -243 -248 -540 -459 l-176 -124 -184 261 c-119 168
-184 269 -184 286 0 21 26 43 165 142 257 183 355 288 440 472 42 89 65 174
80 287 5 42 10 448 10 946 0 785 2 873 16 888 14 14 66 15 486 13 452 -3 470
-4 484 -22z"/>
<path d="M3078 4093 c7 -3 16 -2 19 1 4 3 -2 6 -13 5 -11 0 -14 -3 -6 -6z"/>
</g>
</svg>
