<?xml version="1.0" encoding="UTF-8"?>
<svg version="1.1" xmlns="http://www.w3.org/2000/svg" width="24" height="24" viewBox="0 0 192 192">
<path d="M0 0 C63.36 0 126.72 0 192 0 C192 63.36 192 126.72 192 192 C128.64 192 65.28 192 0 192 C0 128.64 0 65.28 0 0 Z " fill="none" transform="translate(0,0)" stroke="currentcolor" stroke-width="24" />
<path d="M0 0 C0.98601196 -0.03898911 0.98601196 -0.03898911 1.99194336 -0.07876587 C8.91851603 -0.3338838 15.85005294 -0.44606299 22.78027344 -0.54882812 C26.05521802 -0.60197288 29.3241958 -0.69882961 32.59667969 -0.8359375 C62.65657867 -2.06547998 62.65657867 -2.06547998 71.42941284 5.89456177 C73.88848012 8.57804015 76.06625142 11.33706114 78.11004639 14.34771729 C81.70228976 19.48720306 86.09601603 24.13124568 90.60107422 28.48095703 C93.91562187 31.75053989 97.039035 35.12823707 100.05810547 38.67236328 C101.34713676 40.18330375 102.68713893 41.65056518 104.03857422 43.10595703 C105.60107422 45.48095703 105.60107422 45.48095703 106.28857422 48.29345703 C105.21107059 53.28915568 102.10089478 55.87422877 98.60107422 59.48095703 C97.58026833 60.5736075 96.56225132 61.66886727 95.54638672 62.76611328 C92.55863462 65.99108476 89.55478507 69.20054157 86.54638672 72.40625 C84.55135741 74.53398081 82.56020937 76.66528806 80.56982422 78.79736328 C79.24696626 80.21278273 77.92405112 81.62814875 76.60107422 83.04345703 C75.99070312 83.69765625 75.38033203 84.35185547 74.75146484 85.02587891 C73.87264648 85.96463867 73.87264648 85.96463867 72.97607422 86.92236328 C72.46818359 87.46578369 71.96029297 88.0092041 71.43701172 88.5690918 C70.83115234 89.20000732 70.22529297 89.83092285 69.60107422 90.48095703 C68.86791992 91.53081787 68.13476562 92.58067871 67.37939453 93.66235352 C63.1924742 97.79057607 57.83700764 97.22906575 52.29998779 97.21203613 C50.79095973 97.18803059 49.28194668 97.16306491 47.77294922 97.13720703 C46.21690604 97.13108667 44.66085188 97.12733837 43.10479736 97.12585449 C39.85312586 97.11667307 36.60245193 97.08791363 33.35107422 97.04345703 C29.17892689 96.98670423 25.00756067 96.96501305 20.83506393 96.95609283 C17.62660895 96.94779237 14.41831234 96.92816739 11.20993805 96.90434265 C9.67092403 96.89293604 8.13189483 96.88341901 6.59285736 96.87580872 C4.44786096 96.86209885 2.30348901 96.83484918 0.15869141 96.80322266 C-1.06231262 96.78956665 -2.28331665 96.77591064 -3.5413208 96.76184082 C-6.39892578 96.48095703 -6.39892578 96.48095703 -8.39892578 94.48095703 C-8.57395573 91.89992397 -8.63054857 89.42787541 -8.59423828 86.84814453 C-8.59140839 86.0963089 -8.58857849 85.34447327 -8.58566284 84.56985474 C-8.57445452 82.16506125 -8.5493493 79.76063822 -8.52392578 77.35595703 C-8.5138968 75.72705615 -8.50477081 74.09814945 -8.49658203 72.46923828 C-8.47451313 68.47300147 -8.43997929 64.47704209 -8.39892578 60.48095703 C-7.61711441 60.48841446 -6.83530304 60.49587189 -6.02980042 60.5035553 C1.37014213 60.56610535 8.76835101 60.58505622 16.16845608 60.55611515 C19.97232732 60.54274742 23.77466884 60.54571663 27.57836914 60.5871582 C31.25554894 60.62660133 34.93032875 60.62164537 38.60753059 60.58703423 C40.00403501 60.58147304 41.4006972 60.59140364 42.79696465 60.61772346 C50.28149366 60.74834068 55.45081675 60.46802173 61.09350586 55.22485352 C64.06137347 52.07514896 64.06137347 52.07514896 64.51646423 47.9500885 C62.75010285 43.18558549 59.88408953 40.17450913 55.60107422 37.48095703 C50.68506841 36.35120339 45.8361177 36.40621039 40.81982422 36.48095703 C39.39633982 36.47342759 37.97287009 36.46238399 36.54943848 36.44799805 C32.82695543 36.41971152 29.10620452 36.43875328 25.38378906 36.46807861 C21.57589748 36.48956164 17.7683096 36.46570148 13.96044922 36.44580078 C6.50689339 36.4134573 -0.94541762 36.43117251 -8.39892578 36.48095703 C-8.44829461 31.67547106 -8.48463021 26.87013209 -8.50878906 22.06445312 C-8.51885832 20.42901031 -8.53251459 18.79358554 -8.54980469 17.15820312 C-8.57401283 14.81001333 -8.58539936 12.46206116 -8.59423828 10.11376953 C-8.60972214 9.01369064 -8.60972214 9.01369064 -8.6255188 7.89138794 C-8.62591947 6.08633006 -8.52105333 4.28187873 -8.39892578 2.48095703 C-5.63178463 -0.28618412 -3.88088819 0.14280062 0 0 Z " fill="currentcolor" transform="translate(51.39892578125,47.51904296875)"/>
</svg>
