<svg xmlns="http://www.w3.org/2000/svg" width="500" height="271" viewBox="0 0 500 271" version="1.1">
	<path d="M -0 135.502 L -0 271.004 250.250 270.752 L 500.500 270.500 500.754 135.250 L 501.007 0 250.504 0 L 0 0 -0 135.502 M -0 135.750 L -0.001 270.500 43 270.229 C 78.474 270.006, 86 269.720, 86 268.597 C 86 267.685, 87.319 267.218, 90 267.181 C 92.837 267.141, 94 267.543, 94 268.563 C 94 270.790, 460.507 270.728, 461.362 268.500 C 461.691 267.642, 463.183 267, 464.846 267 C 466.446 267, 468.315 267.675, 469 268.500 C 470.396 270.182, 474 270.543, 474 269 C 474 268.436, 476.833 268, 480.500 268 C 484.167 268, 487 268.436, 487 269 C 487 269.556, 489.667 270, 493 270 L 499 270 499 135.500 L 499 1 249.500 1 L 0 1 -0 135.750 M 3.078 3.406 C -0.044 7.168, 2.015 8.470, 12.010 9.059 C 20.183 9.540, 20.667 9.658, 15.500 9.910 C 12.200 10.071, 7.997 10.119, 6.160 10.017 C 3.410 9.864, 2.883 10.155, 3.174 11.666 C 3.701 14.402, 52.276 14.522, 52.802 11.788 C 53.091 10.290, 51.971 10.036, 43.816 9.746 C 38.692 9.564, 43.275 9.413, 54 9.411 C 64.725 9.409, 69.736 9.560, 65.136 9.746 C 55.791 10.124, 51.020 12.379, 57.228 13.483 C 59.028 13.803, 79.625 13.938, 103 13.782 C 139.986 13.537, 145.500 13.305, 145.500 12 C 145.500 9.502, 91.343 9.240, 90.692 11.734 C 90.274 13.338, 90.221 13.343, 90.116 11.790 C 90.019 10.355, 88.678 10.027, 81.750 9.744 C 77.113 9.555, 80.426 9.318, 89.316 9.204 L 105.133 9 104.816 6.250 C 104.571 4.114, 103.942 3.470, 102 3.363 C 92.933 2.868, 83.052 2.787, 47.408 2.915 C 25.358 2.994, 6.643 2.800, 5.819 2.484 C 4.995 2.168, 3.761 2.583, 3.078 3.406 M 12.287 27.692 C 10.816 31.534, 12.355 32.488, 21.010 33.101 C 25.680 33.431, 29.850 33.396, 30.279 33.022 C 30.707 32.648, 33.573 32.684, 36.648 33.101 C 43.286 34.002, 47 32.887, 47 29.993 C 47 27.191, 46.656 27.131, 28.622 26.795 C 17.023 26.580, 12.620 26.821, 12.287 27.692 M 87.750 26.742 C 86.564 27.016, 86 28.110, 86 30.135 L 86 33.124 94.250 32.994 C 108.714 32.765, 113 32.977, 113 33.918 C 113 34.439, 107.255 34.764, 99.750 34.668 C 87.111 34.508, 86.500 34.592, 86.500 36.500 C 86.500 38.445, 87.244 38.506, 113.317 38.731 L 140.134 38.962 139.817 36.830 C 139.513 34.786, 139 34.701, 127.250 34.738 C 120.513 34.759, 115 34.376, 115 33.888 C 115 33.400, 118.263 32.974, 122.250 32.943 C 126.237 32.911, 131.451 32.683, 133.836 32.437 C 136.221 32.190, 138.642 32.279, 139.216 32.634 C 140.137 33.202, 150.309 33.172, 159.767 32.573 C 163.659 32.326, 165.302 30.949, 164.426 28.667 C 163.812 27.069, 160.693 26.520, 154 26.834 C 149.149 27.061, 96.453 26.859, 93 26.600 C 91.075 26.455, 88.713 26.519, 87.750 26.742 M 447 28.581 C 447 29.911, 447.337 31.017, 447.750 31.038 C 448.163 31.058, 457.050 31.171, 467.500 31.288 L 486.500 31.500 486.500 29 L 486.500 26.500 466.750 26.331 L 447 26.161 447 28.581 M 141.418 34.917 C 141.188 35.146, 141 36.158, 141 37.167 C 141 38.801, 142.004 39.017, 150.250 39.158 C 155.338 39.244, 160.175 39.223, 161 39.111 C 161.825 38.999, 168.860 38.938, 176.634 38.977 C 190.913 39.048, 193.145 38.471, 191.141 35.228 C 190.395 34.020, 176.190 34.146, 174.197 35.378 C 173.539 35.785, 173 35.745, 173 35.290 C 173 34.472, 142.229 34.109, 141.418 34.917 M 13.079 39.750 C 13.126 40.795, 13.361 40.997, 13.662 40.250 C 14.049 39.292, 20.697 39, 42.142 39 C 60.538 39, 69.906 39.342, 69.500 40 C 69.118 40.617, 58.481 41.089, 41.691 41.233 L 14.500 41.466 41.378 41.750 C 67.610 42.026, 72.097 41.584, 70.430 38.887 C 70.129 38.399, 57.084 38, 41.441 38 C 14.991 38, 13.006 38.123, 13.079 39.750 M 101.001 45.281 C 101.001 47.500, 101.003 47.500, 122.050 47.592 C 142.585 47.683, 143.091 47.636, 142.799 45.677 C 142.512 43.751, 141.645 43.656, 121.750 43.365 L 101 43.061 101.001 45.281 M 144 44.093 C 144 44.592, 144.563 45.007, 145.250 45.015 C 146.083 45.026, 146 45.354, 145 46 C 142.946 47.327, 140.895 47.234, 176.712 47.447 C 203.051 47.604, 209.019 47.392, 209.445 46.282 C 209.732 45.535, 209.213 44.635, 208.292 44.282 C 206.870 43.736, 165.456 43.388, 158 43.860 C 156.625 43.946, 152.912 43.830, 149.750 43.602 C 146.588 43.373, 144 43.594, 144 44.093 M 30.302 45.655 C 29.043 48.937, 30.678 49.524, 41.891 49.809 C 51.386 50.051, 53.118 49.855, 53.646 48.479 C 54.760 45.577, 52.351 44.798, 41.506 44.552 C 33.302 44.366, 30.699 44.622, 30.302 45.655 M 13.693 55.640 C 12.282 57.052, 12.964 63.772, 14.582 64.393 C 15.452 64.727, 21.697 65, 28.459 65 C 42.180 65, 43.363 64.491, 42.818 58.815 L 42.500 55.500 28.443 55.224 C 20.712 55.072, 14.074 55.259, 13.693 55.640 M 279.041 72.250 C 278.271 76.787, 277.384 83.425, 277.070 87 L 276.500 93.500 274.705 84 C 271.014 64.468, 266.598 65.295, 265.280 85.765 C 264.849 92.452, 264.455 93.979, 263.216 93.765 C 260.829 93.352, 260.081 98.039, 260.467 111.002 C 260.849 123.833, 262.123 128.305, 264.671 125.757 C 267.070 123.359, 267.945 117.354, 268.064 102.500 C 268.125 94.800, 268.497 86.250, 268.891 83.500 L 269.606 78.500 270.932 84.500 C 271.661 87.800, 272.273 93.650, 272.292 97.500 C 272.324 103.780, 272.368 103.934, 272.721 99 C 273.176 92.647, 274.043 91.238, 275.784 94.025 C 276.782 95.624, 276.761 96, 275.673 96 C 274.228 96, 271.820 121.776, 273.185 122.616 C 273.562 122.848, 274.065 121.792, 274.304 120.269 C 274.546 118.724, 274.626 119.084, 274.486 121.084 C 274.162 125.704, 275.627 128.555, 277.518 126.985 C 279.520 125.324, 280.393 114.773, 280.904 86.083 C 281.023 79.348, 282.125 80.225, 283.712 88.319 C 284.723 93.475, 284.852 93.719, 284.487 89.794 C 284.247 87.205, 284.423 84.857, 284.879 84.575 C 286.176 83.773, 288.216 89.034, 287.123 90.362 C 286.608 90.988, 285.866 98.475, 285.474 107 C 284.799 121.706, 284.867 122.628, 286.810 125 C 288.181 126.674, 289.193 127.170, 289.871 126.500 C 291.506 124.886, 292.979 113.346, 293.063 101.500 C 293.207 81.081, 295.215 83.527, 296.756 106 L 297.476 116.500 297.988 109.500 C 298.343 104.641, 298.882 102.576, 299.750 102.750 C 300.438 102.887, 301 102.862, 301 102.693 C 301 102.524, 300.097 97.471, 298.993 91.464 C 296.714 79.058, 294.202 74.726, 291.442 78.441 C 290.649 79.509, 290 81.646, 290 83.191 C 290 86.297, 288.426 86.998, 287.623 84.250 C 287.342 83.287, 286.631 79.800, 286.045 76.500 C 285.458 73.200, 284.533 70.350, 283.989 70.167 C 283.445 69.983, 283 68.521, 283 66.917 C 283 60.585, 280.435 64.041, 279.041 72.250 M 12.568 70.765 C 11.342 71.991, 12.093 74.878, 13.750 75.311 C 15.356 75.730, 15.350 75.778, 13.677 75.884 C 12.509 75.958, 11.973 76.629, 12.187 77.750 C 12.458 79.174, 13.777 79.555, 19.260 79.796 C 25.693 80.078, 26.003 79.987, 26.063 77.796 L 26.127 75.500 27.031 77.750 C 27.840 79.761, 28.628 80, 34.468 80 C 39.667 80, 41 79.688, 41 78.469 C 41 77.626, 40.392 76.704, 39.648 76.419 C 38.822 76.102, 38.479 74.946, 38.765 73.450 C 39.232 71.004, 39.217 71, 30.367 70.907 C 25.490 70.855, 19.618 70.675, 17.318 70.505 C 15.018 70.335, 12.881 70.452, 12.568 70.765 M 242.593 71.618 C 242.252 72.508, 241.460 78.808, 240.833 85.618 C 240.207 92.428, 239.345 98, 238.919 98 C 238.059 98, 236.117 89.445, 235.741 84 C 235.558 81.343, 235.011 80.430, 233.468 80.209 C 230.856 79.835, 229.225 85.518, 228.332 98.110 C 227.626 108.055, 226.596 110.158, 225.581 103.732 C 224.501 96.891, 222.775 92, 221.440 92 C 219.647 92, 216.424 97.914, 215.699 102.535 C 215.357 104.716, 214.893 107.400, 214.667 108.500 C 214.441 109.600, 214.543 110.950, 214.892 111.500 C 215.241 112.050, 215.257 114.975, 214.926 118 L 214.326 123.500 214.031 118.500 C 213.744 113.623, 213.719 113.586, 213 117 C 212.333 120.170, 212.251 119.977, 212.132 114.950 C 212.059 111.898, 212.407 108.973, 212.905 108.450 C 213.448 107.880, 213.219 104.897, 212.333 101 C 211.520 97.425, 210.636 93.375, 210.367 92 C 210.098 90.625, 209.672 88.487, 209.420 87.250 C 209.168 86.013, 208.295 85, 207.481 85 C 206.315 85, 206 86.478, 206 91.941 C 206 95.759, 205.585 99.139, 205.077 99.452 C 204.569 99.766, 203.858 101.368, 203.497 103.011 C 202.753 106.400, 201 107.059, 201 103.950 C 201 99.708, 198.129 95.914, 195.214 96.305 C 192.850 96.621, 192.363 97.326, 191.346 101.909 C 190.168 107.211, 189.057 109.515, 188.931 106.917 C 188.629 100.697, 186.229 95, 183.911 95 C 180.885 95, 178.999 97.215, 178.986 100.785 C 178.969 105.613, 178.005 109.121, 176.886 108.430 C 176.399 108.128, 176 105.710, 176 103.056 C 176 94.545, 168.017 91.664, 166.930 99.783 C 166.024 106.552, 164.331 107.112, 163.343 100.970 C 162.697 96.953, 161.996 95.540, 160.348 94.931 C 156.516 93.517, 155.063 95.784, 154.352 104.283 C 153.559 113.760, 152.497 114.897, 151.601 107.226 C 150.494 97.741, 149.182 94, 146.961 94 C 144.916 94, 144.473 94.932, 145.750 96.550 C 146.163 97.073, 146.073 97.162, 145.550 96.750 C 142.955 94.701, 142 96.114, 142 102 C 142 106.667, 141.667 108, 140.500 108 C 139.494 108, 139 106.994, 139 104.943 C 139 100.905, 137.009 93.123, 135.782 92.365 C 133.479 90.942, 130 94.277, 129.989 97.919 C 129.971 103.925, 128.818 109.319, 127.872 107.827 C 127.409 107.097, 127.024 105.269, 127.015 103.764 C 126.935 89.405, 118.376 86.447, 117.257 100.392 C 116.393 111.145, 115.379 109.609, 112.840 93.707 C 110.776 80.779, 106.637 84.454, 104.510 101.104 C 103.961 105.396, 103.748 105.674, 101.361 105.218 C 98.026 104.581, 98.395 107.890, 101.852 109.613 C 103.967 110.668, 104.201 111.491, 104.343 118.389 C 104.436 122.901, 104.093 126.001, 103.500 126.002 C 102.950 126.002, 102.500 124.131, 102.500 121.843 C 102.500 119.409, 101.981 117.508, 101.250 117.259 C 100.478 116.996, 100 117.756, 100 119.246 C 100 121.105, 99.484 121.641, 97.750 121.579 C 96.113 121.522, 95.408 122.148, 95.164 123.876 C 94.863 126.002, 95.145 126.206, 97.837 125.811 C 100.248 125.457, 101.057 125.830, 101.902 127.684 C 102.482 128.958, 103.399 130, 103.940 130 C 105.832 130, 108 119.664, 108.015 110.568 C 108.024 105.581, 108.394 100.927, 108.838 100.227 C 109.926 98.514, 111.959 107.495, 112.142 114.826 C 112.281 120.393, 112.298 120.424, 113.042 116.500 C 113.628 113.415, 113.767 114.329, 113.650 120.500 C 113.512 127.841, 113.662 128.500, 115.468 128.500 C 118.118 128.500, 119.807 122.701, 119.981 113 C 120.055 108.875, 120.452 103.700, 120.863 101.500 L 121.610 97.500 122.356 103.758 C 122.766 107.200, 123.700 110.575, 124.432 111.258 C 125.369 112.132, 125.612 114.179, 125.251 118.161 C 124.658 124.714, 125.481 129, 127.334 129 C 129.483 129, 131.992 122.295, 132.118 116.216 C 132.183 113.072, 132.527 109.150, 132.882 107.500 L 133.528 104.500 135.264 109.033 C 136.219 111.527, 137 116.278, 137 119.592 C 137 128.744, 140.487 131.876, 143.190 125.153 C 143.777 123.694, 144.560 118.450, 144.930 113.500 C 145.527 105.516, 145.690 104.952, 146.373 108.500 C 146.797 110.700, 147.548 113.400, 148.042 114.500 C 148.536 115.600, 149.294 119.200, 149.726 122.500 C 151.146 133.332, 156.796 128.940, 156.944 116.890 C 156.975 114.354, 157.293 110.139, 157.652 107.522 C 158.278 102.953, 158.356 102.859, 159.617 105.133 C 160.338 106.435, 160.990 108.850, 161.064 110.500 C 161.197 113.445, 161.214 113.454, 161.984 111 C 162.427 109.588, 162.559 112.201, 162.288 117 C 161.491 131.106, 167.007 133.895, 168.493 120.138 C 169.945 106.695, 169.959 106.653, 172.212 108.685 C 173.960 110.260, 174.162 111.392, 173.746 117.250 C 173.483 120.963, 173.608 124, 174.025 124 C 174.442 124, 175.074 125.157, 175.428 126.571 C 177.153 133.442, 181.241 125.316, 181.753 114 C 181.965 109.325, 182.365 104.825, 182.644 104 C 183.464 101.569, 185.980 108.633, 186.157 113.865 L 186.314 118.500 187.045 114 C 187.564 110.808, 187.666 111.846, 187.396 117.570 C 186.948 127.092, 188.497 130.861, 191.602 127.802 C 192.939 126.484, 193.492 123.456, 194.067 114.302 C 194.474 107.811, 194.869 102.275, 194.944 102 C 195.644 99.429, 197.914 108.476, 198.457 116 C 199.270 127.263, 199.681 129, 201.532 129 C 203.905 129, 205.118 125.244, 206.161 114.668 C 206.712 109.076, 207.541 104.109, 208.002 103.630 C 209.299 102.283, 210.987 109.786, 211.008 117 C 211.032 125.210, 211.780 128, 213.956 128 C 216.662 128, 218.131 123.344, 218.926 112.254 C 219.778 100.352, 220.259 99.283, 221.987 105.453 C 222.681 107.934, 223.642 109.721, 224.122 109.425 C 224.602 109.128, 224.545 110.066, 223.997 111.508 C 222.630 115.103, 222.710 120.409, 224.088 117.500 C 224.735 116.134, 224.869 117.797, 224.510 122.750 C 224.019 129.543, 224.114 130, 226.018 130 C 229.115 130, 230.134 126.041, 231.153 110.046 C 231.659 102.097, 232.282 95.384, 232.537 95.130 C 233.752 93.914, 234.534 96.861, 234.978 104.330 L 235.463 112.500 236.108 106.500 C 236.462 103.200, 236.557 106.350, 236.318 113.500 C 235.825 128.279, 236.869 132.012, 240.402 128.108 C 241.936 126.413, 242.421 123.075, 243.376 107.616 C 244.004 97.459, 244.820 88.847, 245.189 88.478 C 245.558 88.109, 246.215 91.113, 246.650 95.153 C 247.397 102.107, 247.477 102.286, 248.145 98.500 C 248.533 96.300, 248.616 100.203, 248.329 107.173 C 247.728 121.779, 248.323 126, 250.982 126 C 254.107 126, 255.198 120.378, 255.987 100.213 C 256.402 89.605, 257.024 80.642, 257.370 80.296 C 257.717 79.950, 258 81.106, 258 82.865 C 258 87.352, 260.414 92.667, 262.452 92.667 C 263.719 92.667, 263.975 92.141, 263.469 90.583 C 263.096 89.438, 262.130 84.900, 261.321 80.500 C 259.757 71.986, 258.973 70.413, 256.723 71.276 C 255.437 71.770, 254.161 76.607, 252.448 87.487 C 251.576 93.026, 249.500 90.133, 248.592 82.115 C 248.228 78.897, 247.677 76.011, 247.368 75.701 C 246.410 74.743, 243.973 76.147, 244.660 77.259 C 245.066 77.916, 244.820 78.007, 244.003 77.502 C 242.968 76.862, 243.039 76.444, 244.349 75.487 C 246.355 74.020, 246.545 70, 244.607 70 C 243.841 70, 242.935 70.728, 242.593 71.618 M 440.415 85.750 C 440.072 87.263, 439.164 90.719, 438.396 93.432 C 437.628 96.144, 437 99.406, 437 100.682 C 437 105.721, 435.237 102.619, 434.607 96.471 C 433.623 86.860, 432.970 84.333, 431.472 84.333 C 429.633 84.333, 426.118 93.145, 425.350 99.683 C 424.562 106.385, 423.899 105.796, 422 96.704 C 420.886 91.374, 420.045 89.437, 418.735 89.186 C 416.581 88.773, 413.055 95.873, 413.022 100.691 C 413.010 102.446, 412.563 104.152, 412.029 104.482 C 411.032 105.098, 410.863 104.563, 408.968 94.750 C 407.538 87.341, 405.281 86.984, 402.668 93.754 C 398.757 103.886, 399.497 103.693, 396.958 95.250 C 396.253 92.905, 395.058 91, 394.292 91 C 391.770 91, 388.067 96.296, 388 100 C 387.942 103.170, 387.808 103.331, 386.575 101.705 C 385.826 100.718, 384.913 97.905, 384.546 95.455 C 383.945 91.449, 383.606 91.001, 381.189 91.008 C 377.873 91.017, 376 94.515, 376 100.699 C 376 107.693, 373.111 105.110, 372.982 98 C 372.817 88.958, 364 90.448, 364 99.518 C 364 104.457, 361.607 103.621, 361.181 98.533 C 360.825 94.275, 358.459 90, 356.458 90 C 354.214 90, 351 95.085, 351 98.635 C 351 103.185, 349.344 102.913, 348.662 98.250 C 347.454 89.988, 346.769 88, 345.137 88.015 C 341.382 88.050, 339 93.040, 339 100.872 C 339 105.030, 338.876 105.266, 337.638 103.473 C 336.889 102.388, 335.952 99.305, 335.557 96.622 C 334.592 90.068, 334.095 89, 332.008 89 C 329.607 89, 327.016 93.191, 326.930 97.215 C 326.847 101.078, 325.581 104.770, 324.797 103.434 C 324.496 102.920, 323.932 99.800, 323.544 96.500 C 321.865 82.221, 315.841 82.660, 314.324 97.172 C 313.690 103.241, 312.089 103.464, 311.971 97.500 C 311.776 87.633, 306.185 79.432, 304.427 86.435 C 304.073 87.846, 303.402 89, 302.935 89 C 302.469 89, 301.955 92.263, 301.794 96.250 C 301.608 100.841, 301.096 103.427, 300.399 103.300 C 298.705 102.991, 297.621 124.050, 299.247 125.675 C 302.355 128.782, 304.933 122.357, 304.976 111.397 C 304.989 108.040, 305.320 102.415, 305.710 98.897 L 306.421 92.500 307.212 97 C 307.646 99.475, 308.316 103.525, 308.700 106 C 309.377 110.367, 309.419 110.411, 310.128 107.500 C 310.530 105.850, 310.613 108.592, 310.312 113.594 C 309.662 124.421, 310.303 127.242, 313.312 126.808 C 315.802 126.450, 316.491 123.519, 317.349 109.635 C 317.650 104.759, 318.139 100.528, 318.435 100.232 C 320.017 98.650, 322.302 108.198, 322.397 116.786 C 322.476 123.879, 322.854 126.291, 324 127 C 327.443 129.130, 329.982 120.576, 329.994 106.809 C 329.997 103.129, 330.398 99.872, 330.884 99.572 C 332.534 98.552, 333.837 104.466, 334.372 115.403 C 334.939 126.990, 335.565 128.770, 338.359 126.727 C 340.644 125.056, 341.923 119.302, 342.076 110 C 342.195 102.758, 343.663 94.466, 343.900 99.691 C 343.955 100.896, 344.450 102.160, 345 102.500 C 345.550 102.840, 346.045 104.779, 346.100 106.809 C 346.189 110.107, 346.283 110.234, 346.984 108 C 347.419 106.613, 347.537 109.312, 347.249 114.063 C 346.738 122.486, 347.728 127, 350.086 127 C 352.139 127, 354.002 119.936, 354.100 111.782 C 354.155 107.227, 354.523 102.375, 354.917 101 L 355.636 98.500 357.360 101.783 C 358.309 103.588, 359.467 104.829, 359.935 104.540 C 360.402 104.252, 360.431 105.700, 359.999 107.758 C 358.907 112.971, 358.044 124.290, 358.796 123.537 C 359.138 123.195, 359.750 120.797, 360.155 118.208 C 360.856 113.742, 360.878 113.808, 360.588 119.500 C 360.242 126.274, 360.615 128, 362.423 128 C 364.632 128, 366.145 122.809, 366.642 113.529 C 366.907 108.563, 367.360 103.375, 367.648 102 L 368.172 99.500 369.455 102 C 370.160 103.375, 370.974 109.346, 371.262 115.269 C 371.748 125.250, 372.792 129, 375.084 129 C 376.604 129, 379 118.755, 379 112.253 C 379 102.106, 382.876 97.424, 383.142 107.250 L 383.284 112.500 384.056 108.500 C 384.528 106.061, 384.650 108.597, 384.371 115 C 383.874 126.368, 384.660 129.300, 387.696 127.407 C 389.802 126.094, 390.568 122.537, 391.424 110.097 C 392.159 99.419, 392.748 97.727, 394.555 101.102 C 395.253 102.407, 395.553 103.931, 395.220 104.487 C 394.888 105.044, 395.397 104.867, 396.350 104.092 C 397.712 102.987, 398.344 102.946, 399.292 103.902 C 400.238 104.854, 400.150 104.985, 398.886 104.504 C 396.854 103.731, 396 107.483, 396 117.191 C 396 124.449, 397.129 128, 399.437 128 C 401.530 128, 403.060 122.428, 403.692 112.500 C 404.686 96.877, 407.233 98.857, 408.410 116.167 C 409.067 125.839, 409.629 128, 411.485 128 C 414.262 128, 415.137 124.696, 416.032 110.833 C 416.541 102.950, 417.013 96.275, 417.081 96 C 417.366 94.849, 419.251 102.882, 419.780 107.500 C 420.303 112.076, 420.411 112.246, 421.052 109.500 C 421.437 107.850, 421.522 110.782, 421.241 116.015 C 420.816 123.924, 420.998 125.753, 422.321 126.851 C 425.521 129.507, 427.977 123.953, 428.003 114 C 428.022 106.885, 429.095 98, 429.935 98 C 431.643 98, 433.473 107.876, 432.993 114.500 C 432.430 122.262, 434.237 128.289, 436.972 127.773 C 438.981 127.394, 440.759 118.832, 440.974 108.500 C 441.316 92.086, 444.240 97.110, 445.526 116.319 C 446.214 126.617, 446.679 128.208, 448.876 127.787 C 451.359 127.311, 452.869 121.437, 453.062 111.500 C 453.158 106.550, 453.580 101.150, 454 99.500 L 454.763 96.500 454.882 100.191 C 454.947 102.221, 455.450 104.160, 456 104.500 C 456.550 104.840, 457.076 107.904, 457.168 111.309 C 457.294 115.940, 457.437 116.492, 457.735 113.500 C 458.209 108.745, 459.476 107.072, 461.250 108.859 C 462.252 109.868, 462.177 109.996, 460.873 109.500 C 458.720 108.680, 457.038 125.136, 459.030 127.536 C 462.356 131.543, 464.593 125.955, 465.432 111.549 C 465.782 105.526, 466.266 100.401, 466.507 100.160 C 467.338 99.329, 469.249 105.518, 469.699 110.500 C 470.323 117.404, 470.736 118.464, 472.296 117.169 C 472.996 116.588, 476.254 115.975, 479.535 115.806 C 484.731 115.539, 485.500 115.242, 485.500 113.500 C 485.500 111.741, 484.733 111.464, 479.130 111.199 L 472.761 110.898 473.392 106.949 C 473.739 104.777, 473.658 103, 473.211 103 C 472.764 103, 471.798 99.625, 471.065 95.500 C 470.182 90.530, 469.278 88, 468.383 88 C 466.109 88, 462 97.419, 462 102.633 C 462 109.623, 460.696 107.050, 458.989 96.690 C 457.869 89.894, 457.065 87.444, 455.882 87.216 C 453.894 86.833, 450.007 95.383, 449.985 100.185 C 449.957 106.203, 448.241 106.747, 447.744 100.896 C 446.814 89.933, 444.942 83, 442.912 83 C 441.685 83, 440.823 83.950, 440.415 85.750 M 13.410 104.375 C 13.107 105.164, 13.003 107.315, 13.180 109.155 L 13.500 112.500 26.500 112.500 L 39.500 112.500 39.500 108 L 39.500 103.500 26.730 103.220 C 16.373 102.993, 13.856 103.211, 13.410 104.375 M 14 108 L 14 112 26.500 112 L 39 112 39 108 L 39 104 26.500 104 L 14 104 14 108 M 13 117.980 C 11.760 118.773, 11.718 119.291, 12.758 120.969 C 13.502 122.169, 13.604 123, 13.008 123 C 12.454 123, 12 123.675, 12 124.500 C 12 125.717, 13.624 126, 20.617 126 C 28.741 126, 29.203 125.886, 28.710 124 C 28.270 122.316, 28.686 121.995, 31.344 121.967 C 67.811 121.583, 68.462 121.544, 68.809 119.750 C 69.124 118.120, 67.371 118, 43.155 118 C 28.860 118, 16.564 117.780, 15.832 117.511 C 15.099 117.241, 13.825 117.453, 13 117.980 M 29.380 133.452 C 28.195 136.539, 30.046 137.031, 41.563 136.685 C 53.551 136.326, 54.616 136.049, 53.655 133.543 C 52.807 131.333, 30.226 131.249, 29.380 133.452 M 173.284 158.702 C 173.031 159.363, 173.100 160.352, 173.438 160.899 C 174.252 162.216, 210 162.040, 210 160.719 C 210 160.107, 210.456 160.102, 211.250 160.707 C 213.068 162.093, 221.245 161.741, 221.744 160.256 C 222.379 158.367, 217.737 157.044, 213.683 157.959 C 211.712 158.403, 209.867 158.534, 209.583 158.250 C 208.399 157.065, 173.747 157.497, 173.284 158.702 M 279.691 157.822 C 277.689 158.052, 276.974 158.627, 277.204 159.822 C 277.490 161.305, 279.648 161.538, 295.764 161.828 C 313.667 162.150, 314 162.118, 314 160.078 C 314 158.245, 313.382 157.994, 308.750 157.946 C 305.863 157.916, 298.775 157.804, 293 157.696 C 287.225 157.588, 281.236 157.645, 279.691 157.822 M 319.288 158.702 C 318.145 161.657, 320.337 162.008, 338.313 161.756 C 355.748 161.511, 356.500 161.417, 356.500 159.500 C 356.500 157.573, 355.833 157.500, 338.126 157.500 C 324.742 157.500, 319.626 157.826, 319.288 158.702 M 362.422 157.917 C 362.190 158.146, 362 159.153, 362 160.155 C 362 162.670, 398.717 162.902, 399.679 160.394 C 399.992 159.580, 399.928 158.596, 399.539 158.207 C 398.799 157.468, 363.158 157.190, 362.422 157.917 M 86 182.158 L 86 185 93.300 185 C 97.644 185, 101.086 185.486, 101.800 186.200 C 102.733 187.133, 103.267 187.133, 104.200 186.200 C 104.860 185.540, 108.010 185, 111.200 185 C 116.720 185, 117 184.879, 117 182.500 C 117 180.033, 116.884 179.998, 108.250 179.876 C 103.438 179.808, 96.463 179.654, 92.750 179.534 L 86 179.316 86 182.158 M 90.401 192.396 C 89.135 195.695, 90.699 196.806, 97.103 197.158 C 109.073 197.815, 113 197.134, 113 194.403 C 113 192.036, 112.860 192, 103.582 192 C 98.402 192, 93.456 191.728, 92.590 191.396 C 91.648 191.035, 90.770 191.436, 90.401 192.396 M 119.804 192.737 C 119.239 193.418, 119.037 194.655, 119.357 195.487 C 119.754 196.522, 119.315 197, 117.969 197 C 116.667 197, 116 197.677, 116 199 C 116 200.905, 116.667 201, 130 201 C 143.333 201, 144 200.905, 144 199 C 144 197.667, 143.333 197, 142 197 C 140.533 197, 140 196.333, 140 194.500 C 140 192.116, 139.710 191.993, 133.750 191.849 C 130.313 191.766, 125.999 191.654, 124.166 191.599 C 122.332 191.545, 120.369 192.057, 119.804 192.737 M 227.576 203.753 C 227.440 203.892, 212.629 204.016, 194.664 204.029 C 163.453 204.052, 162 204.136, 162 205.919 C 162 206.946, 162.563 207.976, 163.250 208.209 C 164.190 208.527, 210.541 208.410, 227.677 208.046 C 228.882 208.021, 230.057 207.219, 230.311 206.250 C 230.702 204.752, 230.785 204.736, 230.884 206.141 C 231.115 209.411, 243 209.236, 243 205.962 C 243 204.411, 241.938 204.112, 235.412 203.829 C 231.239 203.648, 227.713 203.614, 227.576 203.753 M 86 206.054 C 86 208.294, 82.062 208.066, 125.500 208.342 C 159.503 208.558, 161 208.456, 161 205.939 C 161 204.224, 159.864 204.098, 144.476 204.105 C 135.388 204.110, 128.185 204.491, 128.470 204.952 C 128.755 205.413, 128.321 206.046, 127.506 206.359 C 126.652 206.687, 126.125 206.414, 126.262 205.714 C 126.415 204.931, 124.813 204.392, 121.750 204.195 C 117.989 203.954, 117 204.214, 117 205.445 C 117 206.300, 116.523 207, 115.941 207 C 115.359 207, 115.131 206.597, 115.435 206.105 C 116.450 204.463, 113.012 204.025, 99.451 204.066 C 86.804 204.105, 86 204.223, 86 206.054 M 452.625 205.708 C 451.207 207.126, 452.176 208.866, 454.915 209.821 C 456.518 210.379, 458.060 210.607, 458.341 210.326 C 458.622 210.045, 464.046 209.721, 470.394 209.606 C 482.256 209.391, 483.625 209.070, 482.723 206.721 C 482.177 205.297, 453.985 204.348, 452.625 205.708 M 86 212.045 C 86 213.848, 86.740 214, 95.500 214 C 103.278 214, 105 213.728, 105 212.500 C 105 210.726, 107.567 210.491, 108.605 212.170 C 109.091 212.957, 108.783 213.131, 107.664 212.701 C 106.749 212.350, 106 212.499, 106 213.031 C 106 213.564, 107.463 214.011, 109.250 214.024 C 113.315 214.055, 237.343 214.053, 249.250 214.022 C 257.298 214.002, 258 213.841, 258 212.019 C 258 210.072, 257.194 210.038, 211.565 210.060 C 168.620 210.080, 165.097 210.210, 164.681 211.791 C 164.260 213.394, 164.225 213.395, 164.116 211.797 C 163.922 208.947, 86 209.195, 86 212.045 M 86.180 220.250 C 86.496 222.472, 86.711 222.503, 103.250 222.703 L 120 222.905 120 220.453 L 120 218 102.930 218 L 85.861 218 86.180 220.250 M 220.392 219.422 C 219.234 222.440, 221.123 222.919, 234.095 222.897 C 246.917 222.875, 247.118 222.840, 246.811 220.687 C 246.512 218.585, 246.002 218.489, 233.730 218.220 C 223.190 217.989, 220.861 218.199, 220.392 219.422 M 355.177 220.220 C 355.494 222.460, 355.730 222.500, 368.500 222.500 C 380.833 222.500, 381.500 222.397, 381.500 220.500 C 381.500 218.614, 380.740 218.484, 368.177 218.220 L 354.853 217.941 355.177 220.220 M 355 227.114 C 355 229.474, 355.461 229.791, 359.745 230.379 C 362.355 230.736, 364.605 230.685, 364.745 230.264 C 364.885 229.844, 371.331 229.627, 379.069 229.782 L 393.139 230.064 392.820 227.282 L 392.500 224.500 373.750 224.500 L 355 224.500 355 227.114 M 86 237.574 C 86 240.434, 89.169 240.905, 108.750 240.953 L 124 240.991 124 238.495 C 124 235.519, 125.643 235.757, 103.750 235.563 C 86.155 235.406, 86 235.423, 86 237.574 M 86 248.474 C 86 251.224, 86.501 253.254, 87.250 253.539 C 87.938 253.801, 177.825 253.636, 287 253.173 L 485.500 252.330 354 251.921 L 222.500 251.511 354.500 251 L 486.500 250.489 387 250.244 C 332.275 250.109, 243.981 249.700, 190.791 249.335 L 94.082 248.671 94.291 246.585 C 94.469 244.807, 93.875 244.455, 90.250 244.193 L 86 243.885 86 248.474 M 454.001 246.438 C 454.002 248.428, 454.579 248.508, 470.568 248.734 L 487.135 248.967 486.817 246.734 C 486.504 244.530, 486.284 244.499, 470.250 244.438 C 454.484 244.379, 454 244.438, 454.001 246.438 M 86 257.930 C 86 259.137, 86.843 260.023, 88.250 260.294 L 90.500 260.728 88.250 260.864 C 86.712 260.957, 86 261.633, 86 263 C 86 264.993, 86.621 264.999, 253.750 264.863 C 346.012 264.787, 436.125 264.423, 454 264.053 L 486.500 263.380 457.500 262.964 L 428.500 262.548 456 262.024 C 481.971 261.529, 480.358 261.455, 427 260.686 C 395.925 260.239, 308.596 260.014, 232.936 260.186 L 95.373 260.500 95.803 258.250 C 96.204 256.154, 95.883 256, 91.117 256 C 86.728 256, 86 256.275, 86 257.930 M 461 258.140 C 461 259.828, 461.915 260, 470.875 260 C 476.306 260, 482.196 260.289, 483.963 260.643 C 486.921 261.234, 487.150 261.095, 486.838 258.893 C 486.503 256.519, 486.401 256.499, 473.750 256.390 C 461.948 256.289, 461 256.419, 461 258.140" stroke="none" fill="black" fill-rule="evenodd"/>
</svg>