<svg xmlns="http://www.w3.org/2000/svg" width="500" height="271" viewBox="0 0 500 271" version="1.1">
	<path d="M -0 135.502 L -0 271.004 250.250 270.752 L 500.500 270.500 500.754 135.250 L 501.007 0 250.504 0 L 0 0 -0 135.502 M 0.100 135.917 C 0.045 210.396, 0.240 271.094, 0.533 270.801 C 0.825 270.508, 1.048 255.133, 1.028 236.634 C 1.004 214.758, 1.343 203, 1.996 203 C 2.828 203, 3.467 208.402, 3.269 213.750 C 3.243 214.438, 3.847 215, 4.611 215 C 5.535 215, 5.961 216.088, 5.884 218.250 C 5.809 220.354, 5.598 220.795, 5.287 219.500 C 3.674 212.795, 3.100 218.595, 3.125 241.349 C 3.151 265.580, 3.255 267, 4.993 267 C 6.005 267, 7.060 266.437, 7.338 265.750 C 7.738 264.757, 7.858 264.759, 7.921 265.760 C 7.989 266.840, 127.261 267.924, 142.500 266.983 C 144.150 266.881, 145.950 266.806, 146.500 266.815 C 175.199 267.293, 191.429 266.931, 192.163 265.795 C 192.822 264.775, 193.170 264.763, 193.800 265.736 C 194.400 266.661, 200.494 266.962, 218.050 266.931 C 230.948 266.909, 245.662 266.922, 250.750 266.961 C 258.378 267.018, 260 266.765, 260 265.515 C 260 264.682, 260.788 264.036, 261.750 264.079 C 262.795 264.126, 262.997 264.361, 262.250 264.662 C 261.562 264.940, 261 265.579, 261 266.083 C 261 267.331, 270.725 267.254, 271.500 266 C 271.840 265.450, 272.654 265.007, 273.309 265.015 C 274.037 265.025, 273.916 265.432, 273 266.061 C 271.936 266.792, 274.332 267.005, 281.251 266.796 C 286.614 266.633, 291.001 266.725, 291.001 267 C 291 267.794, 306.249 267.421, 308.875 266.562 C 310.664 265.977, 311.058 266.097, 310.471 267.047 C 309.940 267.907, 310.094 268.060, 310.956 267.527 C 311.651 267.097, 324.830 266.819, 340.242 266.908 C 365.831 267.056, 368.447 266.916, 370.365 265.285 C 372.389 263.565, 372.414 263.566, 371.046 265.327 C 369.726 267.027, 369.867 267.132, 373.063 266.827 C 375.269 266.617, 376.402 266.026, 376.225 265.176 C 376.074 264.447, 376.419 264.141, 376.992 264.495 C 377.564 264.849, 377.755 265.587, 377.417 266.135 C 377.014 266.786, 382.378 267.022, 392.902 266.816 C 401.757 266.642, 409.002 266.725, 409.001 267 C 409 267.275, 428.608 267.378, 452.575 267.229 L 496.150 266.958 495.881 253.473 C 495.619 240.384, 495.551 240.007, 493.556 240.627 C 491.506 241.264, 491.506 241.259, 493.469 239.062 C 495.058 237.284, 495.509 235.058, 495.804 227.551 L 496.168 218.245 493.334 218.689 L 490.500 219.133 493.250 217.335 C 495.730 215.713, 497.391 213.022, 495 214.500 C 494.450 214.840, 494 214.416, 494 213.559 C 494 212.702, 494.357 212, 494.794 212 C 495.231 212, 495.647 209.525, 495.718 206.500 L 495.846 201 492.423 201 C 489.479 201, 489 201.335, 489 203.393 C 489 204.709, 488.406 206.014, 487.681 206.292 C 486.623 206.698, 486.573 206.123, 487.425 203.399 C 488.207 200.903, 489.066 200, 490.663 200 C 494.502 200, 496 198.886, 496 196.032 C 496 193.776, 495.593 193.318, 493.750 193.501 C 492.512 193.624, 492.288 193.530, 493.250 193.293 C 494.213 193.055, 495.069 192.330, 495.152 191.680 C 495.589 188.297, 495.481 187.437, 494.535 186.765 C 493.868 186.292, 493.945 186.025, 494.750 186.015 C 495.629 186.005, 496 183.925, 496 179 C 496 174.727, 495.586 172, 494.938 172 C 492.337 172, 483.777 175.417, 483.307 176.643 C 483.020 177.390, 482.354 178, 481.825 178 C 481.296 178, 481.804 176.680, 482.953 175.066 L 485.042 172.132 482.021 173.639 C 480.359 174.468, 479 175.531, 479 176.002 C 479 178.486, 475.935 179.873, 472.833 178.792 C 470.226 177.883, 469.490 177.977, 468.487 179.349 C 467.823 180.257, 466.429 180.986, 465.390 180.970 C 463.599 180.941, 463.605 180.880, 465.500 179.805 C 466.600 179.181, 467.792 178.230, 468.148 177.691 C 468.519 177.131, 470.551 176.992, 472.898 177.368 C 476.662 177.970, 477 177.841, 477 175.812 C 477 174.141, 476.718 173.882, 475.847 174.753 C 475.016 175.584, 474.139 175.610, 472.709 174.845 C 471.180 174.026, 469.782 174.241, 466.613 175.783 C 462.439 177.814, 451.630 179.407, 452.593 177.850 C 453.401 176.542, 448.557 176.843, 447.217 178.183 C 446.566 178.834, 445.692 179.025, 445.275 178.608 C 444.858 178.191, 445.300 177.411, 446.258 176.875 C 447.216 176.339, 448 175.525, 448 175.067 C 448 173.901, 443.070 173.077, 442.417 174.134 C 442.123 174.610, 442.471 175.014, 443.191 175.032 C 444.060 175.053, 443.912 175.510, 442.750 176.392 C 440.607 178.019, 440.451 179.425, 442.500 178.638 C 443.325 178.322, 444 178.499, 444 179.031 C 444 180.306, 442.745 180.254, 439.315 178.838 C 435.976 177.459, 427 176.969, 427 178.165 C 427 178.624, 426.523 179, 425.941 179 C 425.359 179, 425.201 178.483, 425.592 177.851 C 426.108 177.017, 424.961 176.868, 421.401 177.308 C 418.705 177.641, 414.553 177.537, 412.173 177.077 C 406.948 176.067, 396.215 179.245, 395.153 182.116 C 394.525 183.812, 394.211 184, 392 184 C 390.304 184, 390.897 185.826, 392.750 186.311 C 394.101 186.664, 394.001 186.794, 392.309 186.884 C 391.104 186.948, 389.840 187.450, 389.500 188 C 389.160 188.550, 388.346 188.993, 387.691 188.985 C 386.835 188.974, 386.859 188.742, 387.773 188.161 C 388.474 187.717, 389.236 186.372, 389.467 185.173 C 389.698 183.974, 390.164 182.544, 390.502 181.996 C 390.841 181.448, 390.641 181, 390.059 181 C 389.477 181, 389 181.450, 389 182 C 389 183.586, 387.031 183.170, 384.273 181 C 381.542 178.852, 381.932 178.358, 385.043 180.023 C 386.405 180.752, 387.572 180.680, 389.108 179.773 C 390.824 178.758, 391.353 178.754, 391.714 179.750 C 392.380 181.590, 393.696 181.271, 394.255 179.132 C 394.524 178.105, 394.239 177.276, 393.622 177.290 C 390.011 177.371, 388 176.863, 388 175.871 C 388 175.095, 389.561 174.949, 393 175.406 C 396.205 175.831, 398 175.698, 398 175.034 C 398 173.128, 387.347 173.470, 385 175.451 C 384.175 176.148, 382.600 176.955, 381.500 177.246 C 380.400 177.536, 378.600 178.133, 377.500 178.574 C 375.773 179.265, 375.674 179.160, 376.776 177.803 C 377.886 176.437, 377.666 176.251, 375.095 176.380 C 373.469 176.462, 371.807 176.860, 371.402 177.264 C 370.304 178.363, 366 178.152, 366 177 C 366 175.264, 362.083 175.917, 360 178 C 357.616 180.384, 356.566 180.574, 357.371 178.477 C 357.852 177.223, 357.595 177.146, 355.922 178.042 C 354.804 178.640, 353.352 178.911, 352.695 178.644 C 352.025 178.371, 352.242 178.123, 353.191 178.079 C 355.944 177.950, 356.181 176.268, 353.519 175.759 C 352.167 175.500, 351.258 175.608, 351.499 175.998 C 352.017 176.836, 347.587 179, 345.354 179 C 344.501 179, 342.256 178.266, 340.365 177.369 C 336.163 175.375, 334.708 176.239, 338.662 178.382 C 341.167 179.739, 341.250 179.925, 339.372 179.960 C 336.890 180.007, 334.387 182.503, 335.890 183.432 C 336.433 183.768, 337.321 183.249, 337.864 182.279 C 339.571 179.229, 340.186 181.619, 338.644 185.310 C 337.833 187.250, 337.432 189.099, 337.752 189.418 C 338.506 190.173, 344.861 190.144, 347.739 189.373 C 350.345 188.674, 349.782 187, 346.941 187 C 345.873 187, 345.113 186.438, 345.250 185.750 C 345.414 184.928, 344.472 184.590, 342.500 184.764 C 339.642 185.015, 339.592 184.956, 341.448 183.509 C 342.519 182.674, 344.168 182.236, 345.113 182.536 C 346.058 182.836, 347.121 182.613, 347.475 182.041 C 347.829 181.468, 349.779 181.061, 351.809 181.136 C 354.585 181.239, 354.880 181.388, 353 181.737 C 349.458 182.395, 347.344 186, 350.500 186 C 351.325 186, 352 185.550, 352 185 C 352 184.450, 353.012 184.015, 354.250 184.033 L 356.500 184.067 354.108 186.058 C 352.793 187.154, 352.030 188.363, 352.413 188.746 C 352.796 189.129, 353.422 188.960, 353.804 188.371 C 354.837 186.780, 358.640 184.973, 359.385 185.719 C 359.742 186.075, 358.608 186.966, 356.865 187.699 C 353.195 189.242, 353.328 190.049, 357.132 189.318 C 360.304 188.708, 362.879 184.174, 360.801 182.856 C 359.223 181.855, 361.034 181.692, 363.448 182.618 C 364.914 183.181, 364.907 183.347, 363.377 184.467 C 362.372 185.201, 362.008 186.203, 362.472 186.955 C 363.028 187.855, 363.447 187.896, 363.940 187.097 C 364.319 186.484, 367.014 185.142, 369.929 184.115 C 372.843 183.089, 375.620 181.630, 376.099 180.875 C 376.744 179.855, 376.973 180.076, 376.985 181.731 C 376.996 183.363, 376.262 184.117, 374.250 184.541 C 372.738 184.860, 370.719 185.544, 369.764 186.060 C 368.809 186.577, 367.346 187, 366.514 187 C 365.681 187, 365 187.498, 365 188.107 C 365 188.716, 364.338 188.960, 363.529 188.649 C 362.720 188.339, 361.478 188.665, 360.769 189.374 C 358.894 191.249, 354.245 192.234, 353.785 190.854 C 353.501 190.002, 352.527 189.997, 349.952 190.835 C 345.575 192.260, 341.197 192.545, 338 191.615 L 335.500 190.887 338.186 193.341 C 340.870 195.792, 340.899 197, 338.274 197 C 337.509 197, 337.141 196.581, 337.457 196.069 C 337.774 195.557, 337.575 194.856, 337.016 194.510 C 335.777 193.744, 335.702 195.981, 336.904 197.878 C 337.384 198.636, 338.238 198.971, 338.803 198.622 C 339.367 198.273, 340.005 198.515, 340.220 199.160 C 340.435 199.806, 342.049 200.333, 343.806 200.333 C 347.217 200.333, 347.498 200.664, 346.042 202.966 C 345.250 204.218, 344.514 204.095, 341.015 202.129 C 337.515 200.162, 336.666 200.020, 335.208 201.162 C 333.669 202.368, 333.636 202.327, 334.872 200.750 C 336.065 199.230, 336.019 199, 334.529 199 C 333.585 199, 332.571 199.925, 332.275 201.057 C 331.939 202.342, 331.193 202.904, 330.287 202.557 C 329.489 202.250, 328.172 202, 327.359 202 C 326.547 202, 326.173 201.528, 326.530 200.952 C 326.886 200.376, 328.150 200.038, 329.339 200.202 C 330.726 200.393, 331.500 199.963, 331.500 199 C 331.500 196.671, 322.840 196.904, 322.225 199.250 C 321.766 201.003, 320.321 201.347, 314.250 201.151 C 312.462 201.093, 311 201.471, 311 201.991 C 311 202.512, 311.788 202.660, 312.750 202.321 C 313.947 201.900, 314.184 202.035, 313.500 202.747 C 312.950 203.320, 311.150 203.992, 309.500 204.240 C 307.850 204.487, 307.068 204.501, 307.762 204.269 C 308.456 204.038, 308.763 203.425, 308.443 202.908 C 308.123 202.391, 307.385 202.262, 306.801 202.623 C 306.211 202.988, 305.931 202.707, 306.170 201.991 C 306.406 201.283, 308.377 200.547, 310.549 200.356 C 317.944 199.707, 320.806 198.948, 321.367 197.487 C 322.015 195.798, 317.395 195.687, 315.208 197.339 C 314.348 197.989, 313.528 197.928, 312.758 197.158 C 311.164 195.564, 310 195.708, 310 197.500 C 310 199.254, 310.103 199.235, 298.728 199.503 C 293.904 199.617, 289.666 200, 289.312 200.355 C 288.957 200.710, 287.981 201, 287.142 201 C 285.965 201, 286.060 200.665, 287.559 199.532 C 288.626 198.724, 291.413 198.049, 293.750 198.032 C 296.087 198.014, 298 197.550, 298 197 C 298 196.450, 296.575 196, 294.833 196 C 290.550 196, 291.532 195.399, 296.948 194.706 C 299.680 194.357, 300.849 194.476, 299.977 195.014 C 297.934 196.277, 299.341 197.210, 303.870 197.594 C 307.429 197.895, 312.530 195.255, 309.122 194.875 C 308.505 194.806, 307.550 194.637, 307 194.500 C 306.450 194.363, 305.663 194.176, 305.250 194.086 C 304.837 193.996, 306.041 193.253, 307.925 192.435 C 309.809 191.618, 311.609 191.299, 311.925 191.726 C 313.820 194.288, 321.437 195.712, 323.607 193.911 C 325.370 192.448, 331 190.995, 331 192.003 C 331 192.478, 329.797 193.010, 328.327 193.184 C 323.627 193.740, 324.646 195.595, 329.544 195.400 C 335.092 195.179, 335.777 194.634, 333.440 192.298 C 331.898 190.755, 331.861 190.458, 333.182 190.204 C 334.029 190.040, 335.217 188.819, 335.823 187.489 C 337.134 184.611, 336.287 183.839, 331.329 183.394 C 327.710 183.070, 326 182.340, 326 181.119 C 326 180.699, 328.250 180.535, 331 180.754 C 334.150 181.005, 336 180.754, 336 180.076 C 336 179.069, 331.364 178.397, 328 178.917 C 325.790 179.258, 323.958 179.197, 319.500 178.633 C 315.840 178.170, 315.665 178.249, 317.441 179.563 C 318.509 180.353, 320.421 181, 321.691 181 C 323.005 181, 323.892 181.539, 323.750 182.250 C 323.612 182.938, 324.063 183.388, 324.750 183.250 C 327.120 182.776, 325.992 183.998, 322.750 185.416 C 320.963 186.197, 320.225 186.874, 321.111 186.918 C 322.877 187.008, 322.612 191.504, 320.774 192.640 C 319.547 193.398, 312 190.989, 312 189.840 C 312 188.589, 306.227 188.824, 305.434 190.107 C 304.955 190.881, 304.504 190.815, 303.929 189.885 C 303.282 188.838, 302.967 188.921, 302.447 190.278 C 302.080 191.235, 300.736 192, 299.424 192 C 297.697 192, 297.223 191.582, 297.660 190.443 C 297.989 189.586, 298.875 189.122, 299.629 189.411 C 300.383 189.700, 301 189.539, 301 189.052 C 301 188.565, 300.437 187.979, 299.750 187.750 C 299.063 187.520, 302.431 187.370, 307.235 187.416 C 314.312 187.484, 315.925 187.778, 315.735 188.964 C 315.606 189.769, 316.287 190.589, 317.250 190.787 C 318.212 190.985, 319 190.664, 319 190.073 C 319 189.483, 318.550 189, 318 189 C 317.450 189, 317.007 188.213, 317.015 187.250 C 317.025 186.133, 317.296 185.913, 317.765 186.642 C 318.259 187.408, 319.090 186.997, 320.297 185.392 C 321.588 183.673, 321.726 183, 320.786 183 C 320.068 183, 318.359 181.968, 316.990 180.706 C 315.620 179.445, 313.600 178.385, 312.500 178.351 C 311.400 178.317, 309.713 177.951, 308.750 177.538 C 307.510 177.005, 307 177.241, 307 178.348 C 307 179.340, 308.273 180.148, 310.495 180.565 L 313.989 181.221 311.651 183.060 C 309.445 184.795, 308.328 185.050, 303.500 184.920 C 302.400 184.890, 299.813 184.886, 297.750 184.910 C 295.688 184.934, 294 184.514, 294 183.977 C 294 183.440, 294.900 183, 296 183 C 297.100 183, 298 182.550, 298 182 C 298 180.561, 300.739 180.766, 301.338 182.250 C 301.615 182.938, 301.878 182.536, 301.921 181.357 C 302.004 179.101, 299.483 177.409, 298.473 179.044 C 297.693 180.306, 293.287 180.274, 292.500 179 C 291.506 177.391, 287 177.801, 287 179.500 C 287 180.348, 286.105 181, 284.941 181 C 283.809 181, 283.131 180.597, 283.435 180.105 C 283.740 179.612, 283.212 178.912, 282.263 178.548 C 281.314 178.183, 280.380 178.361, 280.186 178.943 C 279.992 179.524, 279.435 180, 278.948 180 C 278.461 180, 278.310 179.213, 278.613 178.250 C 279.137 176.583, 279.095 176.583, 277.721 178.250 C 275.958 180.390, 271 180.618, 271 178.559 C 271 176.471, 273.075 175.508, 274.096 177.122 C 274.657 178.007, 274.975 178.079, 274.985 177.321 C 274.993 176.673, 274.293 175.436, 273.429 174.571 C 271.716 172.859, 270.934 172.581, 271.118 173.750 C 271.429 175.714, 270.875 176.351, 270.026 175.008 C 269.275 173.820, 268.830 173.770, 267.842 174.758 C 266.899 175.701, 266.889 176, 267.800 176 C 268.460 176, 269 176.363, 269 176.807 C 269 177.716, 264.894 177.559, 260.750 176.491 C 258.596 175.937, 258 176.132, 258 177.392 C 258 178.512, 257.090 179, 255 179 C 253.350 179, 252 178.550, 252 178 C 252 176.435, 247.193 176.828, 244.465 178.615 C 241.643 180.464, 241.216 179.524, 243.655 176.829 C 244.565 175.823, 244.813 175, 244.205 175 C 243.597 175, 242.679 175.751, 242.165 176.670 C 241.188 178.415, 229.624 179.438, 227.500 177.968 C 224.731 176.051, 221.343 176.119, 219.625 178.125 C 218.652 179.261, 217.552 179.886, 217.180 179.513 C 216.808 179.141, 217.370 178.203, 218.429 177.429 C 221.644 175.078, 219.346 174.623, 215.685 176.886 C 213.803 178.049, 211.080 179, 209.632 179 C 207.710 179, 207 179.514, 207 180.906 C 207 182.367, 207.505 182.681, 209.156 182.249 C 210.634 181.862, 211.088 182.049, 210.597 182.842 C 209.734 184.240, 211.396 184.320, 215.691 183.089 C 218.264 182.351, 218.766 182.446, 218.328 183.589 C 217.610 185.458, 219.425 185.397, 221 183.500 C 221.685 182.675, 223.090 182, 224.122 182 C 225.155 182, 226.029 181.438, 226.063 180.750 C 226.098 180.063, 226.534 180.513, 227.031 181.750 C 227.529 182.988, 228.513 184.052, 229.218 184.115 C 231.776 184.345, 234.527 183.783, 235.750 182.780 C 236.678 182.019, 237 182.290, 237 183.831 C 237 185.377, 236.044 186.171, 233.250 186.947 C 228.546 188.254, 227.065 188.260, 229 186.966 C 230.290 186.104, 230.220 185.795, 228.500 184.758 C 225.845 183.158, 224.975 183.140, 221.912 184.628 C 219.932 185.589, 217.672 185.639, 212.305 184.843 C 206.328 183.955, 204.809 184.048, 202.070 185.464 C 199.992 186.538, 197.815 186.899, 195.918 186.482 C 192.141 185.653, 193.138 183.878, 196.952 184.640 C 201.095 185.469, 206.620 182.195, 204.193 180.350 C 202.654 179.180, 202.704 179.061, 204.750 179.032 C 205.988 179.014, 207 178.498, 207 177.883 C 207 177.249, 207.888 176.999, 209.057 177.305 C 210.366 177.647, 210.972 177.417, 210.723 176.671 C 210.283 175.353, 201.194 174.876, 200.419 176.131 C 200.146 176.573, 198.590 176.668, 196.961 176.342 C 194.732 175.896, 194 176.121, 194 177.250 C 194 178.200, 193.044 178.750, 191.393 178.750 C 189.537 178.750, 189.177 178.498, 190.143 177.875 C 191.640 176.910, 189.754 175.046, 187.250 175.015 C 186.563 175.007, 186 174.498, 186 173.883 C 186 173.259, 185.118 172.997, 184 173.290 C 182.900 173.577, 182 173.384, 182 172.861 C 182 171.758, 174.778 172.865, 173.974 174.091 C 173.684 174.533, 172.799 174.494, 172.007 174.004 C 171.137 173.467, 170.084 173.515, 169.347 174.127 C 168.517 174.815, 167.430 174.765, 165.943 173.970 C 164.216 173.045, 163.921 173.064, 164.535 174.056 C 165.126 175.013, 164.500 175.156, 161.905 174.657 C 159.787 174.250, 159.021 174.338, 159.878 174.890 C 162.187 176.375, 160.188 177.877, 155.980 177.819 C 152.995 177.778, 151.996 177.356, 151.985 176.132 C 151.975 175.089, 151.704 174.903, 151.235 175.615 C 150.831 176.229, 149.379 177.081, 148.008 177.509 C 145.783 178.205, 145.661 178.114, 146.870 176.656 C 148.372 174.847, 146.176 173.155, 144.041 174.475 C 143.461 174.833, 142.716 174.423, 142.386 173.563 C 142.056 172.704, 141.104 172, 140.271 172 C 139.150 172, 139.033 172.335, 139.820 173.284 C 140.496 174.097, 140.546 175.104, 139.958 176.034 C 139.445 176.845, 139.024 176.990, 139.015 176.357 C 139.007 175.728, 138.302 174.946, 137.448 174.618 C 136.449 174.235, 136.146 174.427, 136.597 175.157 C 137.085 175.946, 136.513 176.095, 134.719 175.644 C 133.300 175.288, 131.009 175.426, 129.628 175.951 C 127.796 176.648, 126.275 176.485, 123.997 175.348 C 119.734 173.222, 121.066 172.372, 126.071 174.024 C 128.817 174.930, 130.373 175.033, 130.826 174.339 C 131.197 173.772, 132.738 173.005, 134.250 172.635 C 135.762 172.265, 137 171.490, 137 170.914 C 137 169.788, 133.311 170.598, 131.361 172.152 C 130.680 172.696, 128.603 172.696, 126.189 172.154 C 123.971 171.655, 121.003 171.468, 119.595 171.737 C 116.013 172.422, 113.010 171.244, 115.028 169.946 C 116.234 169.171, 116.094 168.889, 114.250 168.383 C 113.012 168.044, 112 167.369, 112 166.883 C 112 166.398, 111.127 166, 110.059 166 C 107.857 166, 106.486 164.436, 107.915 163.553 C 108.436 163.231, 109.144 163.425, 109.490 163.984 C 110.471 165.572, 112.004 165.175, 111.362 163.500 C 110.705 161.789, 111.804 161.581, 114 163 C 115 163.646, 115.083 163.974, 114.250 163.985 C 113.563 163.993, 113 164.590, 113 165.311 C 113 166.187, 114.437 166.628, 117.337 166.641 C 119.722 166.652, 122.422 166.948, 123.337 167.299 C 124.252 167.650, 125 167.501, 125 166.969 C 125 166.436, 124.571 166, 124.047 166 C 122.546 166, 119.712 159.208, 120.291 156.996 C 120.578 155.898, 120.378 155, 119.847 155 C 119.316 155, 119.196 154.492, 119.580 153.870 C 120.001 153.190, 119.737 152.921, 118.917 153.194 C 118.168 153.444, 117.250 154.740, 116.877 156.074 C 116.200 158.499, 116.199 158.499, 116.100 155.823 C 116.041 154.243, 114.975 152.339, 113.500 151.179 C 112.125 150.097, 111 148.695, 111 148.062 C 111 147.430, 110.438 147.003, 109.750 147.114 C 109.063 147.225, 107.693 146.964, 106.707 146.534 C 105.721 146.104, 104.609 146.058, 104.236 146.431 C 103.204 147.463, 106.258 149.084, 108.307 148.592 C 109.771 148.240, 109.890 148.428, 108.935 149.579 C 108.286 150.360, 107.923 151.034, 108.128 151.077 C 108.332 151.119, 109.346 151.312, 110.381 151.507 C 111.415 151.702, 112.765 152.401, 113.381 153.060 C 114.241 153.981, 113.821 154.097, 111.559 153.562 C 109.942 153.179, 107.917 152.078, 107.059 151.114 C 106.202 150.150, 104.713 149.069, 103.750 148.712 C 101.914 148.031, 101.272 144, 103 144 C 103.550 144, 104 143.564, 104 143.031 C 104 142.499, 103.325 142.322, 102.500 142.638 C 101.459 143.038, 101 142.569, 101 141.107 C 101 138.808, 102.530 138.247, 103.338 140.250 C 103.615 140.938, 103.878 140.023, 103.921 138.218 C 103.979 135.802, 104.574 134.723, 106.176 134.131 C 108.343 133.329, 108.342 133.323, 105.926 132.688 C 104.592 132.338, 103.352 132.484, 103.171 133.012 C 102.990 133.541, 101.989 134.992, 100.946 136.237 C 99.700 137.724, 99.984 136.710, 101.775 133.279 C 104.120 128.786, 104.321 127.770, 103.220 125.994 C 102.401 124.674, 102.262 123.355, 102.834 122.333 C 103.325 121.454, 103.380 119.107, 102.956 117.117 C 102.531 115.128, 102.323 111.250, 102.494 108.500 C 102.665 105.750, 102.300 102.013, 101.682 100.195 C 100.790 97.572, 100.837 96.719, 101.907 96.057 C 102.649 95.599, 102.966 94.754, 102.612 94.181 C 102.257 93.607, 102.425 92.856, 102.984 92.510 C 104.334 91.676, 104.292 88, 102.933 88 C 102.320 88, 102.136 87.147, 102.500 86 C 102.849 84.900, 102.707 84, 102.184 84 C 101.661 84, 100.916 85.013, 100.528 86.250 L 99.822 88.500 99.095 86 L 98.369 83.500 97.833 86.200 C 97.400 88.378, 97.702 88.972, 99.398 89.274 C 101.469 89.643, 101.470 89.661, 99.500 90.518 C 95.700 92.171, 94.874 93.630, 96.153 96.436 C 96.795 97.846, 97.849 99, 98.494 99 C 99.961 99, 100.084 105.248, 98.635 106.191 C 97.918 106.658, 98.123 108.036, 99.270 110.441 C 100.777 113.600, 100.793 114, 99.412 114 C 96.332 114, 91.709 122.171, 92.683 125.895 C 93.325 128.351, 93.422 128.378, 95.939 126.806 C 97.694 125.710, 97.716 125.513, 96.203 124.406 C 94.754 123.347, 94.723 122.887, 95.946 120.601 C 96.712 119.170, 97.712 118, 98.169 118 C 99.382 118, 99.185 120.415, 97.864 121.736 C 97.017 122.583, 97.144 123.286, 98.364 124.507 C 100.261 126.404, 100.493 128, 98.872 128 C 98.114 128, 97.950 129.392, 98.371 132.250 C 98.934 136.070, 98.853 136.313, 97.567 134.653 C 96.781 133.637, 96.380 132.174, 96.676 131.403 C 96.972 130.631, 96.742 130, 96.166 130 C 94.393 130, 93.762 132.009, 95.048 133.558 C 95.849 134.523, 96.050 136.620, 95.633 139.660 C 95.210 142.745, 95.416 144.799, 96.249 145.809 C 97.277 147.055, 97.233 147.233, 96 146.809 C 95.014 146.469, 94.536 145.073, 94.606 142.733 C 94.683 140.158, 94.346 139.314, 93.386 139.682 C 92.451 140.041, 92.181 141.637, 92.472 145.096 C 92.699 147.793, 92.465 150, 91.953 150 C 91.441 150, 91.042 148.988, 91.067 147.750 C 91.091 146.512, 90.799 144.215, 90.418 142.644 C 90.027 141.028, 90.162 139.508, 90.728 139.144 C 92.341 138.108, 93.192 134.237, 91.973 133.484 C 91.336 133.089, 90.632 133.690, 90.316 134.899 C 89.131 139.429, 86.687 137.298, 87.368 132.329 C 88.217 126.134, 89.878 124.735, 90.266 129.887 C 90.467 132.543, 91.603 132.627, 92.280 130.036 C 92.598 128.823, 91.863 127.006, 90.359 125.286 C 88.974 123.700, 88.203 123.254, 88.569 124.250 C 88.938 125.251, 88.740 126, 88.107 126 C 86.727 126, 86.640 122.340, 88 121.500 C 88.550 121.160, 89 120.009, 89 118.941 C 89 117.873, 88.550 117, 88 117 C 87.450 117, 86.993 117.787, 86.985 118.750 C 86.972 120.247, 86.828 120.283, 85.991 119 C 85.271 117.897, 85.540 117.137, 87.006 116.128 C 88.103 115.373, 89 114.046, 89 113.178 C 89 111.951, 88.733 111.867, 87.800 112.800 C 85.857 114.743, 84.535 114.172, 86.345 112.171 C 88.318 109.991, 88.457 107.893, 86.750 106.053 C 85.730 104.953, 85.821 104.819, 87.250 105.321 C 88.633 105.808, 89 105.378, 89 103.273 C 89 101.747, 90.144 99.416, 91.677 97.815 C 94.401 94.972, 94.336 93.273, 91.543 94.345 C 90.694 94.671, 90 95.851, 90 96.969 C 90 98.086, 89.550 99, 89 99 C 88.450 99, 88 98.502, 88 97.893 C 88 97.284, 87.332 97.043, 86.515 97.356 C 84.868 97.988, 86.487 94.245, 88.500 92.765 C 89.068 92.348, 88.761 92.024, 87.790 92.015 C 86.653 92.005, 85.675 93.354, 84.869 96.041 C 84.091 98.641, 83.196 99.905, 82.361 99.585 C 80.256 98.777, 79.760 100.812, 81.305 103.910 C 82.097 105.497, 82.421 107.319, 82.025 107.959 C 81.629 108.600, 81.764 111.127, 82.325 113.576 C 83.177 117.300, 83.080 118.230, 81.734 119.264 C 80.849 119.944, 79.984 121.850, 79.812 123.500 C 79.591 125.623, 79.022 126.422, 77.866 126.233 C 76.341 125.983, 74.847 129.937, 75.025 133.750 C 75.107 135.509, 75.107 139.812, 75.026 144.500 C 74.987 146.700, 75.157 149.400, 75.402 150.500 C 75.647 151.600, 75.881 152.838, 75.923 153.250 C 75.966 153.662, 76.358 154, 76.796 154 C 77.798 154, 77.760 149.426, 76.750 148.416 C 75.648 147.315, 75.836 144, 77 144 C 77.550 144, 78 144.873, 78 145.941 C 78 147.009, 78.450 148.160, 79 148.500 C 80.255 149.276, 80.286 146, 79.042 144.034 C 78.532 143.227, 78.488 142.102, 78.945 141.534 C 80.335 139.805, 81.404 129.633, 80.111 130.431 C 79.500 130.809, 79 131.991, 79 133.059 C 79 134.127, 78.550 135, 78 135 C 76.465 135, 76.813 131.286, 78.406 130.675 C 79.179 130.378, 80.113 128.760, 80.483 127.079 C 81.417 122.823, 82.866 122.302, 82.831 126.234 C 82.815 128.030, 82.872 131.877, 82.958 134.783 C 83.044 137.688, 82.834 141.063, 82.492 142.283 C 81.981 144.099, 82.076 144.229, 83.017 143 C 83.918 141.824, 84.042 142.363, 83.594 145.500 C 83.279 147.700, 83.010 150.625, 82.996 152 C 82.977 153.791, 82.725 154.114, 82.107 153.139 C 81.633 152.391, 81.493 150.816, 81.796 149.639 C 82.285 147.741, 82.158 147.655, 80.673 148.872 C 78.484 150.668, 78.562 152.173, 81.005 155.279 C 82.933 157.730, 83.177 163.286, 81.478 166.036 C 81.144 166.576, 81.120 167.801, 81.423 168.759 C 82.013 170.617, 92.195 171.157, 95.130 169.486 C 96.209 168.872, 96.246 168.981, 95.303 170.001 C 93.685 171.748, 97.765 175, 101.574 175 C 105.859 175, 103.607 176.215, 98.716 176.542 C 96.314 176.703, 93.708 176.428, 92.925 175.932 C 91.890 175.277, 92.321 175.018, 94.500 174.985 C 97.102 174.945, 97.258 174.798, 95.676 173.879 C 92.257 171.890, 88.280 171.217, 84.273 171.950 C 80.436 172.652, 80.211 172.545, 78.758 169.341 C 77.324 166.177, 77.347 166, 79.195 166 C 80.431 166, 81.028 165.431, 80.823 164.447 C 80.645 163.593, 80.050 163.031, 79.500 163.197 C 78.950 163.364, 78.631 163.893, 78.791 164.373 C 78.951 164.853, 78.443 165, 77.663 164.701 C 76.882 164.401, 75.648 164.684, 74.920 165.328 C 73.823 166.299, 73.823 166.200, 74.921 164.750 C 75.832 163.545, 75.889 163, 75.103 163 C 74.403 163, 74.191 162.087, 74.555 160.636 C 74.964 159.008, 74.658 158.083, 73.574 157.667 C 72.612 157.298, 72 155.862, 72 153.972 C 72 152.253, 72.426 151.145, 72.960 151.475 C 73.509 151.814, 73.445 150.706, 72.811 148.888 C 71.993 146.542, 72 145.230, 72.835 143.893 C 73.458 142.895, 73.702 141.386, 73.377 140.540 C 72.840 139.140, 72.214 138.838, 70.362 139.085 C 69.449 139.208, 68.033 136.760, 68.015 135.027 C 68.005 134.060, 68.534 134.318, 69.557 135.777 C 70.413 137, 71.763 138, 72.557 138 C 74.569 138, 74.356 136.749, 72 134.732 C 70.900 133.790, 70.007 132.453, 70.015 131.760 C 70.027 130.820, 70.249 130.844, 70.890 131.857 C 71.915 133.474, 72.525 132.617, 73.462 128.250 C 73.846 126.461, 74.789 125, 75.560 125 C 77.444 125, 78.253 121.302, 78.257 112.677 C 78.263 100.520, 78.199 100.153, 76.468 102.441 C 75.661 103.509, 75 103.901, 75 103.314 C 75 102.726, 75.713 101.653, 76.585 100.929 C 77.702 100.002, 78.069 98.341, 77.828 95.309 C 77.640 92.942, 77.939 90.844, 78.493 90.647 C 79.047 90.450, 78.268 90.281, 76.762 90.270 C 74.312 90.252, 74.090 90.526, 74.650 92.875 C 74.994 94.319, 75.662 95.994, 76.134 96.598 C 76.661 97.272, 76.217 98.399, 74.985 99.514 C 73.790 100.595, 73.082 102.336, 73.238 103.811 C 73.382 105.174, 72.936 106.488, 72.247 106.729 C 71.508 106.988, 71.060 106.415, 71.155 105.334 C 71.682 99.352, 69.406 96.994, 66.200 100.200 C 65.267 101.133, 65 101.022, 65 99.700 C 65 98.508, 65.830 98, 67.778 98 C 71.494 98, 74.637 94.473, 72.845 92.313 C 71.491 90.681, 73.864 88, 76.663 88 C 78.360 88, 80.042 81.746, 78.600 80.796 C 78.012 80.409, 77.579 78.264, 77.638 76.030 C 77.725 72.703, 77.497 72.172, 76.379 73.101 C 75.550 73.788, 75.209 75.348, 75.511 77.065 C 75.848 78.977, 75.508 80.176, 74.464 80.760 C 73.528 81.284, 73.173 82.288, 73.564 83.307 C 73.919 84.232, 74.612 84.740, 75.105 84.435 C 75.597 84.131, 76 84.557, 76 85.382 C 76 86.207, 75.550 87.160, 75 87.500 C 74.450 87.840, 74 87.581, 74 86.924 C 74 86.268, 73.067 86.916, 71.927 88.365 C 70.788 89.814, 69.213 91, 68.427 91 C 67.581 91, 67 91.993, 67 93.441 C 67 94.784, 66.550 96.160, 66 96.500 C 63.423 98.093, 65.236 91.960, 67.976 89.816 C 70.888 87.537, 73.816 79.760, 71.140 81.414 C 70.495 81.812, 70.226 82.557, 70.543 83.069 C 70.859 83.581, 70.641 84, 70.059 84 C 68.516 84, 68.763 81.441, 70.441 80.049 C 72.277 78.525, 71.349 76, 68.952 76 C 67.943 76, 66.840 75.550, 66.500 75 C 66.160 74.450, 66.359 74, 66.941 74 C 67.523 74, 68 73.325, 68 72.500 C 68 70.361, 66.850 70.665, 64.144 73.519 C 62.848 74.885, 62.040 76.663, 62.350 77.469 C 62.659 78.276, 62.482 79.202, 61.956 79.527 C 61.430 79.852, 61 79.191, 61 78.059 C 61 76.927, 60.518 76, 59.929 76 C 58.449 76, 60.790 73.805, 64.750 71.478 C 68.964 69.002, 68.847 68.305, 64 67 C 60.438 66.041, 58.397 64, 61 64 C 61.550 64, 62 64.480, 62 65.066 C 62 65.653, 63.237 65.990, 64.750 65.816 C 67.041 65.553, 67.552 64.958, 67.813 62.250 C 68.170 58.555, 67.535 58.261, 64.579 60.750 C 62.518 62.484, 62.516 62.481, 64.315 60.350 C 66.042 58.303, 70.572 56.266, 69.485 58.024 C 69.200 58.485, 69.378 59.115, 69.879 59.425 C 71.088 60.173, 71.623 58.279, 71.411 54 C 71.315 52.075, 71.184 48.962, 71.118 47.083 C 70.978 43.034, 69.900 43.743, 68.470 48.824 C 67.792 51.235, 66.768 52.590, 65.470 52.796 C 63.948 53.037, 63.818 52.891, 64.898 52.153 C 65.667 51.628, 66.391 49.639, 66.506 47.733 C 66.767 43.441, 67.777 41.701, 69.601 42.400 C 70.486 42.740, 71.055 42.213, 71.150 40.969 C 71.233 39.886, 71.345 38.438, 71.400 37.750 C 71.507 36.418, 70.699 36.391, 67.500 37.620 C 65.713 38.306, 65.661 38.226, 67.010 36.863 C 69.323 34.525, 74 33.601, 74 35.481 C 74 36.316, 74.450 37, 75 37 C 75.550 37, 76 36.550, 76 36 C 76 35.450, 76.436 35, 76.969 35 C 77.501 35, 77.684 35.788, 77.374 36.750 C 76.904 38.213, 76.984 38.255, 77.864 37.008 C 78.498 36.110, 78.554 35.154, 78.005 34.605 C 77.456 34.056, 77.503 32.928, 78.122 31.771 C 79.047 30.044, 78.940 29.962, 77.076 30.959 C 75.934 31.570, 75 31.774, 75 31.413 C 75 31.051, 74.325 31.315, 73.500 32 C 72.675 32.685, 72 32.949, 72 32.587 C 72 32.226, 71.100 32.411, 70 33 C 68.574 33.763, 68 33.760, 68 32.991 C 68 32.398, 67.437 32.026, 66.750 32.166 C 66.063 32.305, 64.463 31.846, 63.195 31.145 C 61.927 30.444, 60.352 30.089, 59.695 30.356 C 59.038 30.623, 59.288 30.878, 60.250 30.921 C 62.378 31.017, 62.616 33, 60.500 33 C 59.675 33, 59 33.885, 59 34.969 C 59 36.354, 58.531 36.757, 57.416 36.329 C 56.275 35.892, 56.165 35.516, 57.023 34.986 C 58.514 34.064, 57.443 30.384, 55.462 29.624 C 53.693 28.945, 53.549 30.149, 55.200 31.800 C 56.064 32.664, 56.081 33, 55.259 33 C 54.631 33, 53.840 32.550, 53.500 32 C 52.510 30.398, 51.186 30.840, 50.500 33 C 50.110 34.228, 49.023 34.976, 47.683 34.937 C 45.587 34.876, 45.596 34.835, 47.920 33.906 C 49.629 33.223, 50.027 32.627, 49.276 31.876 C 47.814 30.414, 44.500 31.197, 44.500 33.004 C 44.500 37.376, 33.393 38.872, 29.774 34.988 C 27.972 33.053, 26 32.349, 26 33.640 C 26 33.992, 26.738 34.819, 27.641 35.479 C 29.008 36.479, 28.527 36.690, 24.747 36.748 C 22.253 36.785, 19.226 37.344, 18.020 37.989 C 14.958 39.628, 14.622 38.782, 17.226 35.987 C 18.814 34.284, 18.971 33.797, 17.789 34.251 C 16.879 34.600, 15.613 34.238, 14.951 33.441 C 13.485 31.674, 11.593 31.519, 12.633 33.250 C 13.143 34.099, 12.842 34.060, 11.692 33.128 C 10.686 32.312, 10 32.187, 10 32.821 C 10 33.407, 10.817 34.475, 11.816 35.193 C 12.815 35.912, 13.885 37.183, 14.195 38.017 C 14.525 38.905, 17.296 40.097, 20.879 40.892 C 26.981 42.245, 29.474 44.256, 24.250 43.610 C 22.737 43.423, 22.288 43.465, 23.250 43.704 C 24.212 43.944, 25 44.564, 25 45.083 C 25 46.103, 18.906 43.817, 15.250 41.426 C 14.009 40.614, 13 40.412, 13 40.977 C 13 41.540, 13.525 42, 14.167 42 C 14.808 42, 15.062 42.271, 14.730 42.603 C 14.399 42.934, 15.336 44.312, 16.814 45.663 C 18.718 47.406, 18.918 47.841, 17.500 47.158 C 16.400 46.629, 14.195 44.985, 12.600 43.506 C 10.480 41.541, 8.933 40.930, 6.850 41.235 C 3.712 41.696, 3.076 40.616, 5.640 39.181 C 7.605 38.082, 6.568 35.845, 4.468 36.651 C 2.117 37.553, 2.470 44.372, 4.835 43.753 C 6.316 43.366, 6.582 43.734, 6.214 45.659 C 5.852 47.556, 5.476 47.810, 4.379 46.900 C 3.621 46.270, 2.966 45.923, 2.923 46.128 C 2.272 49.299, 2.412 50.131, 3.717 50.861 C 4.782 51.457, 4.909 51.939, 4.128 52.421 C 3.508 52.804, 3 53.568, 3 54.118 C 3 54.668, 3.470 54.828, 4.044 54.473 C 4.618 54.118, 5.743 54.372, 6.544 55.036 C 7.482 55.815, 8 55.866, 8 55.181 C 8 54.597, 7.550 53.840, 7 53.500 C 5.270 52.431, 5.795 48.984, 7.584 49.671 C 8.833 50.150, 8.892 50.449, 7.862 51.085 C 6.849 51.711, 6.942 52.041, 8.278 52.553 C 9.225 52.917, 10 54.028, 10 55.024 C 10 56.019, 10.563 57.101, 11.250 57.428 C 11.938 57.755, 11.488 57.834, 10.250 57.605 C 8.785 57.333, 8 57.678, 8 58.594 C 8 59.367, 8.338 60.001, 8.750 60.002 C 10.072 60.006, 10.028 66.732, 8.699 67.835 C 7.363 68.943, 7.403 69.129, 6.972 59.750 C 6.825 56.550, 6.461 56, 4.494 56 C 2.680 56, 2.299 56.427, 2.710 58 C 2.998 59.100, 3.641 60, 4.140 60 C 4.638 60, 4.270 61.184, 3.322 62.631 C 1.607 65.249, 1.610 65.259, 4.049 64.583 C 6.099 64.016, 6.214 64.084, 4.750 65.002 C 2.520 66.400, 2.520 68.794, 4.750 71.341 C 6.417 73.244, 6.417 73.309, 4.750 72.701 C 3.473 72.235, 3 72.577, 3 73.965 C 3 75.297, 3.825 75.962, 5.750 76.184 C 7.351 76.368, 8.390 77.039, 8.236 77.791 C 8.092 78.500, 8.445 79.963, 9.022 81.041 C 10.257 83.349, 9.272 83.520, 6.559 81.468 C 5.491 80.661, 5.154 80, 5.809 80 C 6.464 80, 7 79.269, 7 78.375 C 7 77.100, 6.349 76.880, 3.978 77.354 L 0.957 77.959 1.025 42.479 C 1.067 20.707, 1.462 7, 2.047 7 C 2.571 7, 3 7.450, 3 8 C 3 8.550, 3.450 9, 4 9 C 4.550 9, 5 8.150, 5 7.111 C 5 5.953, 4.349 5.276, 3.319 5.361 C 2.318 5.444, 1.347 4.489, 0.919 3 C 0.523 1.625, 0.155 61.437, 0.100 135.917 M 480 44.879 C 480 47.225, 485.038 49.458, 488.419 48.610 C 490.421 48.107, 490.849 48.352, 490.730 49.930 C 490.611 51.516, 490.033 51.773, 487.542 51.349 C 485.201 50.951, 484.846 51.078, 486 51.900 C 486.925 52.560, 487.043 52.975, 486.309 52.985 C 485.654 52.993, 484.852 52.570, 484.527 52.044 C 484.202 51.518, 483.163 51.377, 482.218 51.731 C 480.768 52.274, 480.697 52.132, 481.766 50.815 C 482.853 49.477, 482.578 49.166, 479.832 48.616 C 476.475 47.945, 474.223 49.623, 476.042 51.442 C 476.569 51.969, 477 53.435, 477 54.700 C 477 56.384, 477.602 57.031, 479.250 57.116 C 481.024 57.207, 481.119 57.331, 479.697 57.700 C 478.251 58.075, 478.130 58.452, 479.089 59.608 C 479.747 60.400, 480.032 61.301, 479.724 61.610 C 479.415 61.919, 478.669 61.250, 478.066 60.123 C 477.397 58.873, 476.375 58.303, 475.444 58.660 C 474.479 59.030, 474.025 58.741, 474.209 57.873 C 474.385 57.045, 473.805 56.617, 472.750 56.794 C 471.704 56.969, 471 56.459, 471 55.525 C 471 54.320, 471.631 54.119, 473.750 54.647 C 476.229 55.264, 476.365 55.168, 475.128 53.666 C 473.614 51.829, 465 51.262, 465 53 C 465 53.550, 466.018 54, 467.263 54 C 468.650 54, 469.908 54.870, 470.513 56.250 C 471.056 57.487, 472.512 58.944, 473.750 59.487 C 476.564 60.722, 476.607 61.608, 473.889 62.319 C 472.365 62.717, 471.638 62.333, 471.273 60.935 C 470.994 59.871, 470.144 59, 469.383 59 C 468.623 59, 468.113 58.448, 468.250 57.774 C 468.387 57.099, 467.488 56.393, 466.250 56.204 C 464.541 55.944, 464 56.351, 464 57.895 C 464 60.083, 467.396 62.491, 469.045 61.472 C 469.598 61.131, 469.926 61.421, 469.775 62.116 C 469.624 62.812, 470.400 63.564, 471.500 63.788 C 474.790 64.456, 475.941 66.329, 472.710 65.756 C 470.919 65.439, 470.052 65.662, 470.287 66.381 C 470.489 66.996, 471.857 67.642, 473.328 67.816 C 476.594 68.203, 477.579 69.946, 478.391 76.778 C 479.100 82.740, 480.566 85.653, 483.205 86.343 C 484.386 86.652, 484.794 87.374, 484.386 88.437 C 483.824 89.900, 483.637 89.885, 482.463 88.281 C 481.749 87.303, 480.819 86.847, 480.398 87.268 C 479.978 87.689, 480.166 88.566, 480.817 89.217 C 482.259 90.659, 482.373 93, 481 93 C 480.450 93, 480 92.352, 480 91.559 C 480 90.766, 479.497 89.807, 478.882 89.427 C 478.106 88.948, 477.885 89.999, 478.159 92.868 C 478.593 97.425, 478.476 97.619, 476.493 95.636 C 475.475 94.618, 475.417 93.983, 476.264 93.136 C 477.112 92.288, 477.065 92, 476.078 92 C 475.020 92, 475.003 91.702, 475.989 90.513 C 477.565 88.614, 476.478 85.603, 474.492 86.365 C 473.612 86.702, 473 86.369, 473 85.552 C 473 84.790, 472.505 84.002, 471.900 83.800 C 471.295 83.598, 470.800 81.761, 470.800 79.717 C 470.800 76.571, 470.470 76.005, 468.650 76.030 C 466.620 76.059, 466.604 76.122, 468.370 77.147 C 469.766 77.958, 469.922 78.430, 468.985 79.009 C 468.069 79.575, 467.990 80.559, 468.692 82.643 C 469.221 84.214, 469.327 86.625, 468.927 88 C 468.243 90.349, 468.193 90.307, 468.100 87.309 C 468.045 85.554, 467.610 83.877, 467.134 83.583 C 466.658 83.289, 466.485 81.912, 466.751 80.524 C 467.042 78.998, 466.774 78, 466.073 78 C 465.435 78, 465.045 77.213, 465.206 76.250 C 465.406 75.058, 464.942 74.594, 463.750 74.794 C 462.788 74.955, 462 74.618, 462 74.044 C 462 73.470, 462.927 73, 464.059 73 C 465.377 73, 465.890 72.550, 465.485 71.750 C 465.137 71.063, 465.560 71.374, 466.426 72.441 C 467.973 74.349, 468 74.345, 468 72.250 C 468 69.801, 466.282 68.421, 463.750 68.838 C 462.788 68.996, 462 68.647, 462 68.063 C 462 67.478, 461.532 67, 460.960 67 C 460.387 67, 458.523 65.988, 456.816 64.750 C 454.609 63.150, 453.586 62.861, 453.273 63.750 C 453.031 64.438, 451.698 65, 450.310 65 C 448.460 65, 447.942 65.407, 448.371 66.523 C 448.847 67.766, 448.591 67.851, 446.977 66.988 C 445.377 66.131, 445 66.246, 445 67.587 C 445 68.870, 444.693 68.990, 443.643 68.119 C 442.884 67.489, 440.956 67.259, 439.265 67.597 C 437.604 67.929, 435.255 67.672, 434.046 67.025 C 432.025 65.943, 431.935 66.010, 432.924 67.859 C 433.516 68.964, 433.971 70.686, 433.937 71.684 C 433.883 73.212, 433.736 73.159, 433.007 71.352 C 432.530 70.171, 431.546 68.821, 430.820 68.353 C 428.876 67.098, 421.885 67.168, 422.334 68.438 C 422.541 69.022, 423.900 69.370, 425.355 69.212 C 426.810 69.054, 428 69.418, 428 70.021 C 428 70.624, 428.520 70.797, 429.155 70.405 C 429.845 69.978, 430.039 70.129, 429.636 70.780 C 428.846 72.057, 421.830 71.195, 420.851 69.700 C 420.494 69.155, 419.424 69.007, 418.474 69.372 C 417.524 69.736, 416.094 69.493, 415.297 68.832 C 414.228 67.944, 413.664 67.926, 413.147 68.762 C 412.691 69.500, 411.934 69.570, 410.974 68.963 C 408.988 67.707, 405.725 67.746, 406.510 69.016 C 406.856 69.575, 407.557 69.774, 408.069 69.457 C 408.581 69.141, 409 69.393, 409 70.018 C 409 70.703, 407.633 71.035, 405.554 70.856 C 401.638 70.519, 399.841 71.644, 402.029 73.062 C 404.249 74.501, 397.382 73.471, 392.124 71.577 C 386.712 69.626, 386.782 69.624, 387.919 71.750 C 389.339 74.407, 390.212 77.227, 390.487 80.045 C 390.624 81.445, 391.068 83.639, 391.475 84.920 C 391.982 86.519, 391.867 87.036, 391.107 86.566 C 390.498 86.190, 389.986 85.121, 389.968 84.191 C 389.913 81.279, 387.530 78.873, 386.098 80.285 C 384.647 81.715, 382 78.841, 382 75.834 C 382 74.387, 381.436 74.163, 379.015 74.647 C 376.804 75.089, 375.870 74.824, 375.408 73.622 C 375.066 72.730, 373.934 72, 372.893 72 C 371.852 72, 371 71.325, 371 70.500 C 371 68.726, 370.518 68.653, 367.934 70.035 C 365.543 71.315, 365.245 69.522, 367.627 68.189 C 368.958 67.444, 369.036 66.934, 368.052 65.389 C 367.245 64.122, 367.010 64.028, 367.337 65.103 C 367.895 66.939, 364.999 69.833, 363.202 69.234 C 361.153 68.551, 361.875 72.863, 364 74 C 366.464 75.319, 366.639 74.202, 364.250 72.401 C 362.729 71.253, 363.021 71.144, 366.489 71.565 C 370.369 72.036, 373.995 74.338, 372.776 75.557 C 372.443 75.890, 371.194 75.639, 370 75 C 368.806 74.361, 367.530 74.161, 367.164 74.556 C 366.799 74.951, 367.049 75.470, 367.720 75.710 C 368.571 76.014, 368.354 76.778, 367.005 78.225 C 365.516 79.824, 364.755 80.042, 363.707 79.172 C 362.792 78.412, 361.317 78.335, 359.216 78.938 C 357.495 79.432, 355.167 79.595, 354.043 79.301 C 352.737 78.959, 352 79.250, 352 80.106 C 352 80.846, 351.304 80.452, 350.443 79.223 C 349.587 78, 348.237 77, 347.443 77 C 346.649 77, 346 76.309, 346 75.465 C 346 74.224, 345.605 74.141, 343.936 75.034 C 342.373 75.871, 341.484 75.819, 340.273 74.819 C 338.954 73.730, 338.598 73.729, 338.233 74.815 C 337.989 75.538, 336.600 76.621, 335.145 77.222 C 333.025 78.098, 332.848 78.397, 334.250 78.731 C 335.212 78.959, 336 79.844, 336 80.696 C 336 81.855, 335.672 81.973, 334.698 81.164 C 333.982 80.570, 332.407 80.342, 331.198 80.658 C 329.511 81.100, 329.004 80.799, 329.015 79.367 C 329.028 77.827, 329.193 77.757, 329.961 78.971 C 331.101 80.774, 332.267 79.859, 331.471 77.786 C 331.001 76.559, 325.043 74, 322.659 74 C 322.324 74, 322.491 75.237, 323.031 76.750 C 323.930 79.271, 323.891 79.344, 322.557 77.629 C 320.727 75.275, 316.416 76.115, 315.499 79.002 C 315.115 80.212, 314.004 80.987, 312.683 80.968 C 310.655 80.939, 310.624 80.842, 312.250 79.608 C 314.654 77.783, 314.469 77.344, 311 76.650 C 309.350 76.320, 308 75.416, 308 74.642 C 308 73.867, 306.988 72.908, 305.750 72.511 C 303.870 71.907, 303.784 71.712, 305.227 71.325 C 306.176 71.071, 308.480 72.027, 310.346 73.450 C 312.378 75.001, 314.392 75.787, 315.369 75.412 C 317.637 74.541, 317.426 72.730, 315.141 73.455 C 314.068 73.796, 312.748 73.402, 312.019 72.523 C 311.324 71.685, 310.162 71, 309.437 71 C 308.711 71, 307.833 70.539, 307.485 69.975 C 307.136 69.412, 307.391 69.074, 308.051 69.225 C 308.710 69.376, 309.456 68.938, 309.708 68.250 C 310.275 66.703, 307.800 66.600, 306.293 68.107 C 305.684 68.716, 303.763 69.506, 302.025 69.861 C 298.976 70.485, 298.929 70.571, 300.682 72.300 C 301.682 73.285, 303.391 74.704, 304.481 75.451 C 306.336 76.725, 306.287 76.777, 303.701 76.283 C 302.182 75.993, 300.469 74.875, 299.893 73.800 C 299.317 72.725, 298.229 72.082, 297.474 72.372 C 296.582 72.714, 296.297 72.391, 296.658 71.449 C 297.282 69.824, 295.461 69.445, 294.500 71 C 294.160 71.550, 292.982 72, 291.882 72 C 290.782 72, 290.161 72.452, 290.502 73.004 C 290.843 73.556, 292.194 73.738, 293.503 73.410 C 295.299 72.959, 296.601 73.545, 298.800 75.796 C 300.404 77.436, 303.130 79.089, 304.858 79.469 C 306.586 79.848, 308 80.573, 308 81.079 C 308 82.803, 304.697 82.006, 301.391 79.485 C 299.577 78.101, 297.734 77.058, 297.296 77.166 C 296.858 77.275, 294.779 76.859, 292.675 76.242 C 286.997 74.576, 285.297 75.639, 288.729 78.711 C 291.419 81.119, 291.427 81.155, 289 79.967 C 287.625 79.294, 285.678 78.025, 284.673 77.147 C 282.981 75.668, 282.708 75.733, 280.954 78.026 C 279.913 79.387, 279.303 81.287, 279.598 82.250 C 279.893 83.213, 279.707 84, 279.184 84 C 278.661 84, 277.986 84.945, 277.684 86.101 C 277.354 87.361, 276.674 87.917, 275.983 87.490 C 275.211 87.013, 274.942 87.556, 275.166 89.139 C 275.411 90.872, 276.032 91.408, 277.500 91.155 C 280.273 90.677, 280.693 90.050, 278.971 88.961 C 278.162 88.449, 277.725 87.989, 278 87.939 C 278.275 87.888, 279.199 87.709, 280.052 87.541 C 281.929 87.171, 281.932 93.648, 280.056 96.643 C 279.054 98.243, 278.945 98.050, 279.273 95.250 C 279.482 93.463, 279.282 92, 278.827 92 C 278.372 92, 278 92.450, 278 93 C 278 93.550, 277.325 94, 276.500 94 C 274.713 94, 274.489 95.663, 276.199 96.233 C 276.954 96.485, 276.774 96.873, 275.715 97.279 C 274.611 97.703, 273.669 97.249, 272.980 95.963 C 272.148 94.409, 272.249 94, 273.465 94 C 275.150 94, 275.578 92.366, 274.032 91.833 C 272.868 91.433, 272.559 86.357, 273.514 83.314 C 274.121 81.378, 273.845 81.138, 271.100 81.216 C 268.392 81.293, 266.382 83, 269 83 C 269.550 83, 270 83.450, 270 84 C 270 84.550, 269.100 85, 268 85 C 266.822 85, 266 84.333, 266 83.378 C 266 82.134, 265.687 82.015, 264.658 82.869 C 263.920 83.481, 263.020 83.687, 262.658 83.325 C 262.296 82.963, 262 83.417, 262 84.333 C 262 85.250, 262.788 86.036, 263.750 86.079 C 264.850 86.129, 265.023 86.349, 264.216 86.673 C 262.728 87.271, 260.345 85.514, 258.846 82.712 C 258.096 81.310, 258.111 80.951, 258.900 81.438 C 259.519 81.821, 260 81.441, 260 80.570 C 260 79.531, 259.179 79.090, 257.500 79.229 C 254.612 79.468, 254.281 80.754, 256.659 82.493 C 258.131 83.569, 258.018 83.763, 255.650 84.216 C 253.482 84.630, 253.194 84.471, 254.114 83.363 C 255.297 81.937, 254.757 81.636, 251.612 81.971 C 250.574 82.082, 249.449 81.753, 249.112 81.240 C 248.208 79.863, 243 78.774, 243 79.962 C 243 80.512, 244.125 81.244, 245.500 81.589 C 246.875 81.934, 248 82.645, 248 83.167 C 248 83.690, 247.550 83.840, 247 83.500 C 246.450 83.160, 246 83.359, 246 83.941 C 246 85.679, 243.271 85.140, 242.500 83.250 C 241.844 81.644, 241.718 81.664, 240.963 83.500 C 240.247 85.241, 240.131 85.136, 240.070 82.691 C 240.024 80.846, 240.388 80.122, 241.130 80.580 C 241.815 81.003, 242.080 80.731, 241.803 79.889 C 241.162 77.941, 236.156 77.559, 234.162 79.306 C 233.067 80.265, 231.818 80.485, 230.500 79.951 L 228.500 79.141 230.500 79.048 C 231.600 78.997, 233.592 78.116, 234.926 77.091 L 237.352 75.226 232.245 75.303 C 227.738 75.371, 227.335 75.543, 228.819 76.772 C 230.355 78.043, 230.327 78.101, 228.500 77.446 C 227.400 77.052, 225.375 76.761, 224 76.799 C 221.753 76.862, 221.703 76.785, 223.500 76.042 C 225.265 75.312, 225.305 75.135, 223.840 74.535 C 222.927 74.161, 220.777 74.581, 219.061 75.469 C 217.345 76.356, 215.468 76.789, 214.890 76.432 C 212.847 75.169, 202.955 73.264, 202.474 74.041 C 202.207 74.475, 202.553 75.043, 203.244 75.304 C 203.935 75.565, 203.027 75.760, 201.227 75.737 C 199.118 75.709, 197.058 76.536, 195.435 78.061 C 193.307 80.060, 192.613 80.239, 190.971 79.214 C 187.824 77.248, 185.477 77.783, 184.231 80.750 C 183.449 82.611, 183.247 82.773, 183.605 81.250 C 183.927 79.881, 183.669 79, 182.945 79 C 182.057 79, 182.076 78.614, 183.018 77.478 C 184.302 75.931, 191.325 75.666, 190.376 77.200 C 190.104 77.640, 190.712 78, 191.725 78 C 192.739 78, 194.337 76.699, 195.276 75.110 C 196.215 73.520, 197.550 72.241, 198.242 72.267 C 201.359 72.386, 203.271 71.938, 202.584 71.250 C 201.108 69.774, 196.488 70.384, 195.160 72.231 C 194.423 73.256, 193.073 73.973, 192.160 73.823 C 191.247 73.673, 189.938 73.903, 189.250 74.334 C 188.549 74.774, 188 74.662, 188 74.078 C 188 73.506, 189.238 72.765, 190.750 72.432 C 195.266 71.436, 195.607 71.167, 193.261 70.454 C 190.258 69.540, 191.463 67.827, 194.561 68.605 C 196.191 69.014, 197 68.794, 197 67.942 C 197 67.240, 196.704 66.963, 196.342 67.325 C 195.980 67.687, 195.027 67.437, 194.224 66.771 C 193.032 65.782, 192.335 66.096, 190.433 68.481 C 188.204 71.276, 188.020 71.328, 186.192 69.674 C 185.141 68.723, 182.530 67.762, 180.391 67.538 C 178.251 67.315, 177.063 67.365, 177.750 67.649 C 178.438 67.934, 179 68.489, 179 68.882 C 179 69.870, 171.990 72.323, 171.258 71.592 C 170.933 71.266, 171.369 71, 172.226 71 C 173.084 71, 174.045 70.325, 174.362 69.500 C 174.753 68.480, 174.308 68, 172.969 68 C 171.886 68, 171 68.431, 171 68.958 C 171 69.485, 169.425 69.792, 167.500 69.640 C 165.575 69.488, 164 69.680, 164 70.067 C 164 70.453, 161.863 70.737, 159.250 70.697 C 156.139 70.651, 153.481 71.293, 151.548 72.560 C 148.615 74.483, 148.601 74.482, 149.412 72.497 C 151.417 67.584, 151.335 66.995, 148.671 67.215 C 146.933 67.359, 145.925 68.162, 145.536 69.714 C 145.220 70.971, 144.472 72, 143.874 72 C 143.276 72, 143.059 71.325, 143.393 70.500 C 143.727 69.675, 144.247 68.393, 144.549 67.651 C 145.248 65.934, 137.549 66.052, 134.322 67.808 C 133.125 68.460, 131.325 68.698, 130.322 68.337 C 129.320 67.976, 128.838 68.054, 129.252 68.510 C 129.666 68.965, 129.259 70.162, 128.347 71.169 C 126.779 72.901, 126.838 73, 129.435 73 C 131.058 73, 132.946 72.081, 134.056 70.750 C 135.235 69.337, 135.946 69.009, 135.967 69.867 C 135.988 70.736, 136.728 71.043, 138 70.710 C 139.300 70.370, 140 70.680, 140 71.594 C 140 72.367, 139.325 73, 138.500 73 C 137.675 73, 136.986 73.563, 136.969 74.250 C 136.917 76.304, 132.168 79.188, 129.981 78.494 C 128.851 78.135, 128 78.324, 128 78.933 C 128 79.520, 127.309 80, 126.465 80 C 125.257 80, 125.150 79.588, 125.965 78.066 C 127.333 75.509, 127.272 75, 125.598 75 C 124.123 75, 121.663 80.646, 122.528 82.046 C 122.806 82.495, 122.553 83.158, 121.968 83.520 C 121.219 83.983, 121.228 84.570, 122 85.500 C 122.699 86.343, 122.742 87.041, 122.118 87.427 C 120.633 88.345, 119.861 86.400, 120.578 83.546 C 120.929 82.146, 120.831 81.001, 120.358 81.002 C 119.886 81.003, 119.402 82.402, 119.282 84.111 C 119.060 87.262, 117.477 90, 115.878 90 C 114.632 90, 114.785 87.238, 116.054 86.815 C 116.634 86.622, 117.559 84.458, 118.110 82.007 C 118.661 79.555, 119.649 77.166, 120.306 76.698 C 121.223 76.045, 121.209 75.730, 120.244 75.338 C 119.553 75.058, 119.272 74.370, 119.619 73.808 C 120.019 73.160, 120.598 73.283, 121.201 74.143 C 121.941 75.198, 122.265 75.222, 122.659 74.250 C 122.938 73.563, 123.774 73, 124.516 73 C 125.739 73, 127.327 70.024, 127.451 67.500 C 127.478 66.950, 128.850 66.334, 130.500 66.132 C 133.125 65.809, 133.250 65.662, 131.500 64.952 C 129.800 64.262, 129.763 64.130, 131.250 64.070 C 132.213 64.032, 133 63.550, 133 63 C 133 61.455, 131.762 61.858, 128.623 64.425 C 126.764 65.945, 126.025 67.232, 126.537 68.059 C 127.104 68.977, 126.846 69.155, 125.626 68.687 C 124.572 68.282, 123.708 68.598, 123.355 69.517 C 122.453 71.868, 121 71.241, 121 68.500 C 121 65.629, 119.569 65.288, 117.250 67.607 C 115.953 68.904, 115.833 69.923, 116.626 72.893 C 117.870 77.555, 116.676 82.328, 113.108 86.961 C 110.592 90.229, 110.454 90.873, 111.320 95.362 C 112.019 98.987, 111.943 100.417, 111.022 100.987 C 110.143 101.530, 110.106 101.947, 110.893 102.434 C 112.207 103.246, 112.346 109.906, 111.090 111.888 C 110.235 113.238, 109.461 108.772, 108.769 98.500 C 108.329 91.963, 106.483 93.344, 106.654 100.082 C 106.738 103.414, 107.076 106.409, 107.404 106.737 C 108.344 107.677, 108.099 112, 107.105 112 C 106.599 112, 106.553 113.518, 106.998 115.493 C 107.432 117.414, 107.414 118.756, 106.958 118.474 C 106.503 118.193, 106.303 119.844, 106.513 122.144 C 106.724 124.444, 106.501 127.064, 106.018 127.967 C 104.661 130.502, 106.375 132.374, 109.366 131.623 C 112.867 130.744, 111.972 132.927, 107.872 135.268 C 105.427 136.664, 104.902 137.505, 105.374 139.268 C 105.703 140.495, 105.979 142.314, 105.986 143.309 C 105.994 144.376, 106.455 144.837, 107.108 144.433 C 107.798 144.007, 107.987 142.194, 107.609 139.624 C 107.070 135.957, 107.157 135.700, 108.400 137.303 C 109.438 138.641, 109.920 138.770, 110.270 137.803 C 110.530 137.086, 110.509 138.703, 110.225 141.395 C 109.712 146.249, 109.729 146.285, 112.292 145.641 C 113.714 145.285, 115.153 145.439, 115.491 145.985 C 115.834 146.541, 115.466 146.732, 114.653 146.420 C 113.855 146.114, 112.936 146.295, 112.610 146.822 C 111.862 148.032, 116.834 151.459, 119.500 151.573 C 125.849 151.843, 127.062 152.091, 126.500 153 C 126.160 153.550, 124.934 154, 123.774 154 C 122.615 154, 121.938 154.271, 122.269 154.603 C 122.601 154.934, 122.482 156.233, 122.005 157.488 C 121.350 159.209, 121.621 160.290, 123.107 161.885 C 124.191 163.048, 124.723 164.007, 124.289 164.015 C 123.855 164.024, 124.110 164.417, 124.855 164.889 C 125.635 165.383, 127.685 165.296, 129.679 164.684 C 132.095 163.942, 133.352 163.937, 133.823 164.668 C 134.196 165.245, 135.286 165.596, 136.246 165.447 C 137.206 165.299, 138.245 165.588, 138.555 166.089 C 138.865 166.590, 138.079 167.052, 136.809 167.116 C 135.115 167.201, 134.966 167.354, 136.250 167.689 C 137.213 167.941, 138 168.522, 138 168.980 C 138 169.438, 138.927 169.570, 140.059 169.274 C 141.530 168.890, 142.264 169.292, 142.628 170.685 C 143.023 172.197, 143.794 172.537, 146.069 172.203 C 147.681 171.967, 149 172.165, 149 172.644 C 149 173.123, 151.024 173.353, 153.497 173.157 C 158.043 172.795, 158.476 171.860, 154.967 169.982 C 153.449 169.170, 153.160 169.252, 153.591 170.375 C 153.982 171.396, 153.412 171.755, 151.569 171.648 C 150.157 171.567, 149.001 171.192, 149.001 170.816 C 149 170.440, 147.797 169.990, 146.327 169.816 C 144.857 169.642, 143.459 168.907, 143.221 168.182 C 142.983 167.457, 143.398 166.943, 144.144 167.040 C 146.420 167.337, 150.014 165.831, 149.400 164.838 C 149.051 164.273, 148.362 164.263, 147.661 164.814 C 145.419 166.572, 141.140 167.069, 140.303 165.667 C 139.861 164.928, 138.600 163.814, 137.500 163.192 C 134.497 161.494, 140.087 161.625, 148.797 163.457 C 153.999 164.552, 156.666 164.655, 159.501 163.872 C 162.444 163.060, 163.458 163.123, 164.099 164.160 C 164.748 165.211, 165.212 165.093, 166.305 163.598 C 167.435 162.052, 168.547 161.802, 172.367 162.232 C 176.114 162.654, 176.832 162.503, 175.974 161.469 C 175.230 160.572, 175.223 159.980, 175.951 159.530 C 176.528 159.174, 177 159.407, 177 160.048 C 177 160.689, 177.675 160.955, 178.500 160.638 C 179.325 160.322, 180 160.386, 180.001 160.781 C 180.001 161.177, 182.251 161.533, 185.001 161.573 C 191.429 161.667, 191.461 160.389, 185.053 159.507 C 182.333 159.133, 179.114 157.966, 177.900 156.913 C 175.416 154.759, 174.398 154.547, 173.500 156 C 172.566 157.511, 171 157.198, 171 155.500 C 171 154.675, 170.564 154, 170.031 154 C 169.499 154, 169.322 154.675, 169.638 155.500 C 170.355 157.367, 168.971 157.430, 166.526 155.643 C 165.202 154.674, 163.642 154.524, 161.085 155.119 C 156.183 156.258, 154.050 156.255, 155.857 155.110 C 156.732 154.555, 156.845 154.022, 156.176 153.609 C 155.605 153.256, 154.842 153.447, 154.480 154.032 C 154.018 154.780, 153.425 154.768, 152.489 153.991 C 151.509 153.178, 150.629 153.215, 149.160 154.132 C 147.639 155.082, 146.609 155.108, 144.832 154.241 C 142.768 153.234, 142.730 153.115, 144.500 153.210 C 145.600 153.269, 147.235 153.246, 148.133 153.158 C 150.265 152.952, 151.209 148.294, 149.270 147.550 C 146.791 146.599, 146.043 146.942, 146.654 148.750 C 147.053 149.930, 146.699 149.767, 145.565 148.248 C 144.641 147.010, 144.174 145.528, 144.528 144.954 C 144.882 144.381, 144.641 143.272, 143.992 142.490 C 143.342 141.707, 143.043 140.490, 143.327 139.784 C 143.651 138.977, 143.871 139.150, 143.921 140.250 C 143.964 141.213, 144.481 142, 145.070 142 C 147.942 142, 145.375 137.488, 142.335 137.193 C 140.491 137.014, 138.901 136.180, 138.526 135.193 C 138.009 133.836, 138.131 133.748, 139.141 134.750 C 139.833 135.438, 141.479 136, 142.799 136 L 145.198 136 143.166 132.557 C 141.900 130.412, 141.624 129.302, 142.432 129.612 C 143.754 130.120, 146.482 134.917, 146.186 136.215 C 146.096 136.609, 146.457 138.071, 146.987 139.465 C 147.610 141.104, 147.606 142, 146.975 142 C 146.439 142, 146 142.623, 146 143.383 C 146 144.922, 150.327 146.452, 150.798 145.081 C 150.962 144.603, 151.969 144.441, 153.037 144.720 C 154.104 144.999, 154.743 145.607, 154.457 146.070 C 154.170 146.533, 153.163 146.641, 152.218 146.309 C 151.060 145.902, 150.826 146.037, 151.500 146.724 C 152.050 147.284, 153.703 148.025, 155.173 148.371 C 157.800 148.989, 157.823 148.952, 156.468 146.236 C 155.710 144.717, 154.152 142.467, 153.006 141.237 C 149.485 137.458, 152.256 138.760, 156.757 143 C 160.898 146.900, 163 147.939, 163 146.083 C 163 145.579, 162.438 144.966, 161.750 144.720 C 161.063 144.475, 160.800 143.950, 161.167 143.554 C 161.533 143.157, 162.754 143.754, 163.880 144.880 C 165.045 146.045, 165.505 147.188, 164.947 147.533 C 162.483 149.056, 165.770 150.105, 172.098 149.815 C 179.015 149.499, 180.737 148.686, 177 147.500 C 175.900 147.151, 175 145.996, 175 144.933 C 175 143.789, 174.286 142.968, 173.250 142.921 C 172.287 142.878, 172.015 142.631, 172.644 142.373 C 173.273 142.115, 173.675 141.138, 173.537 140.202 C 173.400 139.266, 173.488 139.101, 173.733 139.836 C 174.035 140.739, 175.042 140.961, 176.840 140.520 C 179.318 139.913, 179.370 139.965, 177.597 141.282 C 174.336 143.706, 176.617 145.118, 183.438 144.897 C 186.881 144.786, 190.215 145.015, 190.848 145.406 C 191.482 145.798, 192.521 145.796, 193.158 145.403 C 193.851 144.974, 192.548 143.970, 189.908 142.899 C 184.774 140.817, 181 140.507, 181 142.167 C 181 142.808, 180.739 143.072, 180.419 142.752 C 180.099 142.433, 180.355 141.206, 180.986 140.026 C 181.893 138.332, 181.857 137.919, 180.817 138.059 C 178.563 138.363, 177 138.032, 177.002 137.250 C 177.003 136.838, 178.402 136.402, 180.110 136.282 C 182.754 136.096, 183.140 136.357, 182.702 138.032 C 182.278 139.652, 182.695 140, 185.062 140 C 187.346 140, 187.823 139.640, 187.381 138.250 C 186.996 137.039, 187.557 137.289, 189.202 139.061 C 191.127 141.135, 192.108 141.481, 194.355 140.880 C 196.557 140.292, 196.909 140.404, 196.062 141.426 C 195.228 142.430, 195.654 142.690, 197.994 142.607 C 201.090 142.497, 201.946 141.548, 199.750 140.662 C 199.063 140.385, 199.498 140.122, 200.719 140.079 C 202.357 140.021, 202.777 140.419, 202.323 141.601 C 201.985 142.481, 202.337 143.600, 203.104 144.086 C 205.314 145.485, 206.364 145.144, 204.980 143.476 C 203.080 141.186, 204.438 140.658, 207.780 142.386 C 209.412 143.230, 211.028 143.638, 211.373 143.293 C 211.718 142.949, 212 143.218, 212 143.892 C 212 144.566, 212.419 144.859, 212.931 144.543 C 213.443 144.226, 214.074 144.312, 214.333 144.734 C 214.593 145.155, 217.550 145.347, 220.906 145.161 C 224.262 144.975, 226.784 144.459, 226.510 144.016 C 225.536 142.441, 228.823 142.173, 232.706 143.511 C 235.370 144.429, 237.840 144.600, 240.324 144.040 C 242.751 143.492, 244 143.567, 244 144.260 C 244 144.838, 244.977 144.453, 246.172 143.405 C 247.366 142.357, 248.074 141.968, 247.743 142.539 C 247.395 143.142, 249.001 144.010, 251.571 144.606 C 254.399 145.262, 256 145.282, 256 144.662 C 256 144.127, 256.788 144.400, 257.750 145.269 C 259.240 146.613, 259.774 146.646, 261.347 145.492 C 262.363 144.747, 263.829 144.381, 264.605 144.679 C 265.381 144.976, 267.192 144.449, 268.631 143.506 C 270.069 142.564, 270.939 142.289, 270.564 142.896 C 270.133 143.594, 270.845 144, 272.500 144 C 273.940 144, 274.865 144.410, 274.555 144.911 C 274.245 145.412, 275.762 144.967, 277.925 143.922 C 281.866 142.018, 283.511 139.495, 282.511 136.889 C 282.152 135.954, 283.173 135.122, 285.619 134.357 L 289.261 133.217 286.674 135.358 C 284.969 136.770, 283.987 138.693, 283.793 141 C 283.632 142.925, 282.975 144.500, 282.333 144.500 C 281.692 144.500, 280.921 144.745, 280.621 145.045 C 279.346 146.321, 290.955 145.750, 292.667 144.453 C 294.294 143.220, 294.312 143.060, 292.833 143.032 C 291.917 143.014, 290.990 143.530, 290.774 144.177 C 290.260 145.721, 288 144.301, 288 142.434 C 288 140.770, 298.354 140.845, 301.006 142.529 C 301.828 143.050, 304.686 143.334, 307.358 143.159 C 311.044 142.919, 312.029 143.143, 311.444 144.091 C 310.888 144.990, 311.185 145.143, 312.506 144.636 C 313.563 144.230, 314.649 144.432, 315.069 145.112 C 315.470 145.761, 316.538 146.008, 317.442 145.661 C 319.578 144.841, 317.845 141.248, 314.764 140.108 C 313.128 139.503, 312.962 139.142, 314.020 138.488 C 314.855 137.972, 315.534 138.102, 315.774 138.823 C 316.339 140.517, 319 140.276, 319 138.531 C 319 137.648, 319.588 137.288, 320.474 137.629 C 321.764 138.123, 321.757 138.385, 320.424 139.719 C 318.921 141.222, 318.792 144.527, 320.250 144.179 C 320.663 144.080, 321.900 144, 323 144 C 324.100 144, 325 143.550, 325 143 C 325 142.450, 324.025 142, 322.833 142 C 319.215 142, 321.496 140.915, 326.071 140.460 C 328.431 140.225, 330.668 139.538, 331.042 138.932 C 331.424 138.314, 333.755 137.957, 336.360 138.117 C 339.012 138.280, 341.512 137.888, 342.199 137.201 C 342.859 136.541, 344.158 136, 345.083 136 C 346.009 136, 347.101 134.988, 347.510 133.750 L 348.254 131.500 348.714 133.887 C 349.223 136.524, 347.686 137.961, 344.332 137.985 C 342.958 137.994, 341.400 139.234, 340.082 141.368 C 337.633 145.330, 337.469 146.418, 339.435 145.663 C 340.225 145.360, 341.012 145.506, 341.185 145.988 C 341.361 146.478, 343.042 146.498, 345 146.034 C 347.891 145.349, 348.057 145.187, 345.950 145.102 C 341.159 144.910, 339.601 139.957, 344.357 140.035 C 346.420 140.070, 346.410 140.121, 344.088 141.407 C 341.678 142.743, 341.678 142.744, 345.181 143.153 C 347.240 143.393, 349.180 143.033, 349.884 142.279 C 352.376 139.612, 354.068 143.084, 351.818 146.250 C 350.743 147.762, 350.164 149, 350.531 149 C 352.133 149, 358 145.679, 358 144.773 C 358 144.210, 359.422 143.989, 361.250 144.267 C 363.038 144.538, 365.288 144.349, 366.250 143.845 C 367.533 143.174, 368 143.317, 368 144.381 C 368 145.180, 367.438 146.060, 366.750 146.338 C 365.955 146.659, 366.092 146.871, 367.129 146.921 C 368.037 146.965, 369.305 145.678, 369.996 144.010 C 371.052 141.459, 371.620 141.113, 373.867 141.651 C 376.987 142.398, 377.897 143, 375.906 143 C 374.261 143, 369 147.608, 369 149.049 C 369 149.902, 372.650 148.389, 374 146.977 C 375.770 145.125, 380.240 143.030, 381.180 143.611 C 381.858 144.031, 380.984 144.939, 378.975 145.903 C 377.144 146.781, 375.428 148.167, 375.162 148.982 C 374.797 150.102, 375.102 150.041, 376.411 148.732 C 377.363 147.779, 378.786 147, 379.571 147 C 380.357 147, 381.890 146.110, 382.977 145.023 C 384.187 143.813, 385.609 143.297, 386.641 143.693 C 387.823 144.146, 388.099 143.969, 387.563 143.102 C 387.142 142.421, 386.145 142.114, 385.347 142.420 C 384.537 142.731, 384.166 142.541, 384.507 141.989 C 384.843 141.445, 385.766 141, 386.559 141 C 387.352 141, 388 140.517, 388 139.927 C 388 138.023, 384.587 139.444, 383.389 141.847 C 382.688 143.253, 381.962 143.748, 381.560 143.096 C 380.189 140.878, 383.029 138.131, 390 134.932 C 391.375 134.301, 393.288 133.379, 394.250 132.884 C 395.212 132.388, 396 132.354, 396 132.806 C 396 133.259, 394.516 134.337, 392.701 135.203 C 388.184 137.357, 387.612 143.496, 391.852 144.321 C 394.814 144.897, 402 142.994, 402 141.634 C 402 141.151, 402.675 141.315, 403.500 142 C 404.325 142.685, 405 143.823, 405 144.529 C 405 145.320, 405.767 145.612, 407 145.290 C 408.100 145.002, 409 144.144, 409 143.383 C 409 142.623, 409.707 142, 410.571 142 C 412 142, 412 142.143, 410.571 143.571 C 409.707 144.436, 409 145.561, 409 146.071 C 409 147.358, 410.735 147.237, 411.566 145.893 C 412.043 145.121, 412.515 145.197, 413.125 146.143 C 413.850 147.268, 414.166 147.244, 414.969 146 C 415.502 145.175, 416.964 144.500, 418.219 144.500 C 420.022 144.500, 420.561 143.871, 420.793 141.500 C 420.954 139.850, 421.361 137.825, 421.697 137 C 422.033 136.175, 422.267 134.600, 422.219 133.500 C 422.146 131.870, 422.224 131.824, 422.638 133.250 C 422.918 134.213, 423.875 135, 424.764 135 C 426.145 135, 426.113 135.197, 424.544 136.344 C 423.057 137.431, 422.806 138.586, 423.233 142.372 C 423.791 147.327, 421.553 150.533, 418.385 149.318 C 417.623 149.025, 417 149.236, 417 149.786 C 417 151.624, 420.255 152.063, 422.583 150.538 C 424.274 149.430, 424.965 147.902, 425.192 144.774 C 425.433 141.443, 425.935 140.436, 427.500 140.142 C 429.460 139.775, 429.462 139.809, 427.629 141.847 C 426.459 143.147, 426.013 144.593, 426.441 145.706 C 427.062 147.325, 427.287 147.271, 428.908 145.122 C 430.429 143.106, 430.784 142.996, 431.315 144.378 C 431.667 145.296, 433.061 146, 434.528 146 C 435.952 146, 436.857 146.423, 436.537 146.940 C 436.177 147.522, 434.856 147.497, 433.067 146.874 C 430.741 146.063, 429.772 146.215, 428.089 147.656 C 423.811 151.318, 426.230 154.047, 431.119 151.074 C 432.901 149.990, 434.728 149.332, 435.179 149.611 C 435.631 149.890, 436.563 149.754, 437.250 149.309 C 437.938 148.864, 439.812 148.500, 441.416 148.500 C 443.020 148.500, 444.520 147.938, 444.749 147.250 C 444.981 146.556, 444.352 145.993, 443.333 145.985 C 442.325 145.976, 440.825 145.525, 440 144.982 C 438.765 144.169, 438.854 144.022, 440.500 144.155 C 444.774 144.500, 445.875 143.953, 446.348 141.250 C 446.636 139.597, 446.759 140.121, 446.655 142.565 L 446.482 146.630 449.235 145.065 C 450.749 144.204, 451.990 142.938, 451.994 142.250 C 451.997 141.563, 452.436 141, 452.969 141 C 453.501 141, 453.678 141.675, 453.362 142.500 C 453.045 143.325, 453.228 144, 453.768 144 C 454.308 144, 455.020 142.650, 455.350 141 C 456.034 137.579, 459 136.814, 459 140.059 C 459 141.191, 458.557 141.844, 458.015 141.509 C 457.400 141.129, 457.271 142.104, 457.672 144.108 C 458.253 147.014, 458.114 147.263, 456.191 146.760 C 454.712 146.374, 453.898 146.747, 453.502 147.995 C 453.189 148.979, 452.082 150.007, 451.042 150.279 C 449.722 150.624, 449.311 150.354, 449.682 149.387 C 449.975 148.624, 450.616 148, 451.107 148 C 451.598 148, 452 147.550, 452 147 C 452 145.291, 449.822 145.899, 447.867 148.153 C 445.136 151.302, 445.533 152, 450.059 152 C 452.682 152, 453.885 152.378, 453.458 153.068 C 453.095 153.655, 451.381 154.021, 449.649 153.880 C 447.917 153.739, 445.449 154.195, 444.164 154.893 C 440.961 156.634, 440.388 155.648, 443.122 153.101 C 444.719 151.613, 444.949 151, 443.911 151 C 443.104 151, 441.590 151.998, 440.545 153.218 C 439.306 154.665, 438.504 155.011, 438.237 154.212 C 438.013 153.539, 437.437 153.230, 436.958 153.526 C 436.479 153.822, 436.306 154.635, 436.574 155.332 C 436.919 156.231, 435.888 156.585, 433.033 156.550 C 430.818 156.522, 429.005 156.147, 429.003 155.716 C 428.999 154.702, 419.112 155.953, 416.500 157.298 C 414.712 158.218, 414.646 158.151, 415.872 156.664 C 417.846 154.271, 415.783 154.605, 413.722 157.011 C 409.503 161.939, 414.572 164.033, 422.183 160.507 C 425.061 159.173, 427.592 158.259, 427.808 158.475 C 428.631 159.298, 426.803 161, 425.096 161 C 424.114 161, 422.465 161.934, 421.432 163.075 C 419.565 165.138, 419.572 165.146, 422.527 164.444 C 424.162 164.055, 426.429 162.897, 427.564 161.869 C 430.464 159.244, 431.344 159.545, 429.408 162.500 C 427.047 166.103, 430.746 166.027, 433.894 162.407 C 435.134 160.981, 436.422 160.089, 436.757 160.424 C 437.092 160.759, 436.834 161.566, 436.183 162.217 C 434.360 164.040, 434.759 164.750, 437.607 164.750 C 439.171 164.750, 439.729 164.451, 439.004 164.002 C 438.104 163.446, 438.074 162.731, 438.885 161.216 C 439.827 159.455, 440.312 159.335, 442.436 160.338 L 444.896 161.499 442.261 164.249 C 440.584 166, 438.582 167, 436.754 167 C 435.094 167, 434.143 167.422, 434.500 168 C 434.840 168.550, 434.416 169, 433.559 169 C 432.702 169, 432 169.450, 432 170 C 432 170.550, 432.423 171, 432.941 171 C 433.459 171, 434.160 170.550, 434.500 170 C 434.840 169.450, 436.147 169, 437.406 169 C 438.667 169, 441.310 167.430, 443.297 165.500 C 447.100 161.807, 449.179 160.794, 446.890 163.750 C 445.777 165.187, 445.932 165.161, 447.758 163.603 C 449.843 161.825, 449.873 161.625, 448.241 160.385 C 447.283 159.658, 446.950 159.064, 447.500 159.064 C 448.050 159.064, 449.324 159.688, 450.331 160.451 C 451.926 161.660, 452.409 161.591, 454.081 159.919 C 457.082 156.918, 458.416 157.670, 455.826 160.904 C 454.547 162.501, 452.650 163.739, 451.610 163.654 C 450.571 163.569, 449.521 164.063, 449.277 164.750 C 448.591 166.682, 451.895 166.228, 454.727 164 C 456.126 162.900, 457.997 162.036, 458.885 162.079 C 460.249 162.146, 460.267 162.249, 459 162.741 C 455.837 163.971, 453.922 168, 456.500 168 C 457.325 168, 458 167.550, 458 167 C 458 166.450, 458.900 165.100, 460 164 C 461.100 162.900, 462.061 160.762, 462.136 159.250 C 462.248 156.986, 462.348 156.887, 462.698 158.689 C 462.932 159.892, 463.883 161.078, 464.811 161.323 C 466.344 161.727, 466.338 161.779, 464.750 161.884 C 462.595 162.027, 462.547 162.690, 464.544 164.687 C 465.936 166.079, 466.281 166.056, 468.048 164.457 C 469.675 162.984, 470.440 162.879, 472.551 163.841 C 476.016 165.420, 478 165.296, 478 163.500 C 478 162.675, 478.567 162, 479.260 162 C 479.953 162, 481.753 160.857, 483.260 159.460 C 484.767 158.062, 486.037 157.050, 486.081 157.210 C 486.591 159.033, 486.387 163, 485.783 163 C 485.352 163, 484.986 162.213, 484.970 161.250 C 484.941 159.583, 484.891 159.583, 483.920 161.250 C 483.359 162.213, 482.296 163, 481.557 163 C 480.818 163, 479.955 163.675, 479.638 164.500 C 478.910 166.399, 479.478 166.388, 482.443 164.446 C 483.913 163.482, 485.048 163.269, 485.430 163.886 C 485.835 164.542, 487.057 164.528, 489.022 163.842 C 492.235 162.722, 492.466 162.285, 491.037 160.026 C 490.423 159.055, 490.513 158.294, 491.303 157.792 C 493.319 156.510, 493.670 156.886, 493.234 159.857 C 492.945 161.828, 493.309 162.905, 494.407 163.326 C 495.542 163.761, 496 163.353, 496 161.910 C 496 160.794, 495.550 160.160, 495 160.500 C 493.499 161.428, 493.797 160.060, 495.458 158.400 C 497.517 156.340, 496.313 153.766, 493.681 154.601 C 491.658 155.243, 491.647 155.188, 493.288 152.683 C 494.256 151.206, 494.574 149.855, 494.033 149.520 C 493.513 149.199, 493.285 148.388, 493.528 147.718 C 494.650 144.612, 495.548 128.410, 495.091 119.500 C 495.006 117.850, 495.225 110.168, 495.576 102.428 C 496.102 90.822, 495.959 88.102, 494.757 86.900 C 493.481 85.624, 493.489 85.267, 494.816 84.027 C 495.677 83.222, 495.891 82.464, 495.311 82.270 C 494.750 82.083, 494.493 80.872, 494.740 79.578 C 495.001 78.213, 494.161 75.383, 492.740 72.837 C 490.767 69.304, 490.486 67.966, 491.297 65.974 C 492.083 64.043, 492.393 63.866, 492.709 65.165 C 492.932 66.081, 493.763 67.079, 494.557 67.384 C 495.815 67.866, 495.815 67.493, 494.561 64.491 C 493.707 62.447, 493.503 60.807, 494.060 60.463 C 494.577 60.143, 494.993 59.346, 494.985 58.691 C 494.975 57.972, 494.579 58.095, 493.985 59 C 493.109 60.333, 492.893 60.333, 492.037 59 C 491.350 57.931, 491.501 57.350, 492.563 56.978 C 493.854 56.525, 493.865 56.197, 492.641 54.524 C 491.587 53.083, 491.491 52.016, 492.261 50.326 C 493.015 48.671, 492.951 47.646, 492.025 46.530 C 490.754 44.999, 488.473 44.336, 489.344 45.750 C 489.597 46.163, 488.505 46.594, 486.916 46.709 C 484.927 46.852, 483.699 46.307, 482.978 44.959 C 481.647 42.472, 480 42.428, 480 44.879 M 106.192 67.641 C 105.575 68.794, 105.344 70.010, 105.678 70.344 C 106.012 70.678, 105.732 71.618, 105.056 72.432 C 104.381 73.246, 104.130 74.402, 104.500 75 C 104.870 75.598, 104.641 76.728, 103.992 77.510 C 103.342 78.293, 103.043 79.510, 103.327 80.216 C 103.651 81.023, 103.871 80.850, 103.921 79.750 C 103.964 78.787, 104.723 78, 105.607 78 C 106.588 78, 107.001 77.444, 106.666 76.573 C 105.372 73.200, 110.110 67.710, 112.367 69.967 C 113.078 70.678, 112.869 71, 111.700 71 C 110.765 71, 110 71.450, 110 72 C 110 72.550, 110.613 73, 111.361 73 C 112.293 73, 112.564 73.832, 112.219 75.635 L 111.715 78.271 110.306 75.885 C 108.957 73.602, 108.922 73.660, 109.494 77.250 C 109.853 79.510, 109.688 81, 109.077 81 C 108.519 81, 108.322 80.325, 108.638 79.500 C 109.598 77, 107.038 77.823, 105.868 80.391 C 105.087 82.106, 105.084 83.307, 105.859 84.641 C 106.849 86.345, 106.942 86.298, 106.970 84.083 C 106.986 82.754, 107.313 81.980, 107.696 82.362 C 108.926 83.592, 108.925 86.425, 107.695 87.291 C 107.015 87.769, 107.576 87.825, 108.996 87.420 C 111.653 86.663, 113.916 84.310, 113.968 82.250 C 114.014 80.437, 112.323 80.716, 111.583 82.643 C 111.237 83.547, 110.699 84.032, 110.388 83.722 C 110.078 83.411, 110.848 81.772, 112.100 80.079 C 116.227 74.497, 114.615 63.242, 110.306 67.551 C 108.714 69.143, 108.573 69.134, 107.963 67.395 C 107.352 65.652, 107.249 65.666, 106.192 67.641 M 255.690 68.679 C 251.670 69.909, 251.077 70.388, 252.083 71.600 C 253.129 72.860, 253.527 72.833, 255.114 71.397 C 256.814 69.858, 257.201 69.866, 260.720 71.520 C 262.799 72.497, 264.781 73.727, 265.125 74.255 C 266.157 75.837, 269.978 74.107, 269.308 72.361 C 268.861 71.196, 269.298 70.906, 271.109 71.162 C 272.740 71.393, 273.407 72.057, 273.206 73.250 C 273.045 74.213, 273.382 75, 273.956 75 C 274.530 75, 275 75.675, 275 76.500 C 275 77.325, 275.413 78, 275.918 78 C 276.423 78, 277.548 78.273, 278.418 78.607 C 279.547 79.040, 280 78.620, 280 77.138 C 280 75.594, 279.552 75.220, 278.250 75.679 C 276.808 76.186, 276.724 76.054, 277.771 74.926 C 278.470 74.173, 280.006 73.545, 281.183 73.529 C 282.361 73.513, 283.506 72.960, 283.729 72.301 C 284.124 71.128, 282.655 71.367, 276.500 73.477 C 274.547 74.147, 274.545 74.127, 276.403 72.609 C 278.558 70.850, 278.046 70.525, 271.728 69.644 C 269.653 69.355, 268.185 69.491, 268.466 69.946 C 269.345 71.367, 265.652 71.731, 262.191 70.565 C 258.010 69.156, 259.016 67.994, 263.839 68.660 C 266.611 69.043, 267.136 68.906, 266 68.098 C 264.069 66.724, 261.637 66.861, 255.690 68.679 M 121.436 89.896 C 121.740 90.389, 121.320 92.076, 120.501 93.646 C 119.682 95.216, 118.974 97.400, 118.927 98.500 C 118.876 99.692, 118.629 99.966, 118.314 99.179 C 117.511 97.169, 115 102.651, 115 106.414 C 115 108.166, 114.565 110.035, 114.033 110.567 C 112.427 112.173, 113.952 116.285, 115.634 114.888 C 116.548 114.130, 116.697 113.340, 116.070 112.584 C 115.470 111.861, 115.465 110.887, 116.057 109.966 C 117.217 108.163, 118.939 110.219, 119.016 113.500 C 119.060 115.367, 119.151 115.384, 120.381 113.766 C 121.851 111.829, 123 112.418, 123 115.108 C 123 116.084, 123.385 117.120, 123.855 117.410 C 124.325 117.701, 124.663 116.641, 124.605 115.055 C 124.547 113.469, 124.067 112.245, 123.538 112.336 C 122.486 112.516, 121.966 107.108, 122.882 105.500 C 123.930 103.659, 124.028 96.135, 123.011 95.507 C 122.373 95.113, 122.562 93.813, 123.529 91.943 C 124.979 89.140, 124.952 89, 122.967 89 C 121.820 89, 121.131 89.403, 121.436 89.896 M 1.050 146.987 C 0.986 182.593, 1.300 202, 1.939 202 C 2.563 202, 2.934 192.198, 2.947 175.319 C 2.962 154.898, 3.264 148.450, 4.234 147.834 C 5.142 147.258, 4.988 147.026, 3.691 147.015 C 2.696 147.007, 2.136 146.589, 2.447 146.086 C 2.757 145.584, 3.043 135.360, 3.082 123.368 C 3.121 111.375, 3.390 101.177, 3.682 100.706 C 3.973 100.235, 5.258 100.834, 6.538 102.036 C 8.434 103.817, 8.693 104.678, 7.933 106.676 C 6.532 110.361, 6.882 110.866, 8.617 107.664 C 10.062 104.997, 10.233 104.937, 11.488 106.653 C 12.956 108.660, 12.493 110.423, 10.776 109.362 C 10.129 108.961, 9.979 109.156, 10.405 109.845 C 11.958 112.359, 14.610 110.863, 14.118 107.750 C 14.053 107.338, 14.477 107, 15.059 107 C 15.641 107, 15.810 106.502, 15.434 105.893 C 14.955 105.119, 14.504 105.185, 13.929 106.114 C 12.257 108.820, 11.795 105.951, 13.369 102.635 C 15.175 98.830, 15.531 96.661, 13.966 99 C 13.095 100.301, 12.769 100.247, 11.509 98.597 C 10.191 96.871, 9.995 96.849, 9.416 98.359 C 9.064 99.276, 9.332 100.695, 10.011 101.513 C 12.148 104.088, 9.250 103.238, 5.991 100.335 C 4.327 98.851, 3 96.660, 3 95.394 C 3 94.142, 2.583 92.861, 2.074 92.546 C 1.511 92.198, 1.110 113.533, 1.050 146.987 M 6.495 125.015 C 6.105 126.246, 6.634 128.290, 7.856 130.267 C 9.410 132.781, 9.618 133.931, 8.789 135.413 C 8.010 136.804, 8.055 137.858, 8.952 139.295 C 9.680 140.461, 9.804 141.520, 9.253 141.884 C 8.741 142.223, 8.379 145.537, 8.449 149.250 C 8.536 153.885, 8.201 156, 7.381 156 C 6.680 156, 6.403 156.825, 6.710 158 C 6.998 159.100, 7.553 160, 7.945 160 C 8.336 160, 8.611 161.912, 8.556 164.250 C 8.467 168.018, 10.346 174, 11.619 174 C 11.878 174, 11.795 172.425, 11.434 170.500 C 10.801 167.124, 11.536 166.178, 13.571 167.750 C 14.105 168.162, 13.720 167.732, 12.715 166.794 C 11.709 165.856, 10.798 163.925, 10.688 162.504 C 10.579 161.083, 9.846 159.523, 9.059 159.037 C 8.055 158.416, 7.928 157.758, 8.633 156.826 C 9.677 155.447, 10.323 151.303, 10.163 147 C 10.112 145.625, 10.596 143.458, 11.239 142.185 C 12.145 140.389, 12.129 139.698, 11.165 139.102 C 10.255 138.540, 10.190 137.629, 10.924 135.701 C 11.686 133.696, 11.576 132.719, 10.466 131.609 C 8.471 129.614, 6.767 125, 8.025 125 C 8.561 125, 9 124.550, 9 124 C 9 122.202, 7.150 122.951, 6.495 125.015 M 103 167.110 C 101.734 168.020, 101.773 168.101, 103.250 167.626 C 105.363 166.946, 105.621 168.824, 103.526 169.629 C 102.715 169.940, 101.333 169.476, 100.454 168.597 C 99.576 167.719, 98.378 167, 97.792 167 C 97.206 167, 97.859 168.132, 99.242 169.515 C 100.626 170.898, 102.375 171.803, 103.129 171.526 C 105.428 170.680, 107.861 172.763, 106 173.985 C 105.048 174.610, 104.945 174.975, 105.719 174.985 C 106.389 174.993, 106.692 175.639, 106.392 176.420 C 106.034 177.355, 106.644 177.954, 108.174 178.170 C 109.723 178.390, 110.500 179.168, 110.500 180.500 C 110.500 181.600, 111.737 183.717, 113.250 185.205 C 116.327 188.231, 116.407 188.199, 115.002 184.505 C 114.453 183.061, 113.609 182.124, 113.127 182.422 C 112.645 182.720, 112.250 181.855, 112.250 180.500 C 112.250 179.145, 112.553 178.224, 112.923 178.452 C 113.293 178.681, 114.234 178.473, 115.014 177.991 C 115.859 177.469, 116.927 177.524, 117.653 178.127 C 118.482 178.815, 119.560 178.771, 121.022 177.988 C 122.204 177.356, 123.020 176.747, 122.836 176.636 C 122.651 176.525, 121.702 175.823, 120.727 175.076 C 119.184 173.893, 119.036 173.930, 119.584 175.359 C 119.998 176.438, 119.692 177, 118.690 177 C 117.852 177, 116.940 176.438, 116.662 175.750 C 116.259 174.750, 116.142 174.750, 116.079 175.750 C 116.036 176.438, 115.523 177, 114.941 177 C 114.359 177, 114.160 176.550, 114.500 176 C 114.840 175.450, 114.737 175, 114.272 175 C 113.806 175, 113.353 174.033, 113.264 172.851 C 113.047 169.980, 111.806 168.884, 110.020 169.988 C 108.773 170.758, 108.811 170.990, 110.278 171.553 C 112.738 172.497, 112.489 174.941, 110 174.290 C 108.893 174, 108 172.926, 108 171.883 C 108 170.848, 107.550 170, 107 170 C 106.450 170, 106 169.498, 106 168.883 C 106 168.259, 106.882 167.997, 108 168.290 C 109.100 168.577, 110 168.457, 110 168.023 C 110 167.589, 108.987 166.962, 107.750 166.630 C 104.811 165.843, 104.753 165.848, 103 167.110 M 407.507 178.012 C 407.856 178.577, 406.729 179.304, 404.954 179.659 C 402.317 180.187, 402.063 180.456, 403.460 181.237 C 404.664 181.911, 405.695 181.681, 407.078 180.429 C 409.482 178.254, 410.572 179.111, 408.869 181.838 C 407.887 183.411, 406.933 183.737, 404.645 183.279 C 400.871 182.524, 401.848 184.494, 405.731 185.469 C 407.243 185.848, 408.744 186.586, 409.068 187.109 C 409.417 187.675, 410.807 187.463, 412.497 186.586 C 414.386 185.606, 415.910 185.416, 417.038 186.020 C 417.973 186.521, 418.909 186.784, 419.119 186.605 C 420.540 185.398, 425.087 185.058, 424.412 186.210 C 423.996 186.919, 424.556 186.713, 425.657 185.750 C 426.853 184.703, 429.278 184, 431.690 184 C 435.431 184, 435.689 183.823, 435.254 181.547 C 434.806 179.207, 434.676 179.166, 432.400 180.657 C 431.089 181.517, 429.392 181.981, 428.630 181.688 C 427.867 181.396, 426.831 181.569, 426.326 182.074 C 425.821 182.579, 424.079 183.163, 422.454 183.372 C 420.829 183.582, 419.050 183.880, 418.500 184.035 C 417.950 184.190, 416.667 183.956, 415.649 183.513 C 414.601 183.058, 413.517 183.129, 413.149 183.677 C 412.105 185.235, 409.119 186.002, 408.431 184.889 C 408.083 184.326, 408.739 183.620, 409.888 183.319 C 411.037 183.018, 411.731 182.374, 411.430 181.886 C 410.693 180.695, 413.253 180.765, 416.574 182.028 C 418.061 182.593, 419.522 182.811, 419.822 182.511 C 420.887 181.446, 418.421 180.071, 414.597 179.597 C 412.462 179.332, 410.240 178.640, 409.658 178.058 C 408.309 176.709, 406.681 176.675, 407.507 178.012 M 182.800 182.200 C 184.610 184.010, 184.241 185.211, 182.084 184.527 C 181.030 184.192, 179.879 184.387, 179.525 184.959 C 179.171 185.532, 179.584 186, 180.441 186 C 181.333 186, 182 186.855, 182 188 C 182 189.602, 181.333 190, 178.653 190 C 176.741 190, 174.317 190.858, 173 192 C 170.584 194.096, 170.955 194.609, 173.816 193.128 C 176.684 191.643, 185 190.758, 185 191.939 C 185 192.522, 183.988 193.007, 182.750 193.015 C 180.978 193.027, 180.811 193.228, 181.966 193.958 C 182.896 194.546, 183.903 194.496, 184.716 193.820 C 185.632 193.061, 186 193.077, 186 193.878 C 186 194.495, 186.810 195, 187.800 195 C 188.790 195, 190.117 195.517, 190.749 196.149 C 191.615 197.015, 191.858 196.769, 191.737 195.154 C 191.648 193.975, 191.108 193.061, 190.538 193.123 C 188.066 193.394, 186 192.934, 186 192.113 C 186 190.062, 200.514 189.128, 202.450 191.055 C 202.972 191.575, 204.322 191.990, 205.450 191.978 C 207.365 191.957, 207.335 191.828, 205 190.029 C 202.735 188.283, 192.604 187.677, 187.500 188.981 C 182.845 190.171, 181.295 186.789, 185.750 185.162 C 187.266 184.609, 187.763 184.122, 186.857 184.079 C 185.953 184.036, 184.955 183.325, 184.638 182.500 C 184.322 181.675, 183.509 181, 182.831 181 C 181.874 181, 181.867 181.267, 182.800 182.200 M 270 182.853 C 270 183.675, 270.840 183.781, 280.654 184.197 C 290.344 184.607, 289.113 185.444, 276.535 186.996 C 270.741 187.711, 266 188.668, 266 189.123 C 266 189.578, 267.305 189.689, 268.901 189.370 C 272.509 188.648, 276.560 190.457, 273.756 191.538 C 272.796 191.907, 272.274 192.634, 272.595 193.153 C 272.944 193.719, 273.738 193.632, 274.576 192.937 C 275.345 192.298, 276.655 192.037, 277.487 192.357 C 278.319 192.676, 279 192.539, 279 192.052 C 279 191.565, 278.438 190.940, 277.750 190.662 C 276.970 190.348, 277.127 190.128, 278.167 190.079 C 279.083 190.036, 279.994 190.482, 280.191 191.072 C 280.401 191.702, 281.621 191.300, 283.152 190.095 C 285.353 188.364, 286.707 188.130, 291.879 188.591 C 295.892 188.948, 298 188.768, 298 188.068 C 298 187.480, 297.100 187, 296 187 C 294.900 187, 294 186.539, 294 185.975 C 294 185.412, 292.764 184.481, 291.254 183.906 C 288.050 182.688, 270 181.794, 270 182.853 M 374.446 200.697 C 372.842 202.300, 371.628 202.410, 372.583 200.866 C 373.081 200.059, 372.304 199.926, 369.892 200.406 C 368.026 200.777, 365.264 201.175, 363.753 201.290 C 362.243 201.406, 361.005 201.838, 361.003 202.250 C 361.001 202.662, 361 203.203, 361 203.452 C 361 203.701, 363.119 203.267, 365.710 202.487 C 369.796 201.257, 370.631 201.261, 372.016 202.514 C 373.410 203.776, 373.809 203.763, 375.166 202.406 C 376.122 201.450, 378 200.977, 380.049 201.176 C 383.226 201.485, 383.298 201.581, 381.618 203.250 C 380.650 204.213, 380.325 205, 380.896 205 C 381.566 205, 381.625 205.801, 381.064 207.250 C 380.584 208.488, 379.811 209.437, 379.346 209.360 C 378.881 209.282, 377.093 208.921, 375.374 208.557 C 373.117 208.080, 371.783 208.360, 370.576 209.567 C 368.620 211.522, 369.289 212.835, 371.364 211.113 C 373.003 209.753, 381 210.690, 381 212.243 C 381 212.786, 382.109 212.503, 383.465 211.615 C 386.717 209.484, 387.344 209.577, 386.686 212.092 C 386.161 214.102, 386.215 214.115, 388.077 212.431 C 389.270 211.351, 391.860 210.606, 394.821 210.492 C 399.776 210.302, 403.984 208.726, 402.307 207.690 C 401.784 207.367, 400.159 207.724, 398.695 208.483 C 397.231 209.242, 395.822 209.521, 395.563 209.102 C 395.043 208.260, 387.775 208.570, 384.250 209.585 C 382.577 210.067, 382 209.818, 382 208.617 C 382 207.727, 382.505 207, 383.122 207 C 383.942 207, 383.936 206.628, 383.101 205.622 C 381.609 203.824, 385.477 202.650, 388.162 204.087 C 389.591 204.851, 390 204.714, 390 203.468 C 390 202.263, 390.556 202.042, 392.242 202.577 C 394.216 203.203, 394.325 203.096, 393.150 201.680 C 392.232 200.575, 390.593 200.176, 387.907 200.403 C 385.758 200.586, 383.999 200.457, 383.997 200.117 C 383.991 198.913, 375.728 199.415, 374.446 200.697" stroke="none" fill="black" fill-rule="evenodd"/>
</svg>