<svg xmlns="http://www.w3.org/2000/svg" width="500" height="583" viewBox="0 0 500 583" version="1.1">
	<path d="M 0.243 66.250 L 0.485 132.500 0.750 66.750 L 1.014 1 249.400 1 C 474.973 1, 497.842 1.145, 498.393 2.582 C 499.356 5.090, 498.963 407.740, 498 405.500 C 497.265 403.790, 497.130 403.754, 497.070 405.250 C 497.004 406.909, 488.798 407.003, 339.750 407.052 C 253.262 407.081, 142.200 407.274, 92.945 407.482 C 43.690 407.689, 2.869 407.537, 2.232 407.144 C 1.511 406.698, 0.952 402.480, 0.748 395.964 C 0.569 390.209, 0.327 429.938, 0.211 484.252 L -0 583.004 250.250 582.752 L 500.500 582.500 500.500 291.250 L 500.500 0 250.250 0 L 0 0 0.243 66.250 M 0.472 66.500 C 0.472 102.800, 0.597 117.505, 0.750 99.177 C 0.902 80.850, 0.902 51.150, 0.749 33.177 C 0.597 15.205, 0.472 30.200, 0.472 66.500 M 69.500 89 C 28.596 89.568, 29.736 89.341, 28.036 97.267 C 27.376 100.345, 27 128.040, 27 173.581 C 27 253.063, 26.817 250.772, 33.399 253.522 C 37.253 255.133, 73 255.599, 73 254.038 C 73 253.578, 67.263 252.921, 60.250 252.578 C 39.666 251.571, 35.219 250.998, 32.800 249.039 L 30.571 247.235 30.313 173.867 C 30.049 98.712, 30.213 95.027, 33.915 93.046 C 36.035 91.911, 462.158 91.345, 466.276 92.471 C 471.608 93.929, 471.479 92.103, 471.783 170.203 C 472.098 250.969, 472.257 248.812, 465.847 250.840 C 464.006 251.422, 454.400 252.165, 444.500 252.492 C 426.421 253.088, 419.426 253.760, 420.467 254.800 C 420.775 255.109, 430.584 255.246, 442.264 255.106 C 466.101 254.820, 470.868 253.772, 473.209 248.304 C 474.098 246.229, 474.478 226.792, 474.673 173.500 C 474.968 92.679, 474.947 92.377, 468.751 89.893 C 465.384 88.543, 152.733 87.844, 69.500 89 M 32.513 265.993 C 27.034 268.734, 26.676 271.516, 26.775 310.619 C 26.872 349.009, 27.148 351.085, 32.622 354.672 C 35.302 356.428, 43.834 356.500, 249.956 356.500 C 482.273 356.500, 468.849 356.823, 472.701 351.149 C 474.340 348.736, 474.520 345.283, 474.721 312.317 C 474.961 272.940, 474.669 270.335, 469.591 266.544 C 466.853 264.500, 466.842 264.500, 251.190 264.493 C 61.027 264.487, 35.170 264.664, 32.513 265.993 M 35.020 268.289 C 30.046 270.797, 29.935 271.792, 30.257 311 C 30.422 331.075, 30.890 348.185, 31.298 349.022 C 33.593 353.735, 22.309 353.496, 245 353.565 C 359.675 353.601, 456.543 353.358, 460.262 353.025 C 472.176 351.960, 471.500 354.506, 471.500 310.678 C 471.500 265.992, 472.186 268.647, 460.389 267.650 C 444.678 266.322, 37.708 266.933, 35.020 268.289 M 0.217 484 L -0 582.500 249.250 582 L 498.500 581.500 498.637 496.250 L 498.774 411 397.137 410.990 C 341.237 410.985, 229.251 410.989, 148.280 411 L 1.060 411.019 0.747 398.260 C 0.575 391.242, 0.337 429.825, 0.217 484" stroke="none" fill="black" fill-rule="evenodd"/>
</svg>