<svg xmlns="http://www.w3.org/2000/svg" width="500" height="583" viewBox="0 0 500 583" version="1.1">
	<path d="M -0 291.502 L -0 583.004 250.250 582.752 L 500.500 582.500 500.752 291.250 L 501.003 0 250.502 0 L 0 0 -0 291.502 M -0 291.750 L -0 582.500 249.500 582.246 L 499 581.992 499 495.996 L 499 410 250 410 C 84.667 410, 1 409.664, 1 409 C 1 408.336, 84.667 408, 250 408 L 499 408 499 204.500 L 499 1 249.500 1 L 0 1 -0 291.750 M 219.290 26 C 218.756 28.043, 217 28.809, 217 27 C 217 25.217, 212.517 25.943, 211.278 27.927 C 210.251 29.570, 209.653 29.695, 207.213 28.774 C 202.806 27.111, 199.029 28.466, 198.864 31.769 C 198.731 34.432, 198.718 34.438, 198.334 32 C 197.271 25.255, 197.098 25, 193.560 25 C 190.594 25, 190.075 25.384, 189.500 28 C 189.138 29.650, 188.463 31, 188 31 C 187.537 31, 186.862 29.650, 186.500 28 C 185.925 25.380, 185.408 25, 182.421 25 L 179 25 179 33.500 C 179 41.822, 179.051 42, 181.417 42 C 182.746 42, 184.060 41.438, 184.338 40.750 C 184.741 39.750, 184.858 39.750, 184.921 40.750 C 185.047 42.749, 190.775 42.301, 191.311 40.250 C 191.746 38.583, 191.774 38.583, 191.884 40.250 C 192.032 42.486, 197 42.729, 197 40.500 C 197 39.355, 197.496 39.496, 199.092 41.092 C 200.478 42.478, 201.914 42.989, 203.342 42.606 C 204.529 42.288, 206.512 42.021, 207.750 42.014 C 209.748 42.002, 210.014 41.468, 210.125 37.250 L 210.250 32.500 210.954 36.835 C 211.831 42.242, 213.208 43.131, 219.500 42.350 C 225.518 41.603, 225.142 41.895, 226.041 37.261 L 226.770 33.500 226.885 37.750 C 226.994 41.780, 227.155 42, 230 42 C 232.959 42, 233 41.927, 233 36.655 C 233 31.082, 231.126 28, 227.739 28 C 226.857 28, 225.849 27.100, 225.500 26 C 225.086 24.695, 223.987 24, 222.339 24 C 220.654 24, 219.639 24.666, 219.290 26 M 292.604 25.590 C 292.268 26.465, 292.243 27.585, 292.549 28.079 C 292.854 28.573, 292.406 28.709, 291.552 28.382 C 290.698 28.054, 290 27.384, 290 26.893 C 290 25.528, 285.223 25.830, 284.758 27.225 C 284.502 27.993, 282.831 28.340, 280.274 28.156 C 276.935 27.915, 275.867 28.299, 274.369 30.286 L 272.540 32.711 271.490 30.605 C 270.533 28.687, 269.598 28.500, 260.970 28.500 C 253.115 28.500, 251.277 28.201, 250.193 26.750 C 249.257 25.496, 247.487 25, 243.943 25 L 239 25 239 33.566 L 239 42.133 241.750 41.816 C 243.719 41.590, 244.591 40.861, 244.820 39.250 C 245.021 37.832, 245.831 37, 247.011 37 C 248.040 37, 249.243 36.438, 249.685 35.750 C 250.201 34.945, 250.667 35.746, 250.994 38 C 251.413 40.899, 251.961 41.553, 254.186 41.810 C 256.628 42.092, 256.901 41.783, 257.186 38.419 C 257.431 35.528, 258.048 34.516, 260 33.802 C 262.005 33.068, 262.253 33.135, 261.250 34.143 C 259.371 36.032, 259.711 40.775, 261.805 41.896 C 263.808 42.968, 271.748 42.216, 272.577 40.876 C 272.867 40.407, 274.251 40.774, 275.653 41.692 C 277.752 43.067, 278.738 43.160, 281.235 42.218 C 283.185 41.481, 284.888 41.405, 286.008 42.004 C 287.971 43.055, 297.778 42.169, 298.581 40.868 C 298.869 40.403, 300.244 40.769, 301.637 41.681 C 303.738 43.059, 304.715 43.143, 307.379 42.180 C 309.732 41.329, 311.380 41.310, 313.545 42.107 C 318.844 44.058, 321.725 42.065, 321.839 36.367 C 321.981 29.304, 317.199 25.691, 312.034 28.958 C 311.106 29.545, 310.100 29.498, 309.297 28.832 C 307.988 27.745, 302.899 28.092, 299.663 29.488 C 298.225 30.109, 297.871 29.871, 298.029 28.390 C 298.140 27.351, 298.178 25.938, 298.115 25.250 C 297.948 23.431, 293.323 23.717, 292.604 25.590 M 226.266 57.488 C 225.246 59.312, 205.167 59.888, 204.078 58.126 C 203.717 57.541, 201.639 57.162, 199.461 57.282 L 195.500 57.500 195.195 62.260 C 194.883 67.124, 197.151 69.991, 198.976 67.039 C 199.525 66.151, 199.949 66.108, 200.434 66.893 C 201.892 69.252, 205.846 68.141, 206.284 65.250 L 206.700 62.500 206.850 65.132 C 206.986 67.525, 207.383 67.770, 211.219 67.822 C 213.540 67.854, 216.015 67.402, 216.719 66.818 C 217.454 66.209, 218 66.162, 218 66.708 C 218 67.266, 223.344 67.627, 230.917 67.580 C 238.021 67.536, 243.650 67.684, 243.425 67.908 C 243.201 68.132, 243.519 68.920, 244.131 69.658 C 245.685 71.530, 248.639 71.331, 250.193 69.250 C 250.931 68.263, 252.807 67.500, 254.500 67.500 C 257.333 67.500, 257.500 67.278, 257.500 63.500 L 257.500 59.500 251.113 59.254 C 246.417 59.074, 244.366 58.545, 243.363 57.254 C 242.070 55.590, 241.924 55.598, 240.519 57.415 C 238.687 59.784, 231.052 59.843, 229.739 57.499 C 228.672 55.591, 227.330 55.587, 226.266 57.488 M 308.300 57.325 C 307.860 58.054, 306.712 58.940, 305.750 59.294 C 303.682 60.054, 303.345 65.211, 305.259 66.800 C 306.016 67.429, 312.423 67.823, 321.340 67.791 C 335.701 67.739, 336.194 67.668, 337.184 65.495 C 337.894 63.936, 337.869 62.624, 337.101 61.189 C 336.070 59.262, 335.198 59.137, 323.997 59.312 C 313.165 59.482, 311.999 59.330, 311.999 57.750 C 312 55.698, 309.458 55.406, 308.300 57.325 M 163 62.500 C 163 67.837, 163.081 68, 165.750 67.985 C 167.262 67.976, 169.160 67.552, 169.966 67.042 C 170.887 66.460, 171.888 66.492, 172.656 67.129 C 173.328 67.687, 175.143 68.044, 176.689 67.921 C 182.325 67.474, 185 67.982, 185 69.500 C 185 71.828, 187.221 71.229, 190.325 68.064 C 192.365 65.984, 193.060 64.393, 192.825 62.341 L 192.500 59.500 182.204 59.404 C 175.883 59.345, 171.462 58.862, 170.754 58.154 C 170.119 57.519, 168.115 57, 166.300 57 L 163 57 163 62.500 M 260 58.300 C 260 59.015, 260.415 60.028, 260.923 60.550 C 261.431 61.072, 261.993 62.831, 262.173 64.459 C 262.465 67.102, 262.900 67.442, 266.250 67.652 C 269.692 67.867, 270.008 67.665, 270.100 65.193 L 270.199 62.500 270.893 65 C 271.560 67.406, 271.928 67.510, 280.725 67.770 L 289.863 68.040 290.282 65.270 L 290.700 62.500 290.850 65.250 C 290.938 66.862, 291.576 68, 292.393 68 C 293.159 68, 294.045 68.675, 294.362 69.500 C 295.051 71.296, 299.115 71.485, 300.800 69.800 C 301.460 69.140, 302 66.465, 302 63.855 L 302 59.109 294.884 59.176 C 289.878 59.224, 287.515 58.837, 286.915 57.872 C 286.194 56.713, 285.707 56.721, 283.781 57.919 C 281.177 59.539, 268.705 59.599, 268.167 57.994 C 267.653 56.462, 260 56.749, 260 58.300 M 143.170 89.750 C 201.839 89.892, 298.139 89.892, 357.170 89.750 C 416.202 89.607, 368.200 89.491, 250.500 89.491 C 132.800 89.491, 84.502 89.607, 143.170 89.750 M 28.244 170.816 C 28.081 221.021, 28.343 246.773, 29.030 248.055 C 31.832 253.292, 18.736 253, 250.935 253 L 465.968 253 469.234 250.082 L 472.500 247.165 472.522 172.832 L 472.545 98.500 472.022 172 C 471.462 250.809, 471.587 249.066, 466.374 251.048 C 464.817 251.640, 382.812 252, 249.512 252 L 35.153 252 32.083 249.416 L 29.013 246.833 28.750 171.166 L 28.487 95.500 28.244 170.816 M 46.770 105.966 C 40.665 110.768, 40.943 120.165, 47.304 124.044 C 51.645 126.691, 106.039 127.065, 111.033 124.483 C 117.645 121.064, 118.902 112.702, 113.600 107.400 L 110.200 104 79.735 104 C 50.959 104, 49.131 104.109, 46.770 105.966 M 47.367 106.772 C 42.001 111.119, 41.887 118.045, 47.111 122.440 L 50.153 125 79.126 125 C 110.572 125, 112.443 124.713, 114.805 119.528 C 117.002 114.706, 115.209 108.253, 111.055 106.030 C 109.856 105.388, 97.897 105.008, 79.316 105.022 C 52.576 105.042, 49.280 105.223, 47.367 106.772 M 51.189 109.862 C 49.118 111.176, 48.862 117.879, 50.848 118.803 C 53.550 120.061, 107.965 119.435, 109.269 118.131 C 110.042 117.358, 110.089 116.157, 109.420 114.255 C 108.554 111.793, 107.948 111.491, 103.716 111.414 C 101.112 111.367, 97.831 110.712, 96.425 109.960 C 94.863 109.124, 93.604 108.963, 93.185 109.546 C 92.293 110.788, 89.181 111.107, 80 110.898 C 68.680 110.641, 66.673 110.460, 64.560 109.511 C 63.272 108.933, 62.488 109.037, 62.227 109.820 C 61.749 111.254, 56.364 111.398, 55.500 110 C 54.753 108.791, 52.967 108.734, 51.189 109.862 M 45.750 147.298 C 42.542 149.955, 42.165 152.969, 44.951 153.698 C 46.513 154.106, 46.962 155.235, 47.201 159.354 C 47.491 164.339, 47.594 164.500, 50.500 164.500 L 53.500 164.500 53.500 155 C 53.500 145.597, 53.474 145.498, 51 145.260 C 49.578 145.124, 47.314 146.002, 45.750 147.298 M 59.061 146.750 C 56.607 148.738, 54.804 155.272, 55.681 159 C 56.643 163.092, 58.971 165, 63 165 C 67.554 165, 70 162.554, 70 158 C 70 156.162, 69.255 153.835, 68.345 152.829 C 67.355 151.735, 67.154 151, 67.845 151 C 68.480 151, 69 149.650, 69 148 C 69 145.181, 68.765 145, 65.111 145 C 62.896 145, 60.291 145.754, 59.061 146.750 M 92.750 147.298 C 89.542 149.955, 89.165 152.969, 91.951 153.698 C 93.513 154.106, 93.962 155.235, 94.201 159.354 C 94.492 164.370, 94.583 164.508, 97.787 164.816 L 101.074 165.132 100.787 155.316 C 100.505 145.662, 100.459 145.496, 98 145.260 C 96.578 145.124, 94.314 146.002, 92.750 147.298 M 106.142 147.750 C 102.593 150.724, 102.574 154, 106.107 154 C 107.735 154, 108 154.770, 108 159.500 C 108 164.895, 108.055 165, 110.883 165 C 114.276 165, 114.973 163.295, 114.973 155 C 114.973 144.337, 112.570 142.364, 106.142 147.750 M 143.163 145.878 C 140.560 147.528, 142.184 151.523, 145.364 151.296 C 148 151.109, 148.104 151.227, 146.688 152.796 C 145.841 153.733, 145.003 156.750, 144.825 159.500 C 144.503 164.461, 144.523 164.500, 147.500 164.500 C 150.176 164.500, 150.507 164.164, 150.563 161.395 C 150.598 159.688, 151.610 157.040, 152.813 155.511 C 155.480 152.121, 155.611 148.863, 153.171 146.655 C 151.237 144.905, 145.412 144.453, 143.163 145.878 M 123 154.954 L 123 160 130.055 160 L 137.110 160 136.805 155.250 L 136.500 150.500 129.750 150.204 L 123 149.909 123 154.954 M 41.275 192.312 C 41.518 192.965, 42.321 195.188, 43.060 197.250 C 44.294 200.698, 47 202.502, 47 199.878 C 47 199.103, 47.387 199.071, 48.250 199.775 C 48.938 200.335, 52.763 200.839, 56.750 200.894 C 63.290 200.984, 64 200.804, 64 199.056 C 64 197.990, 64.450 196.840, 65 196.500 C 65.550 196.160, 66 195.250, 66 194.477 C 66 193.389, 64.274 193.080, 58.356 193.111 C 54.151 193.133, 50.439 192.719, 50.106 192.191 C 49.189 190.738, 40.733 190.853, 41.275 192.312 M 67.720 195.687 C 66.717 200.933, 66.828 200.963, 85.847 200.723 C 103.315 200.502, 103.503 200.476, 103.820 198.250 C 103.995 197.012, 104.558 196, 105.070 196 C 105.581 196, 106 195.325, 106 194.500 C 106 193.220, 103.235 193, 87.117 193 L 68.233 193 67.720 195.687 M 47.284 205.701 C 41.870 206.749, 40 211.206, 40 223.061 C 40 233.699, 40.072 234.049, 42.918 237.234 L 45.836 240.500 210.668 240.753 C 366.070 240.992, 375.699 240.906, 378.986 239.253 C 383.934 236.765, 384.971 233.949, 384.971 223 C 384.971 212.050, 383.933 209.233, 378.986 206.752 C 375.707 205.107, 365.844 205.011, 212.500 205.138 C 122.850 205.212, 48.503 205.465, 47.284 205.701 M 392.455 209.455 C 390.144 211.766, 390 212.558, 390 223 C 390 233.442, 390.144 234.234, 392.455 236.545 L 394.909 239 424.500 239 L 454.091 239 456.545 236.545 C 460.298 232.793, 460.298 213.207, 456.545 209.455 L 454.091 207 424.500 207 L 394.909 207 392.455 209.455 M 396.315 210.007 C 392.912 211.378, 392 214.193, 392 223.323 C 392 230.156, 392.367 232.232, 393.910 234.139 L 395.821 236.500 423.160 236.760 C 457.931 237.090, 455.500 238.124, 455.500 223 C 455.500 211.800, 455.447 211.532, 453 210.294 C 450.055 208.804, 399.931 208.550, 396.315 210.007 M 46.571 211.571 C 44.303 213.839, 44.303 232.161, 46.571 234.429 C 49.200 237.057, 375.962 236.804, 378.345 234.171 C 380.872 231.379, 380.737 213.977, 378.171 211.655 C 375.432 209.176, 49.049 209.094, 46.571 211.571 M 419.300 217.325 C 417.969 219.531, 415.404 219.922, 412.420 218.374 C 407.236 215.684, 404.548 216.836, 404.185 221.901 C 404.012 224.321, 404.331 226.587, 404.895 226.935 C 405.459 227.284, 414.601 227.468, 425.210 227.345 L 444.500 227.122 444.660 223.108 C 444.755 220.702, 444.255 218.626, 443.410 217.925 C 442.634 217.282, 442 217.090, 442 217.500 C 442 217.910, 441.276 217.644, 440.392 216.910 C 439.032 215.782, 438.590 215.840, 437.532 217.288 C 435.832 219.612, 423.516 219.787, 422.638 217.500 C 421.927 215.645, 420.363 215.563, 419.300 217.325 M 32.869 266.506 C 31.421 267.295, 29.957 268.670, 29.615 269.562 C 29.206 270.628, 30.052 270.293, 32.081 268.586 L 35.170 265.986 250.980 266.243 C 463.769 266.496, 466.823 266.527, 469.145 268.463 L 471.500 270.426 469.222 267.963 L 466.945 265.500 251.222 265.286 C 65.519 265.102, 35.134 265.272, 32.869 266.506 M 28.227 309.734 L 28 347.968 30.918 351.234 L 33.836 354.500 247.668 354.793 C 400.773 355.004, 462.579 354.775, 465.298 353.989 C 472.967 351.772, 473.023 351.445, 472.771 310.500 L 472.549 274.500 472.024 311.228 L 471.500 347.957 468.727 350.728 L 465.955 353.500 250.005 353.500 L 34.056 353.500 31.778 351.223 C 29.505 348.952, 29.499 348.859, 28.977 310.223 L 28.454 271.500 28.227 309.734 M 42.406 284.386 C 42.113 285.148, 42.015 287.731, 42.187 290.126 L 42.500 294.480 63 294.490 L 83.500 294.500 83.717 289.807 C 83.938 285.032, 81.852 282.737, 78.933 284.542 C 76.819 285.848, 50.903 285.589, 49.792 284.250 C 48.391 282.562, 43.068 282.659, 42.406 284.386 M 94 284.755 C 94 285.219, 92.472 285.420, 90.604 285.202 C 87.306 284.817, 87.188 284.926, 86.496 289.027 C 86.025 291.811, 86.168 293.486, 86.917 293.949 C 87.541 294.334, 95.305 294.601, 104.172 294.542 C 116.072 294.463, 120.628 294.771, 121.575 295.718 C 123.320 297.463, 126.657 297.336, 127.362 295.498 C 127.816 294.316, 129.170 294.104, 133.719 294.502 C 141.002 295.138, 142.226 294.368, 141.819 289.405 C 141.504 285.563, 141.438 285.505, 136.564 284.813 C 133.848 284.428, 131.208 284.372, 130.695 284.688 C 129.506 285.423, 111.856 285.323, 101.750 284.524 C 97.487 284.187, 94 284.291, 94 284.755 M 163.667 312.667 C 163.300 313.033, 163 315.707, 163 318.608 L 163 323.882 177.500 323.882 L 192 323.882 192 318.500 C 192 312.798, 190.500 310.596, 188.488 313.347 C 187.018 315.358, 186.268 315.411, 184.485 313.628 C 183.047 312.190, 178 312.570, 178 314.117 C 178 314.602, 177.355 315, 176.566 315 C 175.770 315, 174.948 316.223, 174.716 317.750 L 174.300 320.500 174.150 317.817 C 174.020 315.490, 173.586 315.146, 170.877 315.223 C 168.939 315.278, 167.402 314.683, 166.827 313.656 C 165.847 311.904, 164.767 311.566, 163.667 312.667 M 223.667 312.667 C 223.300 313.033, 223 315.736, 223 318.674 L 223 324.014 238.500 323.894 L 254 323.775 254 321.328 C 254 319.904, 254.430 319.148, 255.031 319.519 C 255.628 319.888, 255.792 321.593, 255.419 323.578 C 254.851 326.609, 255.022 327, 256.920 327 C 258.099 327, 259.322 326.325, 259.638 325.500 C 259.955 324.675, 261.291 324, 262.607 324 C 264.333 324, 265 323.443, 265 322 C 265 320.900, 264.387 320, 263.639 320 C 262.734 320, 262.434 319.180, 262.745 317.553 L 263.213 315.106 253.782 315.221 C 248.596 315.284, 243.850 315.025, 243.237 314.646 C 242.623 314.267, 240.294 314.249, 238.061 314.606 C 235.330 315.043, 234 314.886, 234 314.128 C 234 313.508, 233.100 313, 232 313 C 230.900 313, 230 313.450, 230 314 C 230 315.572, 227.278 315.167, 226.638 313.500 C 226.029 311.912, 224.773 311.560, 223.667 312.667 M 42.964 317.583 C 41.884 320.104, 41 322.579, 41 323.083 C 41 324.475, 44.773 324.179, 45.254 322.750 C 45.576 321.795, 46.008 321.773, 47.087 322.660 C 48.054 323.453, 53.867 323.769, 65.500 323.660 C 82.313 323.502, 82.504 323.475, 82.820 321.250 C 82.995 320.012, 83.558 319, 84.070 319 C 84.581 319, 85 318.134, 85 317.076 C 85 315.251, 84.122 315.155, 67.750 315.202 C 57.317 315.231, 50.247 315.648, 49.859 316.257 C 49.507 316.811, 48.914 316.305, 48.542 315.132 C 47.436 311.647, 45.062 312.691, 42.964 317.583 M 128 313.750 C 128 314.655, 126.076 314.811, 110.110 315.199 C 100.081 315.443, 97.528 315.804, 96.713 317.095 C 95.175 319.531, 96.667 324, 99.019 324 C 100.113 324, 101 324.671, 101 325.500 C 101 327.428, 103.649 327.449, 104.723 325.530 C 105.402 324.318, 109.099 324.042, 125.827 323.958 L 146.108 323.856 145.804 319.678 L 145.500 315.500 139.019 315.307 C 135.454 315.201, 132.379 314.638, 132.186 314.057 C 131.789 312.866, 128 312.588, 128 313.750 M 148.522 314.964 C 148.211 315.467, 148.252 317.727, 148.614 319.985 L 149.270 324.092 154.885 323.796 C 160.352 323.508, 160.508 323.419, 160.801 320.415 C 160.967 318.718, 160.517 316.868, 159.801 316.303 C 158.005 314.886, 149.215 313.843, 148.522 314.964 M 194.266 321 C 194.331 327.856, 196.672 329.330, 199.428 324.250 C 200.249 322.738, 200.938 322.026, 200.960 322.668 C 200.987 323.464, 203.867 323.859, 210 323.907 C 218.941 323.976, 219 323.960, 219 321.488 C 219 320.120, 219.450 319, 220 319 C 220.550 319, 221 318.100, 221 317 C 221 315.301, 220.333 315, 216.566 315 C 212.497 315, 212.099 315.226, 211.716 317.750 L 211.300 320.500 211.150 317.881 C 211.006 315.370, 210.744 315.256, 204.815 315.122 C 200.798 315.031, 198.349 315.423, 197.830 316.241 C 197.195 317.241, 197.027 317.243, 197.015 316.250 C 197.007 315.563, 196.372 315, 195.605 315 C 194.560 315, 194.224 316.507, 194.266 321 M 12 427.878 L 12 432.756 23.750 432.755 C 30.213 432.755, 36.063 432.304, 36.750 431.755 C 37.601 431.074, 38 431.113, 38 431.878 C 38 432.583, 40.230 433, 44 433 C 49.333 433, 50 432.778, 50 431 C 50 429.889, 49.333 429, 48.500 429 C 47.507 429, 47 428.007, 47 426.062 L 47 423.124 32.750 423.179 C 24.788 423.210, 17.948 423.678, 17.250 424.240 C 16.395 424.927, 16 424.890, 16 424.122 C 16 423.505, 15.100 423, 14 423 C 12.273 423, 12 423.667, 12 427.878 M 53.245 424.155 C 51.636 425.764, 51.639 430.463, 53.250 431.766 C 55.164 433.313, 84.601 433.185, 85.897 431.625 C 86.468 430.936, 86.666 428.714, 86.337 426.687 L 85.738 423 75.369 423 L 65 423 64.900 425.750 L 64.801 428.500 64.110 426 C 63.315 423.120, 55.591 421.809, 53.245 424.155 M 78.300 442.365 C 77.190 444.260, 71 445.076, 71 443.327 C 71 442.597, 70.100 442, 69 442 C 67.900 442, 67 442.450, 67 443 C 67 443.550, 64.576 444, 61.613 444 C 56.320 444, 56.219 444.055, 55.758 447.195 C 54.853 453.362, 55.402 453.818, 63.540 453.651 C 69.783 453.523, 70.967 453.765, 71.355 455.250 C 71.924 457.427, 76.265 457.590, 78 455.500 C 78.685 454.675, 79.836 454, 80.559 454 C 81.292 454, 82.052 452.563, 82.277 450.750 L 82.680 447.500 82.840 450.632 C 82.991 453.590, 83.225 453.767, 87.055 453.820 C 91.348 453.879, 93.563 451.617, 90.896 449.899 C 89.714 449.138, 89.730 448.851, 91 448.028 C 92.158 447.278, 92.249 446.651, 91.398 445.278 C 90.208 443.358, 86 442.235, 86 443.837 C 86 445.271, 82.230 444.041, 81.601 442.401 C 80.916 440.619, 79.333 440.601, 78.300 442.365 M 94.186 442.214 C 92.935 443.465, 92.579 449.739, 93.607 452.418 C 94.315 454.262, 97 454.564, 97 452.800 C 97 451.867, 97.267 451.867, 98.200 452.800 C 98.877 453.477, 102.119 454, 105.637 454 L 111.873 454 112.277 450.750 L 112.680 447.500 112.840 450.634 L 113 453.768 123.750 453.634 L 134.500 453.500 134.818 450.185 C 135.212 446.084, 133.387 443.693, 130.311 444.281 C 128.812 444.567, 128 444.244, 128 443.361 C 128 442.613, 127.438 441.948, 126.750 441.885 C 126.063 441.821, 124.825 441.709, 124 441.635 C 123.175 441.561, 121.078 442.535, 119.340 443.800 C 117.403 445.210, 115.935 445.704, 115.547 445.076 C 115.186 444.492, 111.524 444.129, 107.011 444.230 C 100.816 444.370, 98.705 444.043, 97.241 442.718 C 95.800 441.414, 95.101 441.299, 94.186 442.214 M 152.300 442.325 C 150.969 444.531, 148.404 444.922, 145.420 443.374 C 143.864 442.567, 141.446 442.040, 140.046 442.203 C 137.663 442.481, 137.500 442.851, 137.500 448 L 137.500 453.500 153.750 453.681 C 164.576 453.801, 170 453.510, 170 452.808 C 170 452.074, 170.386 452.076, 171.276 452.814 C 172.093 453.492, 179.370 453.806, 191.526 453.686 L 210.500 453.500 210.818 450.185 C 211.303 445.135, 209.784 444.068, 202.188 444.126 C 198.254 444.157, 195.412 443.735, 195.196 443.089 C 194.729 441.687, 190 441.660, 190 443.059 C 190 443.641, 189.600 443.871, 189.111 443.569 C 188.622 443.266, 186.259 443.379, 183.861 443.819 C 181.462 444.260, 175.450 444.297, 170.500 443.902 C 164.960 443.460, 161.041 443.562, 160.306 444.168 C 159.478 444.850, 158.565 444.515, 157.333 443.076 C 155.291 440.691, 153.451 440.417, 152.300 442.325 M 12 445.430 C 12 448.193, 12.438 448.945, 14.250 449.294 L 16.500 449.728 14.250 449.864 C 10.668 450.081, 11.189 454, 14.800 454 C 18.239 454, 19.959 452.403, 20.132 449.050 C 20.234 447.060, 20.399 447.266, 20.882 449.989 C 21.273 452.199, 22.141 453.600, 23.250 453.812 C 24.761 454.101, 25 453.318, 25 448.073 C 25 442.718, 24.769 442, 23.050 442 C 21.977 442, 20.641 442.788, 20.080 443.750 C 19.109 445.417, 19.059 445.417, 19.030 443.750 C 19.007 442.422, 18.155 442, 15.500 442 C 12.180 442, 12 442.177, 12 445.430 M 26.583 442.750 C 25.613 443.720, 25.929 448.838, 27 449.500 C 27.550 449.840, 28 450.920, 28 451.901 C 28 453.337, 28.875 453.696, 32.504 453.751 C 36.527 453.812, 37.076 453.546, 37.650 451.259 C 38.003 449.850, 37.777 447.872, 37.146 446.863 C 36.516 445.853, 36 444.384, 36 443.597 C 36 442.162, 27.900 441.433, 26.583 442.750 M 12.667 463.667 C 12.300 464.033, 12 466.246, 12 468.583 L 12 472.833 19.250 472.667 C 26.001 472.511, 26.522 472.341, 26.827 470.195 C 27.272 467.058, 25.141 464.740, 22.311 465.281 C 20.812 465.567, 20 465.244, 20 464.361 C 20 462.722, 18.800 462.600, 17.313 464.087 C 16.530 464.870, 16.038 464.870, 15.554 464.087 C 14.791 462.853, 13.647 462.686, 12.667 463.667 M 28 468 L 28 473 41.500 473 C 54.829 473, 55 472.971, 55.015 470.750 C 55.027 468.978, 55.228 468.811, 55.958 469.966 C 56.542 470.889, 56.504 471.892, 55.857 472.673 C 55.291 473.355, 55.118 474.382, 55.473 474.956 C 56.842 477.172, 59.177 475.824, 60.992 471.770 C 62.900 467.508, 64.045 467.989, 63.679 472.899 C 63.453 475.925, 65.246 476.611, 67.498 474.359 C 68.747 473.110, 70.557 472.700, 74.012 472.884 C 78.559 473.125, 81.210 471.866, 79.014 470.508 C 78.338 470.091, 78.325 469.260, 78.976 468.044 C 80.295 465.581, 77.913 463.575, 74.831 464.554 C 73.585 464.949, 66.476 465.152, 59.033 465.004 C 51.590 464.857, 43.936 464.770, 42.025 464.812 C 40.113 464.855, 38.246 464.399, 37.876 463.799 C 37.505 463.199, 36.453 462.996, 35.538 463.347 C 34.622 463.698, 34.150 464.434, 34.489 464.981 C 34.844 465.556, 34.448 465.725, 33.552 465.382 C 32.698 465.054, 32 464.384, 32 463.893 C 32 463.402, 31.100 463, 30 463 C 28.267 463, 28 463.667, 28 468 M 93.398 464.405 C 93.102 465.177, 93.003 467.315, 93.180 469.155 L 93.500 472.500 113.812 472.771 L 134.123 473.042 133.812 469.271 L 133.500 465.500 128.021 465.314 C 125.008 465.212, 122.383 464.650, 122.188 464.064 C 121.746 462.738, 116.288 462.650, 115.833 463.961 C 115.305 465.484, 97.751 465.752, 97.248 464.245 C 96.686 462.557, 94.066 462.666, 93.398 464.405 M 166.667 463.667 C 166.300 464.033, 166 466.283, 166 468.667 C 166 472.932, 166.053 473, 169.417 473 C 171.296 473, 173.060 472.438, 173.338 471.750 C 173.741 470.750, 173.858 470.750, 173.921 471.750 C 173.977 472.640, 176.321 473, 182.060 473 L 190.121 473 189.810 469.250 L 189.500 465.500 181.086 465.286 C 176.459 465.169, 172.207 464.607, 171.636 464.036 C 170.467 462.867, 167.674 462.659, 166.667 463.667 M 217.882 463.750 C 217.816 464.163, 217.788 464.752, 217.818 465.059 C 217.848 465.366, 215.099 465.291, 211.708 464.891 C 208.317 464.491, 205.244 464.349, 204.879 464.575 C 204.514 464.801, 201.488 465.047, 198.156 465.122 C 191.724 465.268, 190.963 465.945, 191.828 470.750 C 192.174 472.673, 192.860 473, 196.547 473 C 200.226 473, 200.925 472.669, 201.294 470.750 L 201.728 468.500 201.864 470.692 C 201.999 472.862, 202.189 472.885, 220.500 472.952 L 239 473.019 239 468.009 C 239 462.769, 238.025 461.903, 234.846 464.322 C 232.890 465.810, 221.689 465.567, 221.175 464.026 C 220.783 462.849, 218.060 462.621, 217.882 463.750 M 244.500 464.806 C 241.253 465.470, 240.314 466.778, 240.784 469.981 L 241.227 473 254.687 473 C 266.985 473, 268.114 472.849, 267.764 471.250 C 267.553 470.288, 266.862 469.607, 266.227 469.738 C 265.592 469.869, 265.301 469.379, 265.581 468.648 C 266.534 466.166, 263.248 464.947, 254.865 464.672 C 250.264 464.521, 245.600 464.581, 244.500 464.806 M 135.982 466.522 C 135.152 467.522, 135.061 469.098, 135.681 471.722 C 136.679 475.941, 139.134 477.094, 141.862 474.625 C 143.128 473.479, 146.302 473, 154.037 472.787 L 164.500 472.500 164.500 469 L 164.500 465.500 150.836 465.294 C 139.999 465.130, 136.926 465.384, 135.982 466.522 M 12.513 491.622 C 10.489 496.466, 10.606 498, 13 498 C 14.100 498, 15.007 497.438, 15.015 496.750 C 15.026 495.837, 15.264 495.869, 15.897 496.867 C 16.713 498.156, 26.228 498.516, 48.310 498.092 L 53.121 498 52.810 494.250 C 52.500 490.501, 52.499 490.500, 47.500 490.220 C 44.750 490.067, 41.825 489.657, 41 489.311 C 38.295 488.175, 28.593 488.040, 27.920 489.129 C 27.474 489.850, 26.626 489.783, 25.238 488.917 C 23.539 487.856, 22.935 487.922, 21.533 489.324 C 19.461 491.396, 18.385 491.444, 17.638 489.500 C 16.619 486.843, 14.069 487.899, 12.513 491.622 M 468.535 490.587 C 465.198 495.679, 467.606 498.261, 475.500 498.055 C 476.600 498.027, 479.868 498.025, 482.762 498.052 C 488.955 498.109, 490.128 496.588, 487.745 491.591 L 486.206 488.364 478.138 488.304 C 470.747 488.249, 469.941 488.441, 468.535 490.587 M 91.726 502.756 L 12.952 503.012 11.817 505.502 C 10.873 507.573, 11.003 508.347, 12.591 510.106 L 14.500 512.220 249.500 511.533 C 378.750 511.156, 485.287 510.626, 486.250 510.356 C 488.286 509.785, 488.617 505.738, 486.750 504.245 C 485.437 503.195, 240.613 502.272, 91.726 502.756 M 241 507.254 L 241 510.008 363.750 509.754 L 486.500 509.500 486.819 507.258 L 487.137 505.016 364.068 504.758 L 241 504.500 241 507.254 M 14.500 506 C 14.160 506.550, 14.160 507.450, 14.500 508 C 15.194 509.122, 237.205 509.462, 238.325 508.342 C 238.687 507.980, 238.481 507.080, 237.869 506.342 C 236.466 504.651, 15.543 504.313, 14.500 506 M 11.761 523.250 C 11.514 525.587, 11.470 527.800, 11.663 528.167 C 11.857 528.533, 24.499 528.758, 39.757 528.667 L 67.500 528.500 67.500 525 L 67.500 521.500 61.524 521.193 C 58.237 521.025, 55.264 520.427, 54.917 519.866 C 54.492 519.178, 52.922 519.213, 50.094 519.975 C 45.145 521.307, 27.818 520.960, 26.781 519.507 C 26.309 518.847, 25.366 518.930, 24.044 519.750 C 21.627 521.248, 18 521.398, 18 520 C 18 519.450, 16.697 519, 15.105 519 C 12.436 519, 12.175 519.332, 11.761 523.250 M 467.591 519.743 C 467.266 520.068, 467 522.312, 467 524.730 C 467 529.078, 467.036 529.123, 470.211 528.813 C 472.652 528.575, 473.587 527.901, 474.111 526 L 474.801 523.500 474.900 526.250 C 475.014 529.393, 477.335 529.971, 478.920 527.250 C 479.817 525.710, 479.943 525.696, 479.970 527.132 C 479.992 528.352, 480.999 528.778, 483.953 528.819 C 488.602 528.883, 489.907 526.670, 487.897 522.130 C 486.658 519.331, 486.555 519.302, 477.414 519.228 C 472.336 519.186, 467.916 519.418, 467.591 519.743 M 12.699 534.444 C 10.728 536.415, 10.611 537.405, 12.035 540.066 C 13.054 541.970, 16.762 542, 248.601 542 C 409.046 542, 484.748 541.670, 486.066 540.965 C 488.511 539.656, 488.638 535.316, 486.250 534.636 C 485.287 534.362, 378.727 533.824, 249.449 533.441 C 29.056 532.788, 14.292 532.851, 12.699 534.444 M 255.500 537.496 L 255.500 540 371.320 540 L 487.139 540 486.820 537.750 L 486.500 535.500 371 535.246 L 255.500 534.992 255.500 537.496 M 14.449 537.083 C 14.078 537.683, 14.187 538.587, 14.691 539.091 C 16.442 540.842, 252.500 539.759, 252.500 538 C 252.500 536.083, 15.631 535.170, 14.449 537.083 M 26.202 550.547 C 25.326 551.540, 24.350 551.734, 23.202 551.144 C 22.266 550.662, 19.339 550.249, 16.699 550.224 L 11.898 550.179 12.199 554.789 L 12.500 559.400 23.979 559.638 C 30.981 559.783, 35.597 560.291, 35.813 560.938 C 36.291 562.373, 39.736 562.292, 40.222 560.835 C 40.495 560.016, 45.934 559.614, 58.555 559.481 C 80.076 559.255, 78 559.614, 78 556.122 C 78 552.113, 76.078 550.923, 70.152 551.265 C 66.415 551.480, 64.896 551.171, 64.490 550.112 C 64.089 549.069, 63.631 548.969, 62.845 549.755 C 62.246 550.354, 61.182 550.623, 60.479 550.354 C 59.777 550.084, 58.955 550.264, 58.652 550.754 C 57.945 551.897, 49.881 551.281, 48.585 549.985 C 47.053 548.453, 42 548.777, 42 550.406 C 42 551.949, 38.515 551.508, 36.174 549.670 C 35.245 548.940, 34.638 548.968, 34.147 549.762 C 33.691 550.500, 32.934 550.570, 31.974 549.963 C 29.865 548.629, 27.701 548.848, 26.202 550.547 M 467.982 550.011 C 467.353 550.400, 467.007 552.611, 467.185 555.099 L 467.500 559.500 477.391 559.500 C 485.371 559.500, 487.477 559.191, 488.291 557.900 C 489.742 555.600, 487.105 550.028, 484.506 549.904 C 473.942 549.400, 468.919 549.432, 467.982 550.011 M 12.035 565.934 C 10.629 568.562, 10.729 569.586, 12.571 571.429 C 14.327 573.185, 92.909 573.339, 357.500 572.106 L 487.500 571.500 487.500 568.500 L 487.500 565.500 358.500 564.897 C 75.096 563.571, 13.201 563.756, 12.035 565.934 M 259 568.500 L 259 571.009 372.750 570.754 C 485.749 570.502, 486.500 570.487, 486.500 568.500 C 486.500 566.513, 485.749 566.498, 372.750 566.246 L 259 565.991 259 568.500 M 14 568.500 C 14 569.825, 28.111 570, 135 570 C 241.889 570, 256 569.825, 256 568.500 C 256 567.175, 241.889 567, 135 567 C 28.111 567, 14 567.175, 14 568.500" stroke="none" fill="black" fill-rule="evenodd"/>
</svg>