<svg xmlns="http://www.w3.org/2000/svg" width="500" height="667" viewBox="0 0 500 667" version="1.1">
	<path d="M 0 333.502 L 0 667.004 250.250 666.752 L 500.500 666.500 500.751 333.250 L 501.003 0 366.679 -0 L 232.356 -0 223.167 21.250 C 218.113 32.938, 213.983 42.842, 213.989 43.259 C 213.999 43.932, 208.890 56.325, 203.997 67.500 C 203.034 69.700, 200.645 75.583, 198.690 80.574 C 196.734 85.565, 194.028 92.090, 192.676 95.074 C 191.323 98.058, 187.649 107.250, 184.510 115.500 C 181.372 123.750, 178.360 131.342, 177.817 132.372 C 177.275 133.401, 176.228 136.101, 175.491 138.372 C 174.754 140.642, 172.103 147.450, 169.599 153.500 C 167.095 159.550, 165.036 165.197, 165.023 166.050 C 165.011 166.903, 164.598 168.028, 164.107 168.550 C 162.930 169.803, 153.632 193.084, 151.700 199.619 C 150.867 202.435, 148.853 207.425, 147.223 210.709 C 145.594 213.993, 143.710 218.439, 143.037 220.590 C 141.043 226.963, 135.866 240.421, 134.993 241.500 C 134.548 242.050, 133.499 245.131, 132.662 248.347 C 131.824 251.563, 130.913 254.420, 130.637 254.697 C 129.608 255.725, 122.711 252.685, 119.323 249.711 C 116.357 247.106, 115.526 246.815, 113.922 247.816 C 111.090 249.585, 109.080 249.269, 102.749 246.058 C 99.587 244.454, 94.412 242.631, 91.249 242.007 C 88.087 241.382, 82.800 240.003, 79.500 238.941 C 76.200 237.879, 71.250 236.375, 68.500 235.598 C 65.750 234.822, 61.475 233.413, 59 232.468 C 56.525 231.523, 53.600 230.632, 52.500 230.488 C 51.400 230.344, 45.472 228.341, 39.326 226.036 C 33.180 223.731, 27.455 221.743, 26.605 221.618 C 25.754 221.493, 24.745 221.078, 24.362 220.696 C 21.649 217.982, 13 223.158, 13 227.495 C 13 228.623, 7.767 241.011, 2.437 252.500 C 1.240 255.081, 1.042 237.742, 1.023 128.250 L 1 1 25 1 C 46.554 1, 49 1.167, 49 2.636 C 49 3.536, 52.551 10.849, 56.892 18.886 C 61.233 26.924, 66.872 37.775, 69.425 43 C 73.690 51.729, 79.058 62.015, 83.255 69.500 C 84.180 71.150, 85.637 74.075, 86.493 76 C 87.349 77.925, 89.641 82.425, 91.586 86 C 93.531 89.575, 98.310 98.473, 102.206 105.773 C 106.101 113.072, 109.434 118.899, 109.612 118.721 C 110.010 118.324, 72.556 43.942, 53.608 7.500 C 52.178 4.750, 51.006 1.938, 51.004 1.250 C 51.001 0.283, 45.231 0, 25.500 0 L 0 0 0 333.502 M 0.246 333.500 L -0 666.500 96.750 666.227 L 193.500 665.953 195.802 659.727 C 199.349 650.128, 202.096 643.719, 209.291 628.250 C 210.128 626.451, 212 625.079, 212 626.264 C 212 626.951, 208.063 636.992, 206.223 641 C 202.316 649.508, 200.898 653.021, 199.461 657.755 C 196.705 666.838, 192.584 666, 240 666 C 263.100 666, 282 665.610, 282 665.133 C 282 664.656, 283.902 663.007, 286.226 661.469 C 288.551 659.931, 296.988 652.217, 304.976 644.328 C 312.964 636.439, 326.127 623.575, 334.226 615.742 L 348.953 601.500 349.511 593 C 349.920 586.780, 350.586 583.829, 351.992 582 C 353.049 580.625, 355.617 577.087, 357.700 574.138 L 361.486 568.777 362.086 553.071 C 362.627 538.910, 362.948 536.794, 365.343 531.562 C 366.804 528.370, 368 524.899, 368 523.848 C 368 522.797, 368.788 521.647, 369.750 521.292 C 370.712 520.936, 371.831 520.163, 372.235 519.573 C 372.724 518.858, 372.974 518.928, 372.985 519.781 C 372.993 520.486, 372.312 521.327, 371.470 521.650 C 370.544 522.005, 370.163 522.938, 370.504 524.013 C 370.814 524.990, 369.883 528.424, 368.435 531.645 C 366.060 536.927, 365.738 539.118, 365.147 554.047 L 364.491 570.593 359.099 577.866 C 353.870 584.920, 353.684 585.396, 352.931 593.655 C 352.444 598.998, 351.582 602.791, 350.618 603.836 C 342.091 613.068, 325.045 629.657, 319.318 634.297 C 315.383 637.485, 310.024 642.660, 307.410 645.797 C 301.296 653.132, 295.713 658.925, 294.717 658.967 C 294.286 658.985, 292.358 660.575, 290.433 662.500 L 286.933 666 340.002 666 C 391.141 666, 393.035 665.933, 392.090 664.168 C 391.550 663.160, 390.427 661.769, 389.592 661.077 C 383.937 656.383, 381.163 634.112, 384.836 622.887 C 386.785 616.931, 386.876 615.219, 386.181 597.500 C 385.411 577.849, 385.842 569.758, 387.763 567.837 C 388.376 567.224, 391.043 566.162, 393.689 565.478 L 398.500 564.235 398.257 557.868 C 397.957 550.021, 395.450 533.188, 392.989 522.500 C 391.976 518.100, 390.874 512.700, 390.540 510.500 C 389.765 505.394, 387.239 493.097, 385.507 486 C 384.769 482.975, 383.840 478.286, 383.444 475.580 C 382.932 472.094, 381.888 469.846, 379.861 467.864 C 376.392 464.473, 376.388 464.066, 379.805 461.391 C 384.283 457.885, 386.353 457.683, 388.993 460.492 L 391.352 463.003 393.930 459.915 L 396.509 456.826 399.120 458.880 C 401.984 461.133, 403 460.783, 403 457.546 C 403 454.982, 406.070 454.481, 409.898 456.419 C 412.947 457.963, 425.856 459.376, 428.309 458.435 C 430.660 457.533, 430.432 455, 428 455 C 426.577 455, 426 454.333, 426 452.691 C 426 449.315, 423.859 446.806, 422 448.003 C 420.719 448.829, 420.755 448.972, 422.250 448.985 C 423.212 448.993, 424 449.450, 424 450 C 424 451.298, 421.392 451.280, 418.934 449.965 C 415.880 448.330, 416.527 446, 420.035 446 C 424.620 446, 422.290 442.627, 416.293 440.584 C 413.684 439.695, 410.638 437.833, 409.525 436.446 C 407.707 434.182, 406.732 433.910, 400 433.789 C 391.460 433.635, 390 432.918, 390 428.878 C 390 425.381, 387.347 424.999, 383.210 427.900 C 377.814 431.683, 375.364 431.481, 371.138 426.905 C 367.752 423.237, 367.066 422.894, 365.157 423.916 C 363.970 424.551, 363 425.854, 363 426.813 C 363 429.389, 360.147 433, 358.111 433 C 357.134 433, 354.889 431.201, 353.122 429.002 C 347.335 421.801, 339.840 419.963, 342.806 426.473 C 344.022 429.143, 343.212 429.812, 341.200 427.800 C 340.508 427.108, 340 427.030, 340 427.616 C 340 428.175, 341.800 429.643, 344 430.880 C 349.196 433.800, 349.058 434.090, 342.634 433.768 C 339.349 433.604, 337.425 433.087, 337.670 432.435 C 338.165 431.122, 321.880 428.923, 317.294 429.683 C 313.838 430.255, 313.049 429.782, 303.111 421.170 C 292.931 412.348, 259.493 382.723, 250.500 374.558 C 245.550 370.063, 239.252 364.612, 236.505 362.443 C 233.758 360.274, 225.658 353.311, 218.505 346.969 C 198.212 328.975, 197.568 328.536, 193.719 330.047 C 189.516 331.697, 185.355 334.086, 175 340.794 C 170.325 343.822, 164.700 347.463, 162.500 348.885 C 160.300 350.307, 156.209 353.164, 153.409 355.235 C 150.609 357.306, 148.004 359, 147.620 359 C 147.235 359, 142.776 362.321, 137.710 366.379 C 132.645 370.438, 125.068 376.401, 120.873 379.629 C 97.560 397.574, 74.550 418.706, 63.302 432.500 C 57.212 439.969, 57.362 437.568, 63.493 429.455 C 73.121 416.713, 100.166 391.886, 125.536 372.500 C 132.014 367.550, 138.053 362.825, 138.957 362 C 139.861 361.175, 143.278 358.710, 146.550 356.522 C 149.823 354.334, 154.554 350.847, 157.064 348.772 C 159.575 346.697, 161.976 345, 162.401 345 C 162.826 345, 165.047 343.705, 167.337 342.122 C 186.034 329.197, 194.671 324.567, 197.859 325.761 C 198.945 326.167, 206.509 332.404, 214.667 339.621 C 222.825 346.837, 232.379 355.162, 235.897 358.121 C 239.415 361.079, 246.323 367.100, 251.249 371.500 C 256.175 375.900, 264.140 382.875, 268.950 387 C 273.760 391.125, 282.152 398.620, 287.598 403.656 C 296.702 412.074, 302.423 416.938, 311.835 424.259 C 316.246 427.691, 317.525 426.663, 315.980 420.927 C 314.377 414.971, 307.109 405.120, 298.891 397.762 C 293.583 393.009, 291.870 390.798, 291.373 388.054 C 291.019 386.099, 289.952 382.925, 289.002 381 C 288.052 379.075, 286.959 375.035, 286.573 372.023 C 286.187 369.011, 285.378 364.704, 284.776 362.452 C 282.825 355.156, 287.761 347.629, 298.032 342.239 C 301.376 340.484, 306.517 336.234, 311.032 331.490 C 322.956 318.962, 328.744 313.761, 333.787 311.042 C 337.440 309.072, 339.175 307.230, 341.500 302.854 C 343.150 299.749, 345.263 296.366, 346.195 295.336 C 348.549 292.736, 351.952 284.979, 351.978 282.151 C 351.991 280.813, 350.716 278.603, 349.015 277.014 L 346.030 274.226 348.034 268.363 C 349.136 265.138, 350.655 261.150, 351.410 259.500 C 362.235 235.823, 364.730 225.555, 363.653 209.111 C 363.102 200.703, 363.250 198.892, 364.605 197.538 C 366.517 195.626, 365.812 189.919, 363.419 187.933 C 362.578 187.235, 361.441 185.727, 360.890 184.582 C 359.999 182.728, 360.039 182.683, 361.249 184.173 C 362.744 186.014, 379.529 186.571, 380.614 184.815 C 381.449 183.464, 380.031 176.424, 378.505 174.342 C 377.465 172.924, 375.835 172.500, 371.417 172.500 C 365.924 172.500, 365.639 172.373, 364.715 169.500 C 364.185 167.850, 362.682 165.350, 361.375 163.945 C 360.069 162.540, 359 160.870, 359 160.234 C 359 159.598, 357.200 158.592, 355 158 C 351.110 156.952, 349.483 155, 352.500 155 C 353.418 155, 354 154.066, 354 152.593 C 354 149.112, 359.484 137.412, 361.473 136.649 C 362.403 136.292, 364.439 136, 365.998 136 C 367.927 136, 369.489 135.121, 370.885 133.250 L 372.937 130.500 372.968 133.128 C 373.005 136.163, 370.712 138.487, 368.513 137.643 C 367.681 137.324, 367 137.457, 367 137.938 C 367 138.419, 366.158 138.593, 365.129 138.324 C 361.316 137.326, 356.235 153.305, 359.987 154.496 C 361.002 154.818, 362.285 156.377, 362.837 157.961 C 363.389 159.545, 364.735 161.735, 365.829 162.829 C 366.923 163.923, 367.980 165.647, 368.178 166.659 C 368.479 168.197, 369.315 168.444, 373.257 168.161 C 380.572 167.635, 384 171.513, 384 180.312 C 384 189.551, 382.270 191.503, 375.222 190.222 C 371.015 189.458, 370 189.538, 370 190.637 C 370 191.386, 370.627 192, 371.393 192 C 374.856 192, 373.351 199.161, 369.584 200.606 C 368.651 200.964, 368.238 204, 368.119 211.389 C 368.028 217.045, 367.486 223.209, 366.914 225.087 C 366.342 226.964, 365.493 230.750, 365.028 233.500 C 364.109 238.928, 362.156 244.684, 358.582 252.500 C 352.404 266.010, 351.755 267.887, 352.389 270.413 C 352.795 272.030, 352.623 273, 351.930 273 C 351.321 273, 351.987 274.385, 353.411 276.077 C 357.222 280.606, 356.475 285.830, 350.771 294.535 C 348.982 297.266, 346.137 301.975, 344.448 305 C 342.760 308.025, 339.831 311.499, 337.939 312.719 C 332.371 316.312, 328.317 319.866, 316.642 331.389 C 309.811 338.132, 303.684 343.229, 300.555 344.774 C 291.741 349.125, 286.928 356.050, 288.975 361.433 C 289.539 362.917, 290 366.533, 290 369.471 C 290 372.810, 290.737 376.252, 291.966 378.655 C 293.047 380.770, 294.407 384.385, 294.988 386.690 C 295.728 389.622, 296.713 391.088, 298.272 391.575 C 300.673 392.326, 304.454 396.402, 312.795 407.233 C 321.862 419.006, 327.095 422.671, 331.191 420.113 C 338.463 415.572, 348.371 417.504, 354.323 424.623 C 357.373 428.272, 359 428.907, 359 426.450 C 359 417.618, 368.644 416.845, 374.781 425.186 C 376.234 427.161, 379.127 426.470, 384.035 422.975 C 385.561 421.889, 387.448 421, 388.230 421 C 390.091 421, 393.702 424.957, 394.162 427.500 C 394.480 429.263, 395.412 429.529, 402.012 429.746 C 408.762 429.967, 409.736 430.261, 411.896 432.722 C 413.214 434.223, 416.139 436.268, 418.396 437.267 C 420.653 438.265, 424.587 441.426, 427.137 444.291 L 431.774 449.500 435.137 448.131 C 445.639 443.857, 458.074 440.752, 465.500 440.549 C 472.315 440.362, 488.825 441.540, 493.861 442.571 C 496.235 443.057, 497.478 442.854, 498.095 441.880 C 498.587 441.104, 498.976 344.361, 498.985 220.750 L 499 1 367.177 1 L 235.355 1 233.205 5.304 C 229.209 13.305, 218.857 37.463, 217.052 43 C 216.066 46.025, 213.598 52.325, 211.567 57 C 209.537 61.675, 206.765 68.200, 205.408 71.500 C 204.052 74.800, 202.280 78.774, 201.471 80.331 C 200.662 81.888, 200 83.613, 200 84.163 C 200 85.247, 194.594 98.297, 192.861 101.395 C 192.279 102.437, 191.021 105.587, 190.066 108.395 C 189.112 111.203, 186.698 117.550, 184.703 122.500 C 182.708 127.450, 177.867 139.825, 173.945 150 C 170.024 160.175, 166 170.300, 165.004 172.500 C 162.668 177.656, 154.600 198.397, 153.064 203.196 C 152.413 205.229, 150.624 209.504, 149.089 212.696 C 147.554 215.888, 145.292 221.641, 144.061 225.481 C 142.831 229.320, 140.349 235.845, 138.545 239.981 C 132.203 254.526, 132.273 256.715, 139.140 258.353 C 140.592 258.699, 142.059 259.712, 142.401 260.603 C 142.877 261.844, 142.611 262.058, 141.261 261.518 C 140.293 261.131, 137.025 260.163, 134 259.367 C 130.975 258.571, 125.186 256.813, 121.136 255.460 C 117.086 254.107, 112.905 253, 111.845 253 C 110.784 253, 107.094 251.680, 103.645 250.068 C 100.195 248.455, 93.126 245.965, 87.936 244.534 C 77.140 241.559, 68.330 238.794, 59 235.451 C 55.425 234.171, 51.150 232.844, 49.500 232.504 C 46.558 231.896, 36.427 228.171, 30.500 225.516 C 28.850 224.778, 25.378 223.860, 22.785 223.478 C 17.373 222.681, 18.638 220.961, 10.634 240 C 8.206 245.775, 5.058 252.750, 3.638 255.500 L 1.056 260.500 0.774 130.500 C 0.619 59, 0.382 150.350, 0.246 333.500 M 325.238 122.935 C 324.543 124.824, 323.337 127.075, 322.557 127.937 C 321.777 128.799, 320.400 130.853, 319.498 132.502 L 317.858 135.500 318.220 131.820 C 318.452 129.459, 318.209 128.361, 317.541 128.756 C 313.967 130.870, 311 133.561, 311 134.688 C 311 136.754, 308.424 136.228, 305.182 133.500 C 303.505 132.089, 300.946 131, 299.306 131 C 297.708 131, 295.922 130.522, 295.337 129.937 C 293.891 128.491, 287.697 128.408, 287.224 129.829 C 286.015 133.454, 283.211 135.193, 277.474 135.877 C 267.425 137.075, 261.122 142.190, 236.800 168.886 C 231.276 174.949, 228.211 180.542, 224.407 191.500 C 222.879 195.900, 220.588 201.067, 219.315 202.982 C 218.042 204.897, 217 206.980, 217 207.610 C 217 210.052, 214.508 210.901, 210.189 209.931 C 202.571 208.220, 196.872 213.550, 195.481 223.687 C 195.117 226.334, 193.961 230.879, 192.910 233.788 C 190.617 240.135, 190.452 247.752, 192.500 252.654 C 193.325 254.629, 194 257.110, 194 258.168 C 194 259.225, 195.041 261.132, 196.313 262.404 C 197.935 264.026, 198.404 265.281, 197.883 266.608 C 197.475 267.649, 197.109 273.903, 197.070 280.507 C 196.996 293.117, 196.680 294.821, 192.620 304.500 C 190.563 309.403, 189.591 310.604, 187.302 311.074 C 183.371 311.879, 180.112 313.759, 172.894 319.383 L 166.627 324.267 158.276 323.024 C 153.683 322.341, 149.379 321.243, 148.712 320.584 C 146.844 318.737, 133.809 318.200, 122.500 319.503 C 113.393 320.553, 110.164 320.415, 107.500 318.860 C 106.950 318.539, 105.244 317.976, 103.709 317.609 C 102.174 317.242, 101.195 316.493, 101.533 315.946 C 101.872 315.398, 101.778 315.035, 101.324 315.139 C 99.850 315.476, 91 311.101, 91 310.036 C 91 309.466, 90.316 309, 89.480 309 C 88.644 309, 86.178 307.875, 84 306.500 C 81.822 305.125, 79.650 304, 79.174 304 C 78.697 304, 76.776 303.224, 74.904 302.275 C 72.252 300.932, 69.400 300.609, 62 300.813 C 49.618 301.154, 47.464 301.642, 45.568 304.537 C 44.534 306.115, 42.009 307.523, 38.259 308.613 C 35.108 309.529, 30.049 311.626, 27.015 313.272 C 17.444 318.467, 10.285 322, 9.329 322 C 8.821 322, 6.709 323.738, 4.634 325.862 C 1.353 329.223, 0.910 330.230, 1.224 333.612 C 1.538 336.990, 1.711 337.226, 2.543 335.412 C 3.916 332.416, 8.804 326.854, 10.261 326.628 C 10.943 326.522, 15.550 324.186, 20.500 321.437 C 32.113 314.987, 37.741 312.354, 41.665 311.537 C 43.406 311.175, 46.190 309.579, 47.851 307.992 C 50.757 305.215, 51.140 305.128, 57.974 305.701 C 63.018 306.124, 65.810 305.904, 67.604 304.944 C 69.160 304.112, 70.393 303.961, 70.815 304.552 C 71.192 305.079, 73.300 306.116, 75.500 306.856 C 77.700 307.595, 82.650 310.055, 86.500 312.321 C 107.489 324.675, 111.350 325.689, 127.500 323.085 C 135.024 321.872, 136.239 321.950, 147.903 324.402 C 154.725 325.836, 160.894 327.497, 161.612 328.093 C 163.872 329.968, 168.264 328.121, 175.500 322.251 C 179.591 318.932, 184.578 315.906, 187.500 314.969 C 192.087 313.498, 192.728 312.893, 195.256 307.649 C 196.772 304.505, 198.645 301.690, 199.418 301.393 C 200.535 300.965, 200.850 297.661, 200.949 285.335 C 201.038 274.248, 201.505 268.628, 202.586 265.658 C 206.166 255.818, 208.972 245.487, 208.483 243.946 C 208.193 243.031, 208.640 241.714, 209.477 241.019 C 210.315 240.324, 211 239.167, 211 238.449 C 211 237.731, 211.562 236.548, 212.250 235.821 C 214.002 233.970, 214.083 228, 212.356 228 C 211.532 228, 211 229.117, 211 230.850 C 211 232.417, 209.680 235.522, 208.066 237.750 C 206.453 239.977, 205.400 242.067, 205.727 242.394 C 206.488 243.154, 203.931 253.924, 202.829 254.606 C 202.373 254.887, 202 255.965, 202 257 C 202 259.390, 200.166 260.566, 198.709 259.109 C 197.518 257.918, 195.327 250.768, 194.387 245 C 193.988 242.558, 194.599 239.423, 196.408 234.631 C 197.834 230.853, 199 226.120, 199 224.113 C 199 221.831, 199.974 219.031, 201.601 216.637 C 204.080 212.989, 204.397 212.838, 208.351 213.420 C 217.783 214.809, 217.221 215.049, 220.740 208.114 C 222.523 204.602, 225.072 199.776, 226.405 197.391 C 227.738 195.005, 229.109 191.779, 229.451 190.221 C 229.794 188.663, 230.916 186.781, 231.946 186.039 C 232.976 185.297, 233.599 184.119, 233.331 183.421 C 233.064 182.724, 233.780 181.653, 234.922 181.042 C 236.065 180.430, 237 179.045, 237 177.965 C 237 176.884, 237.395 176, 237.879 176 C 238.362 176, 239.351 174.566, 240.077 172.813 C 242.637 166.633, 260.549 147.289, 266.500 144.277 C 268.150 143.442, 270.247 142.105, 271.161 141.305 C 272.074 140.505, 274.842 139.715, 277.311 139.549 C 279.780 139.382, 283.308 138.471, 285.150 137.525 C 289.917 135.076, 300.302 135.405, 304.737 138.147 C 306.968 139.525, 309.141 140.059, 311.257 139.749 C 313.565 139.410, 315.697 140.063, 319.076 142.142 C 321.631 143.714, 324.461 145, 325.364 145 C 327.343 145, 333.694 148.300, 335.328 150.178 C 335.973 150.918, 336.403 151.347, 336.285 151.130 C 336.167 150.914, 336.520 149.896, 337.070 148.869 C 338.151 146.849, 340 146.338, 340 148.059 C 340 148.641, 339.502 148.810, 338.893 148.434 C 338.138 147.967, 338.005 148.505, 338.477 150.125 C 339.116 152.322, 346.604 159.902, 348.203 159.970 C 349.081 160.007, 350.987 153.305, 350.994 150.156 C 350.998 148.685, 351.718 147.625, 352.931 147.308 C 356.003 146.504, 356.055 144.491, 353.096 140.946 C 349.839 137.044, 347.265 137.427, 346.360 141.948 C 345.856 144.469, 345.474 144.789, 343.946 143.971 C 342.948 143.437, 340.066 143, 337.541 143 C 333.268 143, 332.910 142.798, 332.366 140.081 C 331.950 138, 331.026 136.972, 329.147 136.501 C 325.498 135.585, 323.760 133.994, 324.903 132.617 C 325.413 132.003, 325.925 131.050, 326.042 130.500 C 326.159 129.950, 326.452 128.985, 326.694 128.355 C 326.936 127.726, 326.991 125.476, 326.817 123.355 L 326.500 119.500 325.238 122.935 M 456.382 445.537 C 451.916 446.234, 445.166 448.179, 441.382 449.860 C 434.911 452.732, 434.509 453.101, 434.655 456.023 C 434.740 457.733, 435.449 459.890, 436.230 460.816 C 439.536 464.735, 437.135 469.213, 432.934 466.965 C 430.765 465.804, 424 465.985, 424 467.204 C 424 467.642, 424.750 468, 425.667 468 C 426.583 468, 427.002 468.332, 426.596 468.737 C 426.191 469.143, 425.119 469.480, 424.215 469.487 C 423.310 469.494, 421.595 471.235, 420.404 473.356 C 418.980 475.890, 418.039 476.747, 417.658 475.856 C 417.340 475.110, 417.322 475.683, 417.618 477.129 C 417.968 478.840, 417.251 481.544, 415.566 484.870 C 414.141 487.682, 412.312 492.841, 411.502 496.334 C 410.692 499.828, 409.393 504.219, 408.615 506.093 C 407.838 507.967, 406.452 512.650, 405.537 516.500 C 404.621 520.350, 403.477 524.400, 402.994 525.500 C 402.511 526.600, 401.829 528.966, 401.477 530.759 C 401.093 532.712, 400.408 533.752, 399.766 533.356 C 398.767 532.738, 398.917 535.021, 400.369 542.500 C 400.583 543.600, 401.077 549.284, 401.467 555.132 C 402.251 566.885, 401.260 569, 394.969 569 C 388.737 569, 388.644 569.406, 389.259 594.096 C 389.800 615.869, 389.747 616.714, 387.381 624.103 C 383.665 635.704, 385.772 650.678, 392.355 659.446 C 393.616 661.126, 394.937 663.288, 395.292 664.250 C 395.895 665.886, 399.303 666, 447.469 666 L 499 666 499 556.545 L 499 447.091 495.250 446.493 C 493.188 446.164, 489.613 445.468, 487.307 444.947 C 481.704 443.681, 466.402 443.973, 456.382 445.537 M 408.250 462.714 C 407.012 462.948, 406 463.558, 406 464.070 C 406 464.581, 404.425 465, 402.500 465 C 400.575 465, 399 465.498, 399 466.107 C 399 466.723, 398.271 466.934, 397.355 466.583 C 395.052 465.699, 391.817 468.849, 392.576 471.238 C 393.013 472.615, 392.603 473.291, 391.090 473.687 C 388.410 474.387, 388.447 476.013, 391.223 479.615 C 392.446 481.202, 392.711 481.916, 391.812 481.201 C 389.611 479.452, 388.900 480.947, 389.965 485.085 C 390.448 486.963, 391.371 492.100, 392.015 496.500 C 394.401 512.807, 397.275 519.676, 400.568 516.944 C 401.245 516.381, 403.242 511.327, 405.004 505.711 C 406.766 500.095, 408.876 493.475, 409.692 491 C 410.509 488.525, 411.984 483.575, 412.972 480 C 413.959 476.425, 415.303 472.150, 415.958 470.500 C 418.559 463.952, 418.201 462.322, 414.157 462.305 C 412.146 462.297, 409.488 462.481, 408.250 462.714 M 303.945 466.784 C 299.582 468.890, 294.504 472.838, 295.228 473.561 C 295.521 473.854, 297.744 472.755, 300.168 471.119 C 307.607 466.099, 309.266 466.122, 312.758 471.297 C 316.804 477.292, 324.500 493.360, 326.708 500.424 C 328.126 504.959, 329.492 506.994, 333.250 510.171 C 335.863 512.379, 338 514.671, 338 515.264 C 338 517.127, 341.125 519.889, 342.594 519.326 C 343.367 519.029, 344 518.358, 344 517.834 C 344 517.310, 343.618 517.118, 343.151 517.407 C 342.684 517.696, 341.679 516.768, 340.917 515.345 C 340.156 513.923, 337.573 511.034, 335.178 508.925 C 331.593 505.770, 330.050 503.169, 326.461 494.230 C 319.860 477.790, 312.274 464.972, 309.182 465.034 C 308.257 465.053, 305.900 465.840, 303.945 466.784 M 3 475.660 C 3 476.701, 8.205 482, 9.228 482 C 12.302 482, 29.949 497.711, 37.309 507 C 44.430 515.987, 45.855 516.867, 42.514 510.214 C 38.883 502.986, 15.245 481, 11.105 481 C 10.668 481, 9.458 480.058, 8.416 478.907 C 6.258 476.522, 3 474.569, 3 475.660 M 315 504 C 315 504.550, 313.942 505, 312.649 505 C 311.356 505, 308.994 505.429, 307.399 505.953 C 305.805 506.477, 303.150 507.100, 301.500 507.337 C 293.349 508.506, 289.658 510.239, 285.024 515.072 C 282.425 517.783, 279.955 520, 279.534 520 C 279.113 520, 276.622 521.575, 274 523.500 C 271.378 525.425, 268.956 527, 268.618 527 C 265.027 527, 248.807 542.276, 246.321 548 C 245.485 549.925, 244.101 552.288, 243.245 553.250 C 241.820 554.854, 241.863 555, 243.762 555 C 245.299 555, 246.282 553.829, 247.565 550.468 C 249.533 545.316, 258.434 535.833, 264.900 532 C 267.220 530.625, 270.554 528.498, 272.309 527.274 C 274.064 526.050, 277.375 524.066, 279.666 522.866 C 281.957 521.665, 284.416 519.592, 285.130 518.257 C 287.331 514.144, 291.794 511.817, 302.189 509.360 C 307.682 508.062, 312.988 507, 313.981 507 C 314.974 507, 316.059 506.288, 316.393 505.418 C 317.212 503.284, 317.166 503, 316 503 C 315.450 503, 315 503.450, 315 504 M 1 505.410 C 1 506.262, 3.869 507.815, 8.250 509.335 C 16.495 512.196, 27.696 516.800, 33.538 519.730 C 35.717 520.822, 38.845 522.041, 40.489 522.437 C 42.994 523.041, 53.991 529.153, 71 539.393 C 73.868 541.120, 76.756 541.607, 87 542.093 C 93.875 542.420, 100.400 542.958, 101.500 543.289 C 102.600 543.620, 106.425 544.763, 110 545.827 C 125.592 550.472, 130.979 552.631, 139.317 557.582 C 144.191 560.476, 150.501 563.361, 153.339 563.993 C 156.178 564.626, 159.400 565.533, 160.500 566.010 C 161.600 566.486, 165.200 567.595, 168.500 568.473 C 171.800 569.350, 176.075 570.715, 178 571.506 C 201.365 581.100, 242.073 578.004, 241.983 566.639 C 241.969 564.796, 241.681 564.945, 239.904 567.719 C 238.404 570.062, 236.842 571.108, 234.171 571.561 C 232.152 571.903, 228.925 572.589, 227 573.086 C 216.948 575.679, 193.922 573.787, 181.500 569.347 C 174.941 567.003, 171.788 566.039, 154.815 561.197 C 151.138 560.148, 144.388 557.062, 139.815 554.339 C 130.350 548.704, 129.359 548.292, 115 544.047 C 109.225 542.340, 102.995 540.462, 101.157 539.873 C 99.318 539.285, 93.298 538.814, 87.779 538.827 L 77.744 538.850 68.191 533.838 C 62.936 531.081, 57.214 527.739, 55.474 526.413 C 53.735 525.086, 51.992 524, 51.603 524 C 51.213 524, 49.238 522.875, 47.215 521.500 C 45.191 520.125, 42.696 519, 41.669 519 C 40.642 519, 38.384 518.342, 36.651 517.537 C 26.673 512.903, 3.582 504.079, 1.250 504.008 C 1.113 504.003, 1 504.634, 1 505.410" stroke="none" fill="black" fill-rule="evenodd"/>
</svg>