<?xml version="1.0" standalone="no"?>
<!DOCTYPE svg PUBLIC "-//W3C//DTD SVG 20010904//EN"
 "http://www.w3.org/TR/2001/REC-SVG-20010904/DTD/svg10.dtd">
<svg version="1.0" xmlns="http://www.w3.org/2000/svg"
 width="355.000000pt" height="394.000000pt" viewBox="0 0 355.000000 394.000000"
 preserveAspectRatio="xMidYMid meet">

<g transform="translate(0.000000,394.000000) scale(0.100000,-0.100000)"
fill="#000000" stroke="none">
<path d="M1740 3806 c0 -12 -5 -16 -16 -12 -23 9 -64 -4 -64 -20 0 -10 -7 -13
-23 -9 -15 4 -28 1 -36 -9 -8 -9 -22 -16 -33 -16 -21 0 -48 -22 -48 -39 0 -22
-20 -10 -21 12 -1 17 -2 18 -6 4 -2 -9 -8 -15 -12 -12 -5 2 -16 -6 -26 -19
-12 -16 -24 -21 -41 -18 -21 4 -24 1 -24 -29 l-1 -34 -15 28 c-18 33 -33 28
-26 -9 4 -22 2 -26 -12 -21 -9 4 -16 2 -16 -3 0 -6 -5 -9 -12 -8 -7 2 -17 -11
-23 -27 -7 -21 -15 -29 -27 -27 -13 2 -18 -3 -18 -17 0 -11 -11 -32 -25 -47
-14 -15 -25 -37 -25 -49 0 -12 -9 -42 -19 -66 -15 -34 -21 -79 -26 -203 -8
-188 -9 -189 -23 -194 -7 -2 -12 -10 -12 -18 0 -9 -5 -12 -10 -9 -6 4 -26 1
-45 -5 -40 -13 -61 -61 -52 -117 3 -19 1 -43 -5 -53 -18 -28 23 -97 98 -165
36 -33 72 -72 80 -87 12 -22 22 -28 48 -28 19 0 36 6 39 13 2 6 7 -17 11 -53
4 -36 16 -90 27 -120 20 -56 18 -64 -20 -82 -3 -2 -16 -15 -29 -29 -16 -18
-25 -46 -32 -104 -13 -103 -17 -115 -42 -115 -11 0 -45 -22 -76 -50 -31 -27
-63 -50 -71 -50 -8 0 -26 -11 -40 -24 -15 -13 -73 -45 -131 -72 -58 -27 -107
-51 -110 -54 -13 -15 -111 -59 -165 -75 -51 -14 -95 -42 -95 -59 0 -6 -89
-104 -137 -152 -30 -30 -33 -38 -33 -97 0 -73 11 -88 96 -130 27 -14 56 -33
64 -42 8 -9 37 -28 64 -42 28 -14 53 -29 56 -32 3 -4 21 -13 40 -21 19 -7 76
-37 125 -65 50 -29 111 -64 138 -79 33 -19 56 -42 77 -79 16 -29 30 -59 30
-67 0 -8 21 -49 45 -90 25 -41 51 -87 57 -101 7 -15 30 -39 52 -54 23 -15 64
-59 91 -97 41 -58 63 -77 123 -110 41 -23 86 -51 102 -64 33 -28 55 -31 46 -8
-6 15 5 16 111 11 72 -4 142 -13 178 -25 63 -19 228 -103 253 -128 7 -8 31
-14 52 -14 29 0 47 -7 68 -27 15 -16 55 -42 89 -59 76 -39 129 -35 182 14 18
18 37 32 42 32 4 0 15 15 24 33 37 77 144 152 253 177 32 7 68 25 92 45 22 18
43 35 47 37 22 9 54 59 58 88 2 18 13 39 25 47 11 8 29 32 40 53 25 49 27 166
5 290 -19 109 -19 235 0 327 8 40 16 133 18 205 2 122 0 136 -20 171 -13 21
-23 44 -23 50 0 7 -15 29 -33 49 -26 31 -45 41 -97 54 -36 9 -78 23 -93 31
-15 8 -74 30 -130 49 -56 20 -116 44 -133 55 -18 11 -58 28 -90 39 -61 22
-124 59 -124 74 0 5 -7 17 -16 27 -14 16 -14 20 1 42 9 14 20 47 25 73 21 114
32 146 91 279 62 141 88 227 89 299 0 22 6 47 14 55 19 23 33 71 31 106 -2 17
4 51 13 77 12 38 13 52 4 73 -16 34 -15 45 3 45 8 0 15 5 15 10 0 6 -11 10
-24 10 -13 0 -26 7 -29 14 -3 8 -21 23 -38 32 -44 22 -59 39 -59 64 0 46 -33
161 -62 216 -16 33 -32 70 -33 84 -8 60 -20 87 -51 118 -18 17 -40 32 -47 32
-8 0 -17 7 -21 15 -3 8 -17 15 -31 15 -24 0 -26 3 -23 33 3 32 3 32 -42 32
-32 0 -50 6 -63 19 -9 11 -20 16 -24 13 -3 -4 -13 -1 -22 7 -9 7 -29 18 -46
24 -16 5 -39 13 -49 18 -16 6 -18 4 -13 -9 3 -9 3 -17 -2 -17 -5 0 -11 9 -14
20 -5 21 -27 28 -27 10 0 -7 -16 -9 -40 -6 -29 3 -42 0 -48 -11 -7 -11 -12 -7
-25 19 -11 22 -17 27 -17 14z m5 -107 c11 -17 -1 -21 -15 -4 -8 9 -8 15 -2 15
6 0 14 -5 17 -11z m125 7 c0 -3 -4 -8 -10 -11 -5 -3 -10 -1 -10 4 0 6 5 11 10
11 6 0 10 -2 10 -4z m88 -14 c2 -7 -2 -10 -12 -6 -9 3 -16 11 -16 16 0 13 23
5 28 -10z m-70 -17 c-10 -23 -28 -34 -28 -18 0 7 31 43 36 43 2 0 -2 -11 -8
-25z m48 -33 c-18 -16 -18 -16 -6 6 6 13 14 21 18 18 3 -4 -2 -14 -12 -24z
m-238 -23 c2 -23 2 -23 -13 -5 -18 24 -20 39 -2 34 6 -3 13 -15 15 -29z m422
3 c0 -5 -11 -14 -25 -20 -27 -12 -28 -12 -19 12 6 16 44 23 44 8z m-620 -49
c-11 -17 -11 -17 -6 0 3 10 6 24 7 30 0 9 2 9 5 0 3 -7 0 -20 -6 -30z m650 18
c0 -6 -9 -9 -19 -8 -11 0 -17 5 -15 9 7 11 34 10 34 -1z m-741 -66 c-3 -64 4
-75 30 -51 15 13 20 14 23 4 4 -9 9 -10 19 -2 8 6 59 9 122 8 94 -1 106 0 95
14 -11 13 -8 14 22 7 19 -4 50 -14 69 -21 18 -8 63 -14 99 -14 53 0 70 4 88
21 23 22 81 32 87 16 1 -5 22 0 45 12 36 18 43 19 48 7 7 -19 73 -58 85 -50
24 15 68 -8 84 -44 10 -20 27 -57 40 -82 20 -42 36 -97 49 -177 5 -29 3 -33
-17 -33 -12 0 -39 5 -61 9 -26 6 -63 5 -112 -3 -61 -11 -79 -19 -104 -44 -17
-18 -30 -43 -30 -56 0 -14 -4 -28 -10 -31 -11 -7 -14 -74 -4 -99 12 -32 22
-14 26 49 2 39 10 71 18 80 21 20 124 45 187 45 28 0 55 5 58 10 8 13 42 13
50 0 4 -6 8 -28 10 -49 1 -21 6 -44 10 -50 11 -19 44 -165 39 -173 -3 -5 -11
-8 -19 -8 -8 0 -22 -9 -32 -19 -11 -12 -38 -21 -73 -25 -74 -9 -191 28 -225
70 -13 16 -26 26 -29 23 -10 -9 11 -58 50 -116 56 -85 66 -114 48 -148 -8 -15
-12 -30 -10 -33 10 -10 37 9 46 32 12 32 -1 74 -40 131 -18 26 -30 48 -28 50
2 2 32 -5 67 -15 82 -26 176 -22 219 8 16 12 33 22 37 22 6 0 0 -111 -11 -200
-3 -25 -12 -58 -19 -75 -57 -132 -110 -255 -120 -283 -6 -18 -17 -38 -23 -44
-7 -7 -12 -16 -12 -20 0 -4 -15 -31 -34 -60 -32 -51 -83 -98 -106 -98 -5 0
-10 -6 -10 -14 0 -14 -57 -28 -62 -15 -4 11 -92 -13 -101 -29 -5 -7 -12 -10
-18 -7 -5 4 -9 0 -9 -7 -1 -8 -6 -7 -14 5 -13 17 -15 17 -24 1 -9 -15 -12 -14
-26 14 -13 25 -21 30 -43 28 -30 -4 -82 20 -97 43 -7 11 -10 11 -16 0 -6 -9
-12 -6 -21 14 -8 18 -20 27 -36 27 -18 0 -25 7 -29 30 -8 38 -24 39 -25 3 l-2
-28 -4 28 c-4 24 -33 40 -33 17 0 -13 -85 71 -93 93 -3 9 -11 17 -17 17 -6 0
-23 12 -38 26 -15 14 -38 32 -52 40 -24 15 -50 72 -50 110 0 9 -9 23 -20 32
-16 14 -19 32 -22 116 -2 62 -7 100 -14 103 -7 2 -15 29 -19 59 -3 30 -10 54
-15 54 -4 0 -14 24 -20 53 -13 55 -27 80 -40 72 -8 -5 -22 36 -15 43 2 3 56 1
120 -3 85 -5 115 -10 115 -20 0 -21 83 -175 94 -175 5 0 21 -11 35 -24 20 -18
39 -25 81 -27 132 -6 143 -3 214 54 74 60 96 100 96 181 l0 53 40 7 c22 3 52
3 65 0 15 -4 25 -2 25 5 0 12 -26 15 -103 12 -36 -1 -57 5 -85 24 -20 14 -41
25 -47 25 -6 0 -28 15 -48 34 -43 39 -89 52 -111 31 -17 -17 -46 -20 -46 -5 0
6 -9 10 -20 10 -11 0 -20 -4 -20 -10 0 -5 -17 -10 -38 -10 -25 0 -43 -7 -55
-20 -9 -11 -24 -20 -32 -20 -8 0 -15 -5 -15 -10 0 -6 17 -8 43 -4 l42 6 -30
-17 c-42 -23 -66 -46 -76 -73 -6 -16 -15 -22 -27 -18 -9 2 -65 8 -124 12 -60
3 -108 10 -108 15 0 4 16 20 35 35 19 14 35 32 35 39 0 6 9 20 20 30 17 16 21
30 19 79 -3 99 0 114 28 141 15 14 24 25 20 25 -4 0 -9 -1 -10 -2 -2 -2 -11 3
-20 11 -20 16 -13 31 14 31 10 0 19 5 19 10 0 6 7 10 16 10 10 0 14 5 10 15
-4 11 3 19 19 25 20 7 25 17 25 42 0 40 11 108 17 108 2 0 3 -25 2 -55z m-49
-7 c0 -18 -2 -20 -9 -8 -6 8 -7 18 -5 22 9 14 14 9 14 -14z m-106 -197 c3 -5
-1 -12 -10 -15 -22 -9 -24 -8 -24 9 0 16 25 21 34 6z m-51 -73 c-21 -23 -29
-23 -29 1 0 13 7 18 22 17 21 -1 21 -2 7 -18z m47 -71 c0 -2 -10 -12 -22 -23
l-23 -19 19 23 c18 21 26 27 26 19z m-73 -74 c-3 -10 -5 -2 -5 17 0 19 2 27 5
18 2 -10 2 -26 0 -35z m1320 -34 c41 -25 39 -30 -9 -23 -24 4 -38 13 -41 25
-7 25 8 24 50 -2z m-1314 -24 c-3 -9 -8 -14 -10 -11 -3 3 -2 9 2 15 9 16 15
13 8 -4z m650 -11 c23 -11 37 -25 37 -36 0 -10 6 -18 14 -18 27 0 31 -81 8
-134 -12 -25 -25 -46 -29 -46 -4 0 -28 -18 -53 -40 -35 -31 -55 -40 -98 -46
-69 -8 -144 15 -193 59 -35 32 -79 125 -79 167 0 38 52 84 130 114 32 13 225
-2 263 -20z m691 -20 c23 -9 20 -34 -4 -34 -11 0 -23 -7 -26 -15 -9 -23 -24
-7 -24 26 0 30 17 37 54 23z m6 -125 c-15 -35 -23 -36 -38 -5 -9 21 -7 29 16
54 l27 30 3 -25 c2 -14 -2 -38 -8 -54z m-1381 -1 c11 -12 26 -37 32 -57 6 -20
19 -45 29 -56 10 -11 21 -40 25 -65 4 -25 14 -58 22 -73 19 -38 14 -101 -9
-105 -13 -2 -18 3 -18 18 0 17 -5 20 -35 18 -29 -2 -42 5 -82 45 -26 26 -50
47 -54 47 -12 0 -20 51 -10 64 7 9 4 23 -9 49 -24 44 -25 60 -5 77 21 18 79
-4 93 -35 10 -21 8 -29 -9 -46 -24 -24 -22 -62 4 -67 13 -3 17 3 17 27 0 41
18 40 22 -1 5 -49 25 -46 26 4 0 84 -67 169 -119 153 -11 -4 -19 -2 -19 4 0 5
8 12 18 14 38 10 62 6 81 -15z m1389 -80 c-4 -39 -24 -49 -22 -11 1 39 3 43
15 43 6 0 9 -14 7 -32z m-1331 -280 c-3 -8 -6 -5 -6 6 -1 11 2 17 5 13 3 -3 4
-12 1 -19z m183 -293 c12 -13 40 -36 61 -51 22 -15 39 -33 39 -40 0 -8 4 -14
9 -14 5 0 19 -16 32 -35 13 -19 30 -35 37 -35 7 0 20 -9 29 -20 10 -11 23 -20
29 -20 7 0 15 -7 18 -16 4 -11 14 -14 34 -9 19 4 36 0 53 -12 37 -28 90 -51
131 -58 21 -3 41 -12 45 -19 11 -17 81 -28 90 -14 4 8 9 5 14 -8 7 -19 7 -19
15 1 10 23 44 30 44 9 0 -22 18 -17 25 7 5 15 10 18 18 10 6 -6 21 -11 34 -11
27 0 29 -8 8 -37 -8 -12 -29 -57 -45 -100 -17 -43 -35 -86 -40 -95 -6 -10 -10
-46 -10 -80 l-1 -63 -24 30 c-14 17 -39 47 -56 68 -17 20 -36 37 -42 37 -5 0
-25 11 -43 25 -18 14 -39 22 -47 19 -16 -6 -50 11 -157 77 -36 22 -75 44 -87
49 -12 5 -64 44 -115 88 -52 43 -101 81 -110 85 -10 3 -19 22 -22 49 -7 51 -3
208 5 208 3 0 16 -11 29 -25z m-68 -67 c0 -24 0 -66 -1 -94 -3 -50 -2 -52 51
-96 101 -86 213 -166 275 -197 34 -17 64 -35 68 -41 9 -14 100 -60 120 -60 21
0 19 -6 -20 -80 -66 -125 -84 -165 -101 -223 -17 -64 -21 -65 -81 -24 -18 12
-33 29 -33 38 0 9 -11 21 -24 27 -32 14 -55 34 -133 114 -72 74 -145 185 -189
288 -19 45 -36 71 -48 74 -11 3 -22 3 -25 0 -7 -6 50 -125 71 -150 10 -11 18
-25 18 -32 0 -6 8 -16 18 -21 10 -5 28 -31 42 -58 40 -80 368 -382 403 -370 6
2 16 28 23 58 22 101 109 319 127 319 19 0 118 -114 124 -142 3 -16 11 -28 18
-28 23 0 34 -113 33 -359 0 -142 4 -246 9 -250 18 -11 26 -65 26 -176 0 -88 1
-94 4 -30 2 43 8 84 12 90 4 5 2 44 -6 85 -16 88 -23 317 -14 445 l6 89 43 29
c33 23 45 38 54 73 7 24 15 44 18 44 7 0 53 -58 75 -98 11 -18 26 -31 35 -30
16 3 27 58 12 58 -6 0 -8 -10 -5 -22 4 -22 3 -21 -21 5 -14 15 -26 37 -26 48
0 11 -9 32 -20 48 -13 16 -25 55 -31 95 -11 81 -16 91 -36 75 -11 -10 -13 -26
-7 -76 7 -73 -10 -152 -35 -160 -9 -3 -26 -15 -38 -26 -13 -11 -26 -18 -29
-14 -3 3 3 41 14 84 11 43 23 98 26 122 8 50 40 159 62 209 8 18 14 44 14 58
0 25 43 74 65 74 8 0 12 -35 13 -117 1 -65 7 -143 13 -173 7 -30 17 -93 24
-140 l13 -85 1 95 c0 52 -6 122 -14 155 -16 67 -19 173 -6 194 7 11 27 7 107
-24 55 -21 119 -49 144 -62 24 -14 112 -47 195 -75 82 -27 165 -61 183 -74 37
-28 112 -170 114 -212 1 -36 -31 -292 -37 -303 -13 -19 -4 -204 14 -329 16
-107 18 -143 10 -175 -14 -51 -38 -98 -55 -108 -17 -10 -54 -80 -54 -101 0
-23 -107 -104 -153 -116 -122 -31 -184 -70 -249 -157 -24 -32 -50 -62 -58 -67
-8 -5 -28 -23 -44 -39 -27 -26 -33 -28 -79 -22 -37 6 -59 15 -81 37 -27 28
-29 36 -31 107 -1 64 -5 85 -28 123 -15 26 -27 54 -27 63 0 9 -5 13 -10 10 -7
-4 1 -27 20 -60 27 -47 31 -62 28 -117 -3 -70 4 -65 -83 -49 -22 4 -80 31
-129 59 -122 72 -185 90 -361 107 -82 7 -152 12 -154 10 -2 -3 -16 4 -30 14
-14 10 -36 22 -48 25 -41 13 -124 86 -159 142 -19 29 -47 60 -63 68 -15 8 -36
28 -47 43 -55 83 -116 193 -130 232 -23 68 -49 97 -122 137 -90 49 -215 121
-227 131 -5 4 -34 19 -64 33 -30 14 -73 38 -95 55 -23 16 -63 42 -91 56 -37
20 -52 35 -56 56 -11 46 -10 103 1 103 6 0 10 7 10 14 0 8 16 27 35 42 19 14
35 30 35 35 0 16 54 65 90 84 19 10 37 21 40 26 3 4 28 13 55 20 68 16 151 48
178 68 12 10 40 28 62 40 l40 23 -40 -36 c-22 -20 -35 -36 -28 -36 13 0 123
88 123 98 0 4 26 23 58 42 31 19 76 52 99 74 34 30 46 36 57 27 20 -17 53 44
66 123 17 104 38 156 66 156 10 0 15 -14 16 -42z"/>
<path d="M2236 2985 c-10 -28 5 -75 25 -75 15 0 19 7 19 33 0 46 -31 76 -44
42z"/>
<path d="M1778 2645 c-14 -14 10 -71 34 -85 37 -20 49 -3 15 22 -16 12 -27 29
-27 44 0 22 -10 31 -22 19z"/>
<path d="M2114 2607 c-5 -7 -21 -19 -35 -28 -38 -26 -17 -31 34 -9 32 14 44
25 41 35 -7 18 -25 19 -40 2z"/>
<path d="M1874 2583 c3 -4 14 -8 24 -9 9 -1 34 -6 55 -9 40 -8 53 8 15 19 -31
8 -103 8 -94 -1z"/>
<path d="M2040 2503 c-32 -7 -98 -12 -157 -10 -84 2 -105 -1 -119 -15 -34 -34
-9 -39 159 -33 89 4 186 10 216 15 36 5 70 3 102 -5 48 -13 71 -7 46 13 -18
14 -105 40 -152 44 -22 3 -65 -1 -95 -9z"/>
<path d="M2267 2418 c-16 -9 -175 -10 -492 -4 -72 1 -96 -16 -31 -22 23 -2 40
-11 50 -28 11 -15 26 -24 42 -24 14 0 41 -7 60 -16 42 -20 214 -16 254 5 l24
14 -22 8 c-37 14 -20 39 26 39 13 0 12 -3 -4 -15 -18 -14 -18 -14 9 -15 34 0
87 21 105 43 16 19 3 29 -21 15z m-427 -38 c0 -5 -6 -10 -14 -10 -8 0 -18 5
-21 10 -3 6 3 10 14 10 12 0 21 -4 21 -10z m93 -11 c-7 -25 -46 -22 -51 4 -3
13 3 17 26 17 25 0 29 -3 25 -21z m79 16 c3 -3 3 -16 1 -29 l-5 -23 -24 22
c-13 12 -24 25 -24 29 0 7 44 8 52 1z m79 -5 c25 0 24 -16 -2 -30 -17 -9 -23
-8 -35 7 -18 24 -18 36 2 29 9 -3 24 -6 35 -6z"/>
<path d="M1800 2273 c1 -24 34 -45 105 -67 33 -10 69 -22 80 -26 11 -4 42 -1
70 6 27 8 58 14 68 14 9 0 25 8 35 18 10 9 27 23 38 30 17 11 16 12 -11 7
-156 -27 -200 -28 -276 -5 -41 12 -78 26 -83 31 -16 14 -26 11 -26 -8z"/>
<path d="M1647 2963 c-11 -11 -8 -58 5 -71 7 -7 20 -12 29 -12 22 0 36 55 19
75 -13 16 -42 20 -53 8z"/>
<path d="M1540 2024 c0 -20 137 -167 186 -200 l35 -24 -6 22 c-7 21 -112 128
-126 128 -4 0 -22 20 -40 45 -36 47 -49 55 -49 29z"/>
<path d="M2101 530 c-1 -30 25 -96 47 -118 26 -26 30 -15 4 14 -9 10 -25 42
-34 69 -9 28 -16 43 -17 35z"/>
</g>
</svg>
